<mxfile host="Electron" modified="2024-07-24T09:33:04.796Z" agent="Mozilla/5.0 (Macintosh; Intel Mac OS X 10_15_7) AppleWebKit/537.36 (KHTML, like Gecko) draw.io/22.0.3 Chrome/114.0.5735.289 Electron/25.8.4 Safari/537.36" etag="kVlzbSwfmWOMbF9rRnyc" version="22.0.3" type="device" pages="3">
  <diagram name="target-architecture" id="O9XdC3RRBetugcBpTLkq">
    <mxGraphModel dx="1493" dy="1159" grid="1" gridSize="10" guides="1" tooltips="1" connect="1" arrows="1" fold="1" page="1" pageScale="1" pageWidth="1654" pageHeight="1169" math="0" shadow="0">
      <root>
        <mxCell id="LcAE4-p-ZAQXSCbZCqAu-0" />
        <mxCell id="LcAE4-p-ZAQXSCbZCqAu-1" parent="LcAE4-p-ZAQXSCbZCqAu-0" />
        <mxCell id="UxH-Qs45etIk6f_FiI_n-0" value="&lt;font color=&quot;#733432&quot;&gt;Unity Catalog&lt;/font&gt;" style="rounded=1;whiteSpace=wrap;html=1;fontSize=16;fillColor=#f8cecc;strokeColor=#b85450;arcSize=6;align=left;labelBackgroundColor=none;spacing=17;verticalAlign=top;spacingTop=-18;" parent="LcAE4-p-ZAQXSCbZCqAu-1" vertex="1">
          <mxGeometry x="360" y="481" width="1110" height="120" as="geometry" />
        </mxCell>
        <mxCell id="LcAE4-p-ZAQXSCbZCqAu-2" value="" style="endArrow=none;dashed=1;html=1;strokeColor=#0000FF;startArrow=none;exitX=0.018;exitY=0.704;exitDx=0;exitDy=0;exitPerimeter=0;entryX=0.994;entryY=0.743;entryDx=0;entryDy=0;entryPerimeter=0;labelBackgroundColor=none;" parent="LcAE4-p-ZAQXSCbZCqAu-1" source="LcAE4-p-ZAQXSCbZCqAu-3" target="LcAE4-p-ZAQXSCbZCqAu-3" edge="1">
          <mxGeometry width="50" height="50" relative="1" as="geometry">
            <mxPoint x="741" y="81" as="sourcePoint" />
            <mxPoint x="1051" y="81" as="targetPoint" />
            <Array as="points">
              <mxPoint x="320" y="91" />
              <mxPoint x="320" y="860" />
              <mxPoint x="1500" y="860" />
              <mxPoint x="1500" y="92" />
            </Array>
          </mxGeometry>
        </mxCell>
        <mxCell id="LcAE4-p-ZAQXSCbZCqAu-3" value="Azure" style="verticalLabelPosition=bottom;html=1;verticalAlign=top;align=center;strokeColor=none;fillColor=#00BEF2;shape=mxgraph.azure.cloud;labelBackgroundColor=none;" parent="LcAE4-p-ZAQXSCbZCqAu-1" vertex="1">
          <mxGeometry x="408.43000000000006" y="62" width="50" height="40" as="geometry" />
        </mxCell>
        <mxCell id="LcAE4-p-ZAQXSCbZCqAu-10" value="Silver Container" style="aspect=fixed;html=1;points=[];align=center;image;fontSize=12;image=img/lib/azure2/general/Storage_Container.svg;labelBackgroundColor=none;" parent="LcAE4-p-ZAQXSCbZCqAu-1" vertex="1">
          <mxGeometry x="725.8700000000001" y="651.33" width="51.69" height="42" as="geometry" />
        </mxCell>
        <mxCell id="LcAE4-p-ZAQXSCbZCqAu-11" value="" style="endArrow=none;dashed=1;html=1;strokeColor=#0000FF;fillColor=#f8cecc;labelBackgroundColor=none;" parent="LcAE4-p-ZAQXSCbZCqAu-1" source="LcAE4-p-ZAQXSCbZCqAu-75" target="LcAE4-p-ZAQXSCbZCqAu-75" edge="1">
          <mxGeometry width="50" height="50" relative="1" as="geometry">
            <mxPoint x="343.4" y="721.5" as="sourcePoint" />
            <mxPoint x="343.4" y="676.5" as="targetPoint" />
            <Array as="points">
              <mxPoint x="360" y="747" />
              <mxPoint x="1470" y="749" />
              <mxPoint x="1470" y="609" />
              <mxPoint x="360" y="609" />
            </Array>
          </mxGeometry>
        </mxCell>
        <mxCell id="LcAE4-p-ZAQXSCbZCqAu-12" value="write/update&lt;br&gt;events" style="aspect=fixed;html=1;points=[];align=left;image;fontSize=12;image=img/lib/azure2/integration/Event_Grid_Subscriptions.svg;labelPosition=right;verticalLabelPosition=middle;verticalAlign=middle;labelBackgroundColor=none;" parent="LcAE4-p-ZAQXSCbZCqAu-1" vertex="1">
          <mxGeometry x="366.5" y="702.63" width="33.5" height="30" as="geometry" />
        </mxCell>
        <mxCell id="LcAE4-p-ZAQXSCbZCqAu-13" value="Bronze Container" style="aspect=fixed;html=1;points=[];align=center;image;fontSize=12;image=img/lib/azure2/general/Storage_Container.svg;labelBackgroundColor=none;" parent="LcAE4-p-ZAQXSCbZCqAu-1" vertex="1">
          <mxGeometry x="514.9899999999998" y="651.33" width="51.69" height="42" as="geometry" />
        </mxCell>
        <mxCell id="LcAE4-p-ZAQXSCbZCqAu-69" value="" style="sketch=0;aspect=fixed;html=1;points=[];align=left;image;fontSize=12;image=img/lib/mscae/Key.svg;labelBackgroundColor=none;opacity=80;labelPosition=right;verticalLabelPosition=middle;verticalAlign=middle;" parent="LcAE4-p-ZAQXSCbZCqAu-1" vertex="1">
          <mxGeometry x="326.21" y="95.13" width="18.6" height="30" as="geometry" />
        </mxCell>
        <mxCell id="LcAE4-p-ZAQXSCbZCqAu-75" value="ADLS Gen 2.0" style="aspect=fixed;html=1;points=[];align=left;image;fontSize=12;image=img/lib/mscae/Data_Lake.svg;labelBackgroundColor=none;labelPosition=right;verticalLabelPosition=top;verticalAlign=bottom;" parent="LcAE4-p-ZAQXSCbZCqAu-1" vertex="1">
          <mxGeometry x="340.88000000000005" y="635.66" width="38" height="50" as="geometry" />
        </mxCell>
        <mxCell id="LcAE4-p-ZAQXSCbZCqAu-95" value="Bronze" style="rounded=1;whiteSpace=wrap;html=1;fillColor=#ffe6cc;strokeColor=#d79b00;labelBackgroundColor=none;" parent="LcAE4-p-ZAQXSCbZCqAu-1" vertex="1">
          <mxGeometry x="418.88" y="140.5" width="100" height="32.25" as="geometry" />
        </mxCell>
        <mxCell id="LcAE4-p-ZAQXSCbZCqAu-96" value="" style="endArrow=none;dashed=1;html=1;strokeColor=#CC6600;startArrow=none;entryX=1;entryY=0.5;entryDx=0;entryDy=0;exitX=0;exitY=0.5;exitDx=0;exitDy=0;labelBackgroundColor=none;" parent="LcAE4-p-ZAQXSCbZCqAu-1" source="LcAE4-p-ZAQXSCbZCqAu-95" target="LcAE4-p-ZAQXSCbZCqAu-95" edge="1">
          <mxGeometry width="50" height="50" relative="1" as="geometry">
            <mxPoint x="142.0300000000001" y="-26.480000000000018" as="sourcePoint" />
            <mxPoint x="190.58000000000004" y="-26.519999999999982" as="targetPoint" />
            <Array as="points">
              <mxPoint x="348.88" y="156.76" />
              <mxPoint x="348.88" y="463.76" />
              <mxPoint x="588.8800000000001" y="463.13" />
              <mxPoint x="588.8800000000001" y="156.13" />
            </Array>
          </mxGeometry>
        </mxCell>
        <mxCell id="LcAE4-p-ZAQXSCbZCqAu-100" value="" style="endArrow=none;dashed=1;html=1;strokeColor=#000000;startArrow=none;exitX=0;exitY=0.5;exitDx=0;exitDy=0;exitPerimeter=0;entryX=1;entryY=0.5;entryDx=0;entryDy=0;entryPerimeter=0;labelBackgroundColor=none;" parent="LcAE4-p-ZAQXSCbZCqAu-1" source="LcAE4-p-ZAQXSCbZCqAu-146" target="LcAE4-p-ZAQXSCbZCqAu-146" edge="1">
          <mxGeometry width="50" height="50" relative="1" as="geometry">
            <mxPoint x="239.09043271311134" y="88.89832982502071" as="sourcePoint" />
            <mxPoint x="277.08956728688895" y="89.11600977243097" as="targetPoint" />
            <Array as="points">
              <mxPoint x="160" y="90" />
              <mxPoint x="160" y="860" />
              <mxPoint x="310" y="860" />
              <mxPoint x="310" y="89.75" />
            </Array>
          </mxGeometry>
        </mxCell>
        <mxCell id="LcAE4-p-ZAQXSCbZCqAu-118" value="" style="shape=image;verticalLabelPosition=bottom;labelBackgroundColor=none;verticalAlign=top;aspect=fixed;imageAspect=0;image=https://d33wubrfki0l68.cloudfront.net/71c06092efb06fcf30ebecdfda4ff6514ae3112d/aa352/blog/parquet-file-format-big-data-r/parquet-logo.png;" parent="LcAE4-p-ZAQXSCbZCqAu-1" vertex="1">
          <mxGeometry x="489.9999999999999" y="645.6800000000001" width="40" height="26.65" as="geometry" />
        </mxCell>
        <mxCell id="LcAE4-p-ZAQXSCbZCqAu-146" value="" style="shape=cylinder3;whiteSpace=wrap;html=1;boundedLbl=1;backgroundOutline=1;size=7.60003662109375;fillColor=#f5f5f5;fontColor=#333333;strokeColor=#666666;labelBackgroundColor=none;" parent="LcAE4-p-ZAQXSCbZCqAu-1" vertex="1">
          <mxGeometry x="218.46000000000004" y="69.5" width="32.36" height="41" as="geometry" />
        </mxCell>
        <mxCell id="LC1OuyFL2lo_jGS1EShN-12" value="" style="endArrow=none;dashed=1;html=1;strokeColor=#007FFF;startArrow=none;exitX=0;exitY=0.5;exitDx=0;exitDy=0;entryX=1;entryY=0.5;entryDx=0;entryDy=0;labelBackgroundColor=none;" parent="LcAE4-p-ZAQXSCbZCqAu-1" source="I6eMV21CClMDfW5IqpgD-1" target="I6eMV21CClMDfW5IqpgD-1" edge="1">
          <mxGeometry width="50" height="50" relative="1" as="geometry">
            <mxPoint x="424.4000000000001" y="784.125" as="sourcePoint" />
            <mxPoint x="524.4000000000001" y="784.125" as="targetPoint" />
            <Array as="points">
              <mxPoint x="360" y="774" />
              <mxPoint x="360" y="848" />
              <mxPoint x="1470" y="848" />
              <mxPoint x="1470" y="778" />
            </Array>
          </mxGeometry>
        </mxCell>
        <mxCell id="LC1OuyFL2lo_jGS1EShN-13" value="Azure Monitor" style="aspect=fixed;html=1;points=[];align=center;image;fontSize=12;image=img/lib/azure2/management_governance/Monitor.svg;labelBackgroundColor=none;" parent="LcAE4-p-ZAQXSCbZCqAu-1" vertex="1">
          <mxGeometry x="568.19" y="780" width="44" height="44" as="geometry" />
        </mxCell>
        <mxCell id="LC1OuyFL2lo_jGS1EShN-14" value="Log Analytics" style="aspect=fixed;html=1;points=[];align=center;image;fontSize=12;image=img/lib/azure2/analytics/Log_Analytics_Workspaces.svg;labelBackgroundColor=none;" parent="LcAE4-p-ZAQXSCbZCqAu-1" vertex="1">
          <mxGeometry x="917" y="780" width="44" height="44" as="geometry" />
        </mxCell>
        <mxCell id="TCyqZ6ukZb-iW6ul-69j-0" value="Data Sources" style="text;html=1;strokeColor=none;fillColor=none;align=center;verticalAlign=middle;whiteSpace=wrap;rounded=0;fontSize=12;labelBackgroundColor=none;" parent="LcAE4-p-ZAQXSCbZCqAu-1" vertex="1">
          <mxGeometry x="191.39" y="110.5" width="86.5" height="30" as="geometry" />
        </mxCell>
        <mxCell id="I6eMV21CClMDfW5IqpgD-1" value="Management &amp;amp; Governance" style="rounded=1;whiteSpace=wrap;html=1;fontSize=12;fillColor=#dae8fc;strokeColor=#6c8ebf;labelBackgroundColor=none;" parent="LcAE4-p-ZAQXSCbZCqAu-1" vertex="1">
          <mxGeometry x="379.19" y="758" width="161.62" height="32" as="geometry" />
        </mxCell>
        <mxCell id="I6eMV21CClMDfW5IqpgD-2" value="Active Directory" style="image;aspect=fixed;html=1;points=[];align=center;fontSize=12;image=img/lib/azure2/identity/Azure_Active_Directory.svg;labelBackgroundColor=none;" parent="LcAE4-p-ZAQXSCbZCqAu-1" vertex="1">
          <mxGeometry x="1155.06" y="784" width="45.94" height="42" as="geometry" />
        </mxCell>
        <mxCell id="I6eMV21CClMDfW5IqpgD-8" value="Silver" style="rounded=1;whiteSpace=wrap;html=1;fillColor=#f5f5f5;strokeColor=#666666;labelBackgroundColor=none;fontColor=#333333;" parent="LcAE4-p-ZAQXSCbZCqAu-1" vertex="1">
          <mxGeometry x="701.65" y="140.5" width="100" height="32.25" as="geometry" />
        </mxCell>
        <mxCell id="I6eMV21CClMDfW5IqpgD-9" value="" style="endArrow=none;dashed=1;html=1;strokeColor=#999999;startArrow=none;entryX=1;entryY=0.5;entryDx=0;entryDy=0;exitX=0;exitY=0.5;exitDx=0;exitDy=0;labelBackgroundColor=none;" parent="LcAE4-p-ZAQXSCbZCqAu-1" source="I6eMV21CClMDfW5IqpgD-8" target="I6eMV21CClMDfW5IqpgD-8" edge="1">
          <mxGeometry width="50" height="50" relative="1" as="geometry">
            <mxPoint x="400.6500000000001" y="-26.490000000000023" as="sourcePoint" />
            <mxPoint x="449.20000000000005" y="-26.529999999999987" as="targetPoint" />
            <Array as="points">
              <mxPoint x="607.5" y="156.75" />
              <mxPoint x="608" y="460" />
              <mxPoint x="900" y="460" />
              <mxPoint x="900" y="157" />
            </Array>
          </mxGeometry>
        </mxCell>
        <mxCell id="I6eMV21CClMDfW5IqpgD-11" value="Delta Lake" style="shape=image;verticalLabelPosition=bottom;labelBackgroundColor=none;verticalAlign=top;aspect=fixed;imageAspect=0;image=https://delta.io/static/3bd8fea55ff57287371f4714232cd4ef/f3063/delta-lake-logo.png;fontSize=12;" parent="LcAE4-p-ZAQXSCbZCqAu-1" vertex="1">
          <mxGeometry x="395.67" y="500" width="40.21" height="39" as="geometry" />
        </mxCell>
        <mxCell id="I6eMV21CClMDfW5IqpgD-12" value="" style="endArrow=none;dashed=1;html=1;strokeColor=#0000FF;fillColor=#f8cecc;entryX=1;entryY=0.5;entryDx=0;entryDy=0;exitX=0;exitY=0.5;exitDx=0;exitDy=0;labelBackgroundColor=none;" parent="LcAE4-p-ZAQXSCbZCqAu-1" source="I6eMV21CClMDfW5IqpgD-11" target="I6eMV21CClMDfW5IqpgD-11" edge="1">
          <mxGeometry width="50" height="50" relative="1" as="geometry">
            <mxPoint x="354" y="692" as="sourcePoint" />
            <mxPoint x="354" y="642" as="targetPoint" />
            <Array as="points">
              <mxPoint x="370" y="519" />
              <mxPoint x="370" y="591" />
              <mxPoint x="1460" y="591" />
              <mxPoint x="1460" y="517" />
            </Array>
          </mxGeometry>
        </mxCell>
        <mxCell id="I6eMV21CClMDfW5IqpgD-13" value="bronze" style="shape=image;verticalLabelPosition=bottom;labelBackgroundColor=none;verticalAlign=top;aspect=fixed;imageAspect=0;image=https://delta.io/static/3bd8fea55ff57287371f4714232cd4ef/f3063/delta-lake-logo.png;fontSize=12;" parent="LcAE4-p-ZAQXSCbZCqAu-1" vertex="1">
          <mxGeometry x="520.45" y="527" width="42.27" height="41" as="geometry" />
        </mxCell>
        <mxCell id="I6eMV21CClMDfW5IqpgD-15" value="Key Vault" style="image;aspect=fixed;html=1;points=[];align=center;fontSize=12;image=img/lib/azure2/security/Key_Vaults.svg;labelBackgroundColor=none;" parent="LcAE4-p-ZAQXSCbZCqAu-1" vertex="1">
          <mxGeometry x="1395.96" y="784" width="40" height="40" as="geometry" />
        </mxCell>
        <mxCell id="I6eMV21CClMDfW5IqpgD-22" value="Gold" style="rounded=1;whiteSpace=wrap;html=1;fillColor=#fff2cc;strokeColor=#d6b656;labelBackgroundColor=none;" parent="LcAE4-p-ZAQXSCbZCqAu-1" vertex="1">
          <mxGeometry x="1010" y="140.5" width="100" height="32.25" as="geometry" />
        </mxCell>
        <mxCell id="I6eMV21CClMDfW5IqpgD-23" value="" style="endArrow=none;dashed=1;html=1;strokeColor=#999900;startArrow=none;entryX=1;entryY=0.5;entryDx=0;entryDy=0;exitX=0;exitY=0.5;exitDx=0;exitDy=0;labelBackgroundColor=none;" parent="LcAE4-p-ZAQXSCbZCqAu-1" source="I6eMV21CClMDfW5IqpgD-22" target="I6eMV21CClMDfW5IqpgD-22" edge="1">
          <mxGeometry width="50" height="50" relative="1" as="geometry">
            <mxPoint x="713.1500000000001" y="-26.490000000000023" as="sourcePoint" />
            <mxPoint x="761.7" y="-26.529999999999987" as="targetPoint" />
            <Array as="points">
              <mxPoint x="920" y="156.75" />
              <mxPoint x="921" y="460" />
              <mxPoint x="1210" y="460" />
              <mxPoint x="1210" y="157" />
            </Array>
          </mxGeometry>
        </mxCell>
        <mxCell id="I6eMV21CClMDfW5IqpgD-25" value="silver" style="shape=image;verticalLabelPosition=bottom;labelBackgroundColor=none;verticalAlign=top;aspect=fixed;imageAspect=0;image=https://delta.io/static/3bd8fea55ff57287371f4714232cd4ef/f3063/delta-lake-logo.png;fontSize=12;" parent="LcAE4-p-ZAQXSCbZCqAu-1" vertex="1">
          <mxGeometry x="735.29" y="527" width="42.27" height="41" as="geometry" />
        </mxCell>
        <mxCell id="I6eMV21CClMDfW5IqpgD-26" value="gold" style="shape=image;verticalLabelPosition=bottom;labelBackgroundColor=none;verticalAlign=top;aspect=fixed;imageAspect=0;image=https://delta.io/static/3bd8fea55ff57287371f4714232cd4ef/f3063/delta-lake-logo.png;fontSize=12;" parent="LcAE4-p-ZAQXSCbZCqAu-1" vertex="1">
          <mxGeometry x="1055.29" y="527" width="42.27" height="41" as="geometry" />
        </mxCell>
        <mxCell id="I6eMV21CClMDfW5IqpgD-27" value="Gold Container" style="aspect=fixed;html=1;points=[];align=center;image;fontSize=12;image=img/lib/azure2/general/Storage_Container.svg;labelBackgroundColor=none;" parent="LcAE4-p-ZAQXSCbZCqAu-1" vertex="1">
          <mxGeometry x="1050.5800000000002" y="645.49" width="51.69" height="42" as="geometry" />
        </mxCell>
        <mxCell id="I6eMV21CClMDfW5IqpgD-33" value="" style="shape=flexArrow;endArrow=classic;startArrow=classic;html=1;rounded=0;fontSize=12;startSize=8;endSize=8;curved=1;fillColor=#d5e8d4;strokeColor=#82b366;labelBackgroundColor=none;" parent="LcAE4-p-ZAQXSCbZCqAu-1" edge="1">
          <mxGeometry width="100" height="100" relative="1" as="geometry">
            <mxPoint x="913.32" y="657" as="sourcePoint" />
            <mxPoint x="913.32" y="557" as="targetPoint" />
          </mxGeometry>
        </mxCell>
        <mxCell id="I6eMV21CClMDfW5IqpgD-36" value="Azure VNet" style="verticalLabelPosition=bottom;html=1;verticalAlign=top;align=center;strokeColor=none;fillColor=#00BEF2;shape=mxgraph.azure.virtual_network;pointerEvents=1;fontSize=12;labelBackgroundColor=none;" parent="LcAE4-p-ZAQXSCbZCqAu-1" vertex="1">
          <mxGeometry x="726.65" y="788.25" width="50" height="27.500000000000004" as="geometry" />
        </mxCell>
        <mxCell id="I6eMV21CClMDfW5IqpgD-37" value="" style="shape=image;verticalLabelPosition=bottom;labelBackgroundColor=none;verticalAlign=top;aspect=fixed;imageAspect=0;image=https://d33wubrfki0l68.cloudfront.net/71c06092efb06fcf30ebecdfda4ff6514ae3112d/aa352/blog/parquet-file-format-big-data-r/parquet-logo.png;" parent="LcAE4-p-ZAQXSCbZCqAu-1" vertex="1">
          <mxGeometry x="701.6499999999999" y="645.6800000000001" width="40" height="26.65" as="geometry" />
        </mxCell>
        <mxCell id="I6eMV21CClMDfW5IqpgD-38" value="" style="shape=image;verticalLabelPosition=bottom;labelBackgroundColor=none;verticalAlign=top;aspect=fixed;imageAspect=0;image=https://d33wubrfki0l68.cloudfront.net/71c06092efb06fcf30ebecdfda4ff6514ae3112d/aa352/blog/parquet-file-format-big-data-r/parquet-logo.png;" parent="LcAE4-p-ZAQXSCbZCqAu-1" vertex="1">
          <mxGeometry x="1029.07" y="633.8399999999999" width="36.5" height="24.32" as="geometry" />
        </mxCell>
        <mxCell id="I6eMV21CClMDfW5IqpgD-42" value="SQL Endpoint" style="aspect=fixed;html=1;points=[];align=center;image;fontSize=12;image=img/lib/mscae/Databricks.svg;labelBackgroundColor=none;" parent="LcAE4-p-ZAQXSCbZCqAu-1" vertex="1">
          <mxGeometry x="1130" y="370" width="54.7" height="52.5" as="geometry" />
        </mxCell>
        <mxCell id="I6eMV21CClMDfW5IqpgD-53" value="Serving" style="rounded=1;whiteSpace=wrap;html=1;fillColor=#dae8fc;strokeColor=#6c8ebf;labelBackgroundColor=none;" parent="LcAE4-p-ZAQXSCbZCqAu-1" vertex="1">
          <mxGeometry x="1300.96" y="140.5" width="100" height="32.25" as="geometry" />
        </mxCell>
        <mxCell id="I6eMV21CClMDfW5IqpgD-54" value="" style="endArrow=none;dashed=1;html=1;strokeColor=#007FFF;startArrow=none;entryX=1;entryY=0.5;entryDx=0;entryDy=0;exitX=0;exitY=0.5;exitDx=0;exitDy=0;labelBackgroundColor=none;" parent="LcAE4-p-ZAQXSCbZCqAu-1" source="I6eMV21CClMDfW5IqpgD-53" target="I6eMV21CClMDfW5IqpgD-53" edge="1">
          <mxGeometry width="50" height="50" relative="1" as="geometry">
            <mxPoint x="1013.1500000000001" y="148.38" as="sourcePoint" />
            <mxPoint x="1061.7" y="148.34000000000003" as="targetPoint" />
            <Array as="points">
              <mxPoint x="1230" y="157" />
              <mxPoint x="1230" y="460" />
              <mxPoint x="1470" y="460" />
              <mxPoint x="1470" y="157" />
            </Array>
          </mxGeometry>
        </mxCell>
        <mxCell id="I6eMV21CClMDfW5IqpgD-57" value="BI Dashboard" style="html=1;strokeColor=none;fillColor=#0079D6;labelPosition=center;verticalLabelPosition=middle;verticalAlign=top;align=center;fontSize=12;outlineConnect=0;spacingTop=-6;fontColor=#FFFFFF;sketch=0;shape=mxgraph.sitemap.chart;labelBackgroundColor=none;" parent="LcAE4-p-ZAQXSCbZCqAu-1" vertex="1">
          <mxGeometry x="1310.96" y="367.09000000000003" width="90" height="58.32" as="geometry" />
        </mxCell>
        <mxCell id="gEyKVkVUw-G5Uj5i3CAT-8" value="Device Logs" style="outlineConnect=0;dashed=0;verticalLabelPosition=bottom;verticalAlign=top;align=center;html=1;shape=mxgraph.aws3.flow_logs;fillColor=#000000;gradientColor=none;fontSize=12;" vertex="1" parent="LcAE4-p-ZAQXSCbZCqAu-1">
          <mxGeometry x="203.89" y="328.99" width="60" height="60" as="geometry" />
        </mxCell>
        <mxCell id="gEyKVkVUw-G5Uj5i3CAT-10" value="Azure Event Hub" style="image;aspect=fixed;html=1;points=[];align=center;fontSize=12;image=img/lib/azure2/analytics/Event_Hubs.svg;" vertex="1" parent="LcAE4-p-ZAQXSCbZCqAu-1">
          <mxGeometry x="378.88" y="261.09" width="57" height="51.04" as="geometry" />
        </mxCell>
        <mxCell id="gEyKVkVUw-G5Uj5i3CAT-11" value="Combine Data" style="aspect=fixed;html=1;points=[];align=center;image;fontSize=12;image=img/lib/mscae/Databricks.svg;labelBackgroundColor=none;" vertex="1" parent="LcAE4-p-ZAQXSCbZCqAu-1">
          <mxGeometry x="514.99" y="261.09" width="53.2" height="51.06" as="geometry" />
        </mxCell>
        <mxCell id="gEyKVkVUw-G5Uj5i3CAT-12" value="Production IIoT Data" style="sketch=0;points=[[0,0,0],[0.25,0,0],[0.5,0,0],[0.75,0,0],[1,0,0],[0,1,0],[0.25,1,0],[0.5,1,0],[0.75,1,0],[1,1,0],[0,0.25,0],[0,0.5,0],[0,0.75,0],[1,0.25,0],[1,0.5,0],[1,0.75,0]];outlineConnect=0;fontColor=#232F3E;fillColor=#000000;strokeColor=#ffffff;dashed=0;verticalLabelPosition=bottom;verticalAlign=top;align=center;html=1;fontSize=12;fontStyle=0;aspect=fixed;shape=mxgraph.aws4.resourceIcon;resIcon=mxgraph.aws4.lookout_for_equipment;" vertex="1" parent="LcAE4-p-ZAQXSCbZCqAu-1">
          <mxGeometry x="203.89" y="197.25" width="60" height="60" as="geometry" />
        </mxCell>
        <mxCell id="gEyKVkVUw-G5Uj5i3CAT-13" value="" style="endArrow=classic;html=1;strokeWidth=2;strokeColor=#00994D;labelBackgroundColor=none;" edge="1" parent="LcAE4-p-ZAQXSCbZCqAu-1" source="gEyKVkVUw-G5Uj5i3CAT-10" target="gEyKVkVUw-G5Uj5i3CAT-11">
          <mxGeometry width="50" height="50" relative="1" as="geometry">
            <mxPoint x="1348.88" y="232.13" as="sourcePoint" />
            <mxPoint x="1378.88" y="140.13" as="targetPoint" />
            <Array as="points" />
          </mxGeometry>
        </mxCell>
        <mxCell id="gEyKVkVUw-G5Uj5i3CAT-17" value="Product IoT Data" style="sketch=0;points=[[0,0,0],[0.25,0,0],[0.5,0,0],[0.75,0,0],[1,0,0],[0,1,0],[0.25,1,0],[0.5,1,0],[0.75,1,0],[1,1,0],[0,0.25,0],[0,0.5,0],[0,0.75,0],[1,0.25,0],[1,0.5,0],[1,0.75,0]];outlineConnect=0;fontColor=#232F3E;fillColor=#000000;strokeColor=#ffffff;dashed=0;verticalLabelPosition=bottom;verticalAlign=top;align=center;html=1;fontSize=12;fontStyle=0;aspect=fixed;shape=mxgraph.aws4.resourceIcon;resIcon=mxgraph.aws4.internet_of_things;" vertex="1" parent="LcAE4-p-ZAQXSCbZCqAu-1">
          <mxGeometry x="204.64000000000001" y="460" width="60" height="60" as="geometry" />
        </mxCell>
        <mxCell id="gEyKVkVUw-G5Uj5i3CAT-19" value="APIs" style="sketch=0;points=[[0,0,0],[0.25,0,0],[0.5,0,0],[0.75,0,0],[1,0,0],[0,1,0],[0.25,1,0],[0.5,1,0],[0.75,1,0],[1,1,0],[0,0.25,0],[0,0.5,0],[0,0.75,0],[1,0.25,0],[1,0.5,0],[1,0.75,0]];outlineConnect=0;fontColor=#232F3E;fillColor=#000000;strokeColor=#ffffff;dashed=0;verticalLabelPosition=bottom;verticalAlign=top;align=center;html=1;fontSize=12;fontStyle=0;aspect=fixed;shape=mxgraph.aws4.resourceIcon;resIcon=mxgraph.aws4.cloud_control_api;" vertex="1" parent="LcAE4-p-ZAQXSCbZCqAu-1">
          <mxGeometry x="203.89" y="590" width="60" height="60" as="geometry" />
        </mxCell>
        <mxCell id="g3JtSoTKQPr87EbilQ1k-0" value="" style="endArrow=classic;html=1;strokeWidth=2;strokeColor=#00994D;labelBackgroundColor=none;exitX=1;exitY=0.5;exitDx=0;exitDy=0;exitPerimeter=0;" edge="1" parent="LcAE4-p-ZAQXSCbZCqAu-1" source="gEyKVkVUw-G5Uj5i3CAT-12" target="gEyKVkVUw-G5Uj5i3CAT-10">
          <mxGeometry width="50" height="50" relative="1" as="geometry">
            <mxPoint x="446" y="297" as="sourcePoint" />
            <mxPoint x="519" y="297" as="targetPoint" />
            <Array as="points">
              <mxPoint x="330" y="227" />
              <mxPoint x="330" y="287" />
            </Array>
          </mxGeometry>
        </mxCell>
        <mxCell id="g3JtSoTKQPr87EbilQ1k-2" value="" style="endArrow=classic;html=1;strokeWidth=2;strokeColor=#00994D;labelBackgroundColor=none;exitX=1;exitY=0.5;exitDx=0;exitDy=0;exitPerimeter=0;" edge="1" parent="LcAE4-p-ZAQXSCbZCqAu-1" source="gEyKVkVUw-G5Uj5i3CAT-8" target="gEyKVkVUw-G5Uj5i3CAT-10">
          <mxGeometry width="50" height="50" relative="1" as="geometry">
            <mxPoint x="274" y="237" as="sourcePoint" />
            <mxPoint x="389" y="297" as="targetPoint" />
            <Array as="points">
              <mxPoint x="330" y="360" />
              <mxPoint x="330" y="287" />
            </Array>
          </mxGeometry>
        </mxCell>
        <mxCell id="g3JtSoTKQPr87EbilQ1k-3" value="" style="endArrow=classic;html=1;strokeWidth=2;strokeColor=#00994D;labelBackgroundColor=none;exitX=1;exitY=0.5;exitDx=0;exitDy=0;exitPerimeter=0;" edge="1" parent="LcAE4-p-ZAQXSCbZCqAu-1" source="gEyKVkVUw-G5Uj5i3CAT-17" target="gEyKVkVUw-G5Uj5i3CAT-10">
          <mxGeometry width="50" height="50" relative="1" as="geometry">
            <mxPoint x="274" y="369" as="sourcePoint" />
            <mxPoint x="389" y="297" as="targetPoint" />
            <Array as="points">
              <mxPoint x="330" y="490" />
              <mxPoint x="330" y="287" />
            </Array>
          </mxGeometry>
        </mxCell>
        <mxCell id="g3JtSoTKQPr87EbilQ1k-4" value="" style="endArrow=classic;html=1;strokeWidth=2;strokeColor=#00994D;labelBackgroundColor=none;exitX=1;exitY=0.5;exitDx=0;exitDy=0;exitPerimeter=0;" edge="1" parent="LcAE4-p-ZAQXSCbZCqAu-1" source="gEyKVkVUw-G5Uj5i3CAT-19" target="gEyKVkVUw-G5Uj5i3CAT-10">
          <mxGeometry width="50" height="50" relative="1" as="geometry">
            <mxPoint x="275" y="500" as="sourcePoint" />
            <mxPoint x="389" y="297" as="targetPoint" />
            <Array as="points">
              <mxPoint x="330" y="620" />
              <mxPoint x="330" y="287" />
            </Array>
          </mxGeometry>
        </mxCell>
        <mxCell id="g3JtSoTKQPr87EbilQ1k-5" value="Feature Engineering" style="aspect=fixed;html=1;points=[];align=center;image;fontSize=12;image=img/lib/mscae/Databricks.svg;labelBackgroundColor=none;" vertex="1" parent="LcAE4-p-ZAQXSCbZCqAu-1">
          <mxGeometry x="653.09" y="257.25" width="53.2" height="51.06" as="geometry" />
        </mxCell>
        <mxCell id="g3JtSoTKQPr87EbilQ1k-6" value="Training" style="aspect=fixed;html=1;points=[];align=center;image;fontSize=12;image=img/lib/mscae/Databricks.svg;labelBackgroundColor=none;" vertex="1" parent="LcAE4-p-ZAQXSCbZCqAu-1">
          <mxGeometry x="804.74" y="257.25" width="53.2" height="51.06" as="geometry" />
        </mxCell>
        <mxCell id="g3JtSoTKQPr87EbilQ1k-7" value="Serving" style="shape=image;verticalLabelPosition=bottom;labelBackgroundColor=default;verticalAlign=top;aspect=fixed;imageAspect=0;image=data:image/png,iVBORw0KGgoAAAANSUhEUgAAAhAAAADMCAMAAAAVvWrGAAAABGdBTUEAALGPC/xhBQAAAAFzUkdCAK7OHOkAAAFHUExURQAAAEDP70DP3wCP3wAAAELO7wCc5gAAAEDH70DH5wCX3wCP3wAAAEDF70DF6gCV5ACV3wCP3wAAAETH60DH6wCT4wCT3wAAAEPJ7EDJ7EPG7ACT4gCT3wAAAEPM7wOW5AAAAELH7ACS4gCS3wAAAEPK7wKV4wAAAETI60LI60LG7ULG6wCU4QCS4QAAAETL7wKV4wAAAETH60LH6wCT4QAAAETJ7ULJ7wKU4gCU4gAAAEPI7ELI7AKT3wCT4QAAAEPK7ULK7EPI7QKV4gKU4gCV4gCU4gAAAEPH7EHH7ACT4QAAAEPJ7gGV4gCV4gGT4gCT4gAAAACU4UPK7kPK7AGU4gCU4gAAAEPK7UPJ7QGU4wGU4QCU4QAAAEPJ7kPJ7ULJ7UPI7QGV4gGU4gAAAEPJ7ULJ7QGU4gGT4gAAAEPJ7QGU4gAAADse0BIAAABqdFJOUwAQEBAQHx8fICAgICAwMDAwMDBAQEBAQFBQUFBQUF9fX2BgYGBvb29wcHBwcHBwf39/gICAgI+Pj4+PkJCQkJCfn5+fn5+fn6CgoKCvr6+vr6+wv7+/v7/Pz8/Pz8/f39/f39/f7+/v7+/H8IULAAAOsElEQVR42u2d7X/TyBHHlchNSeRSE7BD69A2FuWuhxPSIq4p1/raxg6t4chBUFJsUuBksGP7/3/dT8iDJe3T7EhyvdL8XsLKsXe/mv3t7GhlWSQSiUQikUgkEolEIpFIJBKJRCKRSKSF1Nra2ppN3UCyftnY+yEYTS4V9P297Sr1SkFlN/avUQhr5Neoc4qn6h6Xhi/apO4pHA7+RCKHOqhYcg5lOEz61EPF0oORlIdJi7qoUF5SHh7IQhRtughUPEwoI1Eg3VLzQBaiSDyMlDyQhaD5IipKSxEPZCGKKR/CwzH1U1G0C+Fh4lFHFWXCAPFAFqIwkhmI0XHH23bd7W4woY4qiFyxa9hemzVbo54qeIA4pjmCAsRMAeFAASKclaSkAwUIWmKSBDkp4oFyELSLRRLNGAH5B5oxqJSWdC6bw8MBdUtxVacAQQqrRQGCpLAQFCCKLCqDIYVVYYFoUK8UWE2aMUhhtWnGIIXVw2etq3FRb5ovG1846dBjXYuopycx/Vzr8ir+2Ys6pS8WUSfTmPSAYD1lAL20RauTHALBPv//Gnopk9Gq0GiYD0QPXxkTv3BIg2E+EAk8ZYWWqzkEIoGnbFLRXQ6B8PBHghzSc345BCKBp+zRUQE5BGLIANHEug9KS+UACAfvKavo0EJaXCDqeE/pYUMLaYGBaOE9pU+eModA+HhPybgPGoocAIH3lJSWyiMQFbyndOnZvxwCkcBTtugQ7BwCkcBT9qgQ02Qg/rbPFXtQyHBfpGixg42uoiAtAhCT5GpQWio/QDgpABGdEpqUljIZiGpyHmJTAm11Gg2EmxyIWAFtQFudJgPhJQdiUz4H0VanUUAcJgfClicwqALfKCD8xDz0FQkMqsA3CohhYiBaCsKoAt8oIJLPGDX5B1IFvlFAVNK2ELTVaTYQydMQsQGnCnyzgWgmBsKjtFSegGilbSGoAt9sINwOT+zSI+iIFP08qsBPqnK5XC5l0NZKUg/RQx9PmWirc/XmnXOtLhcThdK9p68GFwN1dvpqZ13WdmPn2enZ5aienjzZKGULxARdT4mswF++882L/46v9eno27vLeb39wwrRcJ8ZrcGzsoCGp2fxttNX9zMEooqvp8RU4C9vHX0aszr6ZhX0J9cYyW2LrelqeK+Xq/qXWrH2/S+f5/h/AfAgGpDSH9khPhcPiY0TbtPp4H5mQHCWHtDe06/Av/Mtj4ZLJrYyCGez3djgUiuy5rPNutFFa/882+J53rDveZ5tBRe5eReScBEB8RUfBx4SIhxASGCBaKPrKbXTUneOxlK9VyMR6J1rwtnvr2h1xtXeTHDhp4N3/pfQGKCBKEvGeDodRLzE06lUT0uZAIH3lJoV+Mv/HCulRIL9th09fqTbb46wHOgKiP3zlbUzaWGBuHcmH+TpzsxonCiaTgflLIDAe0q9CvzffxpD9He5l+hqPWLmar4zShggroFoBE3L8g66SCC+mip1RUR5oG4rJQIJRAJPqVOBv3o0BupID0LZPOXwXjvZwQSIGRCeb1lBDQkEgIfp9HdgHuREIIHAe0qdCvyb76E8vFjS/Lo/iRvvAio6wtoTTy/XQNiTlWpg4YBYh4zx9Ox8kEunoLbTQSltIPBHXGukpX4DxeHz14o/WtcAgl9jPoQHlBDh10BYvtc+wAGxMYAN8onaT4acZdpA4I+4hlfgP4Ly8OEXqj/qaAS0Nn8/ZgUcUBo8IJp+UMEBcQId5B3r/hSsjZSBwL8lA7zVCebhuyX9eUq8oSZ6CKUCXZKEp8AZEPawb+GAAOtsfQBvLJw0cEBUNRfqsiWdnYwH5XTBT4YJ7/g26NEzyZKkwQXC8jazBmJ6ptP4SapA4D0ltAL/LpCH/9zAYSgKTFVgWSgoQFjHF1cdX66sWy8zBUKPnlKaQOA9JbACf1WQfnj/j8dbd1+Ip4sHu8CJSpT96IuA6CACBGpva05AhHJZKQCB95SwCvxl7nrzzeVW1nVy4vPdmFU4FA10FzgFuNAnCUABImUgTp7cK5es0vrGE4DRHHx/2XjnRLwqSQ0IvKeEVeD/mZeMvH31v1dAvIlNF9Xz0Rk6sDmuCU1aS9edqQcIMRDPwhsW5eeKNeiGunEpPSASeEpQP/+KEx1uz/77EojHsaseXHyiD7vzW3oBQuBCmQDhZATEabwWRpaTPNuANL6fHhB4Twnb6nwvX0p8AeLD7Zhb9WV2sQLzBIEEiAoEoOT143wgnrO3c/lUIzPNS2E+Sw8IvKcEVeA/UmSe3p5HjJibrI5md6kNyS68hiatZZOBn3qA4APxnNeyNNDYqeAQMUgPCLynhKSlVuMB4kPMK3wcj7+W7Sd4ENdzDNzVkv3EagYPmJThWaQNnZ2rMtBEoIDAe0pIBf4jBQ/Wx3iu2ol+7NAGTAY/wXNSwjkmgwDBBUK0Ock1i6KSqCdMy/W0gMB7SlAF/nsFD9bDeK7aDpQrCF/tZh2tJ9h5F6TxBFoZOtkLQsSJqHEJhg4GiKbGXqD+VudWLEDcheQ/o6lpH5KIUAWId8rf2M4gQPCAKMO3JiW7VmzjnbSAwHtKSAV+rCbmO9AHb6uciadcRsbv98pQ84J0HlEtw+953jQwEDfeAW1nYIDAe0pABf5qbMJYwnxyC5BhWJF/twPmy1bmESA4QEjqpNk543tx4/XMgJhANwbUm47KGWML+MkVhWOsq3a3XKawrys3ztkECA4Q6zqNxTMGayLSAgLvKSFpqeiM8QHckT/K04qOCuKA2XNrysNgNgGCHeMzWWtgPvpCg4yAwHtKSAU+LkBYVk3uTWzFSpkNEExQ6cwjQHAqpiyNMR5Y/wcg8J6yrZ5qbkeBuAHvSV+eNBjKB5ANEMyQ96W/ZegsAhDSxicZAYH3lIAK/IfRLS2NnvTkJqIn/dIu74sNJXHQyepkxTI4C7EwQKA9JaQC/68RIP6g0ZM1uVs9lGUe40lrj8vQimzbwyksEHhPCUlLRT3lTZ2uHEpdZUv2x3e5/rAr/pnMtkdqR6+aBwTeU0Iq8N9GgNDqyp40wdGUGB+H7zebYhvqZvYCGPOAwHtKyFbn50gFpVZXdqW7ba5kd6vNn8nqYteRWYAwEAi8p4RU4KM9ZcxVNpQ5kKEqQDD/3plDgDAQCLSnBFXgZwaEI97daousrvD7ZhcgzAMC7ylBFfiZAcEmIlYEv6ghGvfhHAKEeUDgPSWoAj87IAIREIFwLdyFXZHq2x2MAwLvKUEV+BFT+VarK1tyIESW1hVPgB7/C2cZIMwDAu8pQZHlYxiIT1pd6csXMF1BgArEeLugK9J9/YtxQKA9ZRUUWaJ5iJ+h8xAV+YwyG15XcrdXuOjXswwQxgGB95SwM/D/HQHi1xo9aSsKLfjPUNiB5G63uetOP9P3Q5kGBN5Twg6GeIion+MsYvoAlFu8PQlHZkT73M9xCg0E3lPCzsCPHgOgYyLail0Sh7e75QTSu/2Qw/5hti+QMw0ItKcEnoG/FK2HuAOfMYaqR3l5u1tt+d3eYtedTrYBwjgg0vOUgsPG3mqcNii2CBVA5rzPju6BwndUWITSfsOkYUDgPSX0DPxoQcR4FdqRgfKUhh67u9VWlEVWmIVJ1gHCNCDwnhL6asbbY1SIcNW3bZf55o5q3WMz02PWAcI0IPCeEnwG/meMi4iZwxoodR6HlFM3HZtmOpkHCNOAQHtK+Bn4f4qdKgV6UqcNONeHTYSo91ZiyPQzDxCmAYH2lPAz8JfGqmf52Neb7EKeRWcyjCP18VCxqDLMPEAYBgTHUwK7pA0HKVpW+Zj9EszbTDZBFfGqF9I2QJ4p4wBhGBB4T6lxBn7YVsYPDrqIBjEgbo1Aw2TLBzcARZWsA4RhQKA9pc4Z+KEQ8YYxEF+OkopOGb8dAZ+pG2oHCMWZERkECMOAYD0l8AE2rVcz3rjigT21+OIoKZl/kJymHmgHCAVETuGBQHtK+Bn4s4UG55D7PWbF6vjw2HMoG9wa9BbINkCYBQTeU+q97nvpw3g8/hc7XfTiKQx7d6TxjbqSwX2JuMYpPBB4Twk9A//aV3IOuX8wiuW0qnssDrI5rIkY3OacA4RZQKA9JfQM/GttMY9923uRR2zW6ntcS3CskwsBDG59zgHCLCDQnrKOrcOcLS1Dwz/sByORNXR0sqWAwXXmHCDMAgLtKWFn4Ev0YDSBSH6KC2pwh/MNEEYBgfeU0K1OURbjEITDZHTL0ky8q39Gb74Bwigg8J4Se91VrhrGQ3BL19oCJrDufAOEUUCgPWUVeZ0g84SaL7iBCnChN98AYRQQaE/ZRF7HzzwJdKy+ZwV3u+6L4bMMEEYBAU7vJUtLcXLVAEHWLZ5O0lq6NMksQJgEBMdT2rAf2UNeZ1l2FzhdgBBz4bta4m05hCnOKRBNzXtL3Kd9jQ5yAY5y5MEIq+sHCL4TPbYICJ6nfI30lK+1ukiFBBQHQSJClRI5nKCnypwDgfaU0Ap8FBJwHPjhXxnlWnMNECYBgb5R/OQzcKXLZWLU0btXh/oBgmc8agREIk8JrsCXM7H9MvJOk9FLr2ZrfkYPcbNX5hogDAIC7ym9mBK87LRSc7c9b9vdrNiYyw8RN7s91wBhkNCecoFkr8UFuAhzTRGE9pSkfGpCoZOUiqck5VJoT0kiT0kiT0kqmGzylKSw6uQpSXIL0adOKfKMMSRPSQqJs+XXpF4psALylKSQOGlK8pQUIOZXFEAyzkFQWqrAcoK5FqKTFl09TG0qKbfam9CMQVLwkN2zjaTFluBohgPqmYImIAKtQ/xIOcdB9Cg+JSGKOFlsi09moDVnQVQPftiuVqv1hrcfzPsIV9ICqp3S2T2knAh2uleDOqooJhLEA00YhVELNGHQvndh1CMDQQrJIR5IYbnEAyksn3gghWQrefiR/GSRVFedBkmF98VSO/FZ0qRcSZqmPKYN76KpSjiQwtoW0uCRlyzmKqPmRY8GnUxG7zou0VBsrdVqm+6FanQiI4lEIpFIJBKJRCKRSCQSiZQj/Q/1awcdA/WKnQAAAABJRU5ErkJggg==;fontSize=12;" vertex="1" parent="LcAE4-p-ZAQXSCbZCqAu-1">
          <mxGeometry x="1294.02" y="180" width="113.88" height="44" as="geometry" />
        </mxCell>
        <mxCell id="g3JtSoTKQPr87EbilQ1k-8" value="Scoring" style="aspect=fixed;html=1;points=[];align=center;image;fontSize=12;image=img/lib/mscae/Databricks.svg;labelBackgroundColor=none;" vertex="1" parent="LcAE4-p-ZAQXSCbZCqAu-1">
          <mxGeometry x="961.0000000000001" y="261.09000000000003" width="53.2" height="51.06" as="geometry" />
        </mxCell>
        <mxCell id="g3JtSoTKQPr87EbilQ1k-9" value="" style="shape=image;verticalLabelPosition=bottom;labelBackgroundColor=default;verticalAlign=top;aspect=fixed;imageAspect=0;image=data:image/png,iVBORw0KGgoAAAANSUhEUgAAAhAAAADMCAMAAAAVvWrGAAAABGdBTUEAALGPC/xhBQAAAAFzUkdCAK7OHOkAAAFHUExURQAAAEDP70DP3wCP3wAAAELO7wCc5gAAAEDH70DH5wCX3wCP3wAAAEDF70DF6gCV5ACV3wCP3wAAAETH60DH6wCT4wCT3wAAAEPJ7EDJ7EPG7ACT4gCT3wAAAEPM7wOW5AAAAELH7ACS4gCS3wAAAEPK7wKV4wAAAETI60LI60LG7ULG6wCU4QCS4QAAAETL7wKV4wAAAETH60LH6wCT4QAAAETJ7ULJ7wKU4gCU4gAAAEPI7ELI7AKT3wCT4QAAAEPK7ULK7EPI7QKV4gKU4gCV4gCU4gAAAEPH7EHH7ACT4QAAAEPJ7gGV4gCV4gGT4gCT4gAAAACU4UPK7kPK7AGU4gCU4gAAAEPK7UPJ7QGU4wGU4QCU4QAAAEPJ7kPJ7ULJ7UPI7QGV4gGU4gAAAEPJ7ULJ7QGU4gGT4gAAAEPJ7QGU4gAAADse0BIAAABqdFJOUwAQEBAQHx8fICAgICAwMDAwMDBAQEBAQFBQUFBQUF9fX2BgYGBvb29wcHBwcHBwf39/gICAgI+Pj4+PkJCQkJCfn5+fn5+fn6CgoKCvr6+vr6+wv7+/v7/Pz8/Pz8/f39/f39/f7+/v7+/H8IULAAAOsElEQVR42u2d7X/TyBHHlchNSeRSE7BD69A2FuWuhxPSIq4p1/raxg6t4chBUFJsUuBksGP7/3/dT8iDJe3T7EhyvdL8XsLKsXe/mv3t7GhlWSQSiUQikUgkEolEIpFIJBKJRCKRSKSF1Nra2ppN3UCyftnY+yEYTS4V9P297Sr1SkFlN/avUQhr5Neoc4qn6h6Xhi/apO4pHA7+RCKHOqhYcg5lOEz61EPF0oORlIdJi7qoUF5SHh7IQhRtughUPEwoI1Eg3VLzQBaiSDyMlDyQhaD5IipKSxEPZCGKKR/CwzH1U1G0C+Fh4lFHFWXCAPFAFqIwkhmI0XHH23bd7W4woY4qiFyxa9hemzVbo54qeIA4pjmCAsRMAeFAASKclaSkAwUIWmKSBDkp4oFyELSLRRLNGAH5B5oxqJSWdC6bw8MBdUtxVacAQQqrRQGCpLAQFCCKLCqDIYVVYYFoUK8UWE2aMUhhtWnGIIXVw2etq3FRb5ovG1846dBjXYuopycx/Vzr8ir+2Ys6pS8WUSfTmPSAYD1lAL20RauTHALBPv//Gnopk9Gq0GiYD0QPXxkTv3BIg2E+EAk8ZYWWqzkEIoGnbFLRXQ6B8PBHghzSc345BCKBp+zRUQE5BGLIANHEug9KS+UACAfvKavo0EJaXCDqeE/pYUMLaYGBaOE9pU+eModA+HhPybgPGoocAIH3lJSWyiMQFbyndOnZvxwCkcBTtugQ7BwCkcBT9qgQ02Qg/rbPFXtQyHBfpGixg42uoiAtAhCT5GpQWio/QDgpABGdEpqUljIZiGpyHmJTAm11Gg2EmxyIWAFtQFudJgPhJQdiUz4H0VanUUAcJgfClicwqALfKCD8xDz0FQkMqsA3CohhYiBaCsKoAt8oIJLPGDX5B1IFvlFAVNK2ELTVaTYQydMQsQGnCnyzgWgmBsKjtFSegGilbSGoAt9sINwOT+zSI+iIFP08qsBPqnK5XC5l0NZKUg/RQx9PmWirc/XmnXOtLhcThdK9p68GFwN1dvpqZ13WdmPn2enZ5aienjzZKGULxARdT4mswF++882L/46v9eno27vLeb39wwrRcJ8ZrcGzsoCGp2fxttNX9zMEooqvp8RU4C9vHX0aszr6ZhX0J9cYyW2LrelqeK+Xq/qXWrH2/S+f5/h/AfAgGpDSH9khPhcPiY0TbtPp4H5mQHCWHtDe06/Av/Mtj4ZLJrYyCGez3djgUiuy5rPNutFFa/882+J53rDveZ5tBRe5eReScBEB8RUfBx4SIhxASGCBaKPrKbXTUneOxlK9VyMR6J1rwtnvr2h1xtXeTHDhp4N3/pfQGKCBKEvGeDodRLzE06lUT0uZAIH3lJoV+Mv/HCulRIL9th09fqTbb46wHOgKiP3zlbUzaWGBuHcmH+TpzsxonCiaTgflLIDAe0q9CvzffxpD9He5l+hqPWLmar4zShggroFoBE3L8g66SCC+mip1RUR5oG4rJQIJRAJPqVOBv3o0BupID0LZPOXwXjvZwQSIGRCeb1lBDQkEgIfp9HdgHuREIIHAe0qdCvyb76E8vFjS/Lo/iRvvAio6wtoTTy/XQNiTlWpg4YBYh4zx9Ox8kEunoLbTQSltIPBHXGukpX4DxeHz14o/WtcAgl9jPoQHlBDh10BYvtc+wAGxMYAN8onaT4acZdpA4I+4hlfgP4Ly8OEXqj/qaAS0Nn8/ZgUcUBo8IJp+UMEBcQId5B3r/hSsjZSBwL8lA7zVCebhuyX9eUq8oSZ6CKUCXZKEp8AZEPawb+GAAOtsfQBvLJw0cEBUNRfqsiWdnYwH5XTBT4YJ7/g26NEzyZKkwQXC8jazBmJ6ptP4SapA4D0ltAL/LpCH/9zAYSgKTFVgWSgoQFjHF1cdX66sWy8zBUKPnlKaQOA9JbACf1WQfnj/j8dbd1+Ip4sHu8CJSpT96IuA6CACBGpva05AhHJZKQCB95SwCvxl7nrzzeVW1nVy4vPdmFU4FA10FzgFuNAnCUABImUgTp7cK5es0vrGE4DRHHx/2XjnRLwqSQ0IvKeEVeD/mZeMvH31v1dAvIlNF9Xz0Rk6sDmuCU1aS9edqQcIMRDPwhsW5eeKNeiGunEpPSASeEpQP/+KEx1uz/77EojHsaseXHyiD7vzW3oBQuBCmQDhZATEabwWRpaTPNuANL6fHhB4Twnb6nwvX0p8AeLD7Zhb9WV2sQLzBIEEiAoEoOT143wgnrO3c/lUIzPNS2E+Sw8IvKcEVeA/UmSe3p5HjJibrI5md6kNyS68hiatZZOBn3qA4APxnNeyNNDYqeAQMUgPCLynhKSlVuMB4kPMK3wcj7+W7Sd4ENdzDNzVkv3EagYPmJThWaQNnZ2rMtBEoIDAe0pIBf4jBQ/Wx3iu2ol+7NAGTAY/wXNSwjkmgwDBBUK0Ock1i6KSqCdMy/W0gMB7SlAF/nsFD9bDeK7aDpQrCF/tZh2tJ9h5F6TxBFoZOtkLQsSJqHEJhg4GiKbGXqD+VudWLEDcheQ/o6lpH5KIUAWId8rf2M4gQPCAKMO3JiW7VmzjnbSAwHtKSAV+rCbmO9AHb6uciadcRsbv98pQ84J0HlEtw+953jQwEDfeAW1nYIDAe0pABf5qbMJYwnxyC5BhWJF/twPmy1bmESA4QEjqpNk543tx4/XMgJhANwbUm47KGWML+MkVhWOsq3a3XKawrys3ztkECA4Q6zqNxTMGayLSAgLvKSFpqeiM8QHckT/K04qOCuKA2XNrysNgNgGCHeMzWWtgPvpCg4yAwHtKSAU+LkBYVk3uTWzFSpkNEExQ6cwjQHAqpiyNMR5Y/wcg8J6yrZ5qbkeBuAHvSV+eNBjKB5ANEMyQ96W/ZegsAhDSxicZAYH3lIAK/IfRLS2NnvTkJqIn/dIu74sNJXHQyepkxTI4C7EwQKA9JaQC/68RIP6g0ZM1uVs9lGUe40lrj8vQimzbwyksEHhPCUlLRT3lTZ2uHEpdZUv2x3e5/rAr/pnMtkdqR6+aBwTeU0Iq8N9GgNDqyp40wdGUGB+H7zebYhvqZvYCGPOAwHtKyFbn50gFpVZXdqW7ba5kd6vNn8nqYteRWYAwEAi8p4RU4KM9ZcxVNpQ5kKEqQDD/3plDgDAQCLSnBFXgZwaEI97daousrvD7ZhcgzAMC7ylBFfiZAcEmIlYEv6ghGvfhHAKEeUDgPSWoAj87IAIREIFwLdyFXZHq2x2MAwLvKUEV+BFT+VarK1tyIESW1hVPgB7/C2cZIMwDAu8pQZHlYxiIT1pd6csXMF1BgArEeLugK9J9/YtxQKA9ZRUUWaJ5iJ+h8xAV+YwyG15XcrdXuOjXswwQxgGB95SwM/D/HQHi1xo9aSsKLfjPUNiB5G63uetOP9P3Q5kGBN5Twg6GeIion+MsYvoAlFu8PQlHZkT73M9xCg0E3lPCzsCPHgOgYyLail0Sh7e75QTSu/2Qw/5hti+QMw0ItKcEnoG/FK2HuAOfMYaqR3l5u1tt+d3eYtedTrYBwjgg0vOUgsPG3mqcNii2CBVA5rzPju6BwndUWITSfsOkYUDgPSX0DPxoQcR4FdqRgfKUhh67u9VWlEVWmIVJ1gHCNCDwnhL6asbbY1SIcNW3bZf55o5q3WMz02PWAcI0IPCeEnwG/meMi4iZwxoodR6HlFM3HZtmOpkHCNOAQHtK+Bn4f4qdKgV6UqcNONeHTYSo91ZiyPQzDxCmAYH2lPAz8JfGqmf52Neb7EKeRWcyjCP18VCxqDLMPEAYBgTHUwK7pA0HKVpW+Zj9EszbTDZBFfGqF9I2QJ4p4wBhGBB4T6lxBn7YVsYPDrqIBjEgbo1Aw2TLBzcARZWsA4RhQKA9pc4Z+KEQ8YYxEF+OkopOGb8dAZ+pG2oHCMWZERkECMOAYD0l8AE2rVcz3rjigT21+OIoKZl/kJymHmgHCAVETuGBQHtK+Bn4s4UG55D7PWbF6vjw2HMoG9wa9BbINkCYBQTeU+q97nvpw3g8/hc7XfTiKQx7d6TxjbqSwX2JuMYpPBB4Twk9A//aV3IOuX8wiuW0qnssDrI5rIkY3OacA4RZQKA9JfQM/GttMY9923uRR2zW6ntcS3CskwsBDG59zgHCLCDQnrKOrcOcLS1Dwz/sByORNXR0sqWAwXXmHCDMAgLtKWFn4Ev0YDSBSH6KC2pwh/MNEEYBgfeU0K1OURbjEITDZHTL0ky8q39Gb74Bwigg8J4Se91VrhrGQ3BL19oCJrDufAOEUUCgPWUVeZ0g84SaL7iBCnChN98AYRQQaE/ZRF7HzzwJdKy+ZwV3u+6L4bMMEEYBAU7vJUtLcXLVAEHWLZ5O0lq6NMksQJgEBMdT2rAf2UNeZ1l2FzhdgBBz4bta4m05hCnOKRBNzXtL3Kd9jQ5yAY5y5MEIq+sHCL4TPbYICJ6nfI30lK+1ukiFBBQHQSJClRI5nKCnypwDgfaU0Ap8FBJwHPjhXxnlWnMNECYBgb5R/OQzcKXLZWLU0btXh/oBgmc8agREIk8JrsCXM7H9MvJOk9FLr2ZrfkYPcbNX5hogDAIC7ym9mBK87LRSc7c9b9vdrNiYyw8RN7s91wBhkNCecoFkr8UFuAhzTRGE9pSkfGpCoZOUiqck5VJoT0kiT0kiT0kqmGzylKSw6uQpSXIL0adOKfKMMSRPSQqJs+XXpF4psALylKSQOGlK8pQUIOZXFEAyzkFQWqrAcoK5FqKTFl09TG0qKbfam9CMQVLwkN2zjaTFluBohgPqmYImIAKtQ/xIOcdB9Cg+JSGKOFlsi09moDVnQVQPftiuVqv1hrcfzPsIV9ICqp3S2T2knAh2uleDOqooJhLEA00YhVELNGHQvndh1CMDQQrJIR5IYbnEAyksn3gghWQrefiR/GSRVFedBkmF98VSO/FZ0qRcSZqmPKYN76KpSjiQwtoW0uCRlyzmKqPmRY8GnUxG7zou0VBsrdVqm+6FanQiI4lEIpFIJBKJRCKRSCQSiZQj/Q/1awcdA/WKnQAAAABJRU5ErkJggg==;fontSize=16;" vertex="1" parent="LcAE4-p-ZAQXSCbZCqAu-1">
          <mxGeometry x="774.4" y="356.68" width="113.88" height="44" as="geometry" />
        </mxCell>
        <mxCell id="g3JtSoTKQPr87EbilQ1k-11" value="Alerts" style="image;sketch=0;aspect=fixed;html=1;points=[];align=center;fontSize=12;image=img/lib/mscae/Notification.svg;labelBackgroundColor=none;" vertex="1" parent="LcAE4-p-ZAQXSCbZCqAu-1">
          <mxGeometry x="1325.96" y="270" width="50" height="50" as="geometry" />
        </mxCell>
        <mxCell id="g3JtSoTKQPr87EbilQ1k-12" value="" style="endArrow=classic;html=1;strokeWidth=2;strokeColor=#00994D;labelBackgroundColor=none;exitX=0.5;exitY=0;exitDx=0;exitDy=0;" edge="1" parent="LcAE4-p-ZAQXSCbZCqAu-1" source="I6eMV21CClMDfW5IqpgD-26" target="I6eMV21CClMDfW5IqpgD-42">
          <mxGeometry width="50" height="50" relative="1" as="geometry">
            <mxPoint x="446" y="297" as="sourcePoint" />
            <mxPoint x="525" y="297" as="targetPoint" />
            <Array as="points">
              <mxPoint x="1076" y="396" />
            </Array>
          </mxGeometry>
        </mxCell>
        <mxCell id="g3JtSoTKQPr87EbilQ1k-13" value="" style="endArrow=classic;html=1;strokeWidth=2;strokeColor=#00994D;labelBackgroundColor=none;entryX=0.5;entryY=1;entryDx=0;entryDy=0;" edge="1" parent="LcAE4-p-ZAQXSCbZCqAu-1" source="I6eMV21CClMDfW5IqpgD-27" target="I6eMV21CClMDfW5IqpgD-26">
          <mxGeometry width="50" height="50" relative="1" as="geometry">
            <mxPoint x="456" y="307" as="sourcePoint" />
            <mxPoint x="535" y="307" as="targetPoint" />
            <Array as="points" />
          </mxGeometry>
        </mxCell>
        <mxCell id="g3JtSoTKQPr87EbilQ1k-14" value="" style="endArrow=classic;html=1;strokeWidth=2;strokeColor=#00994D;labelBackgroundColor=none;entryX=0;entryY=0.5;entryDx=0;entryDy=0;entryPerimeter=0;" edge="1" parent="LcAE4-p-ZAQXSCbZCqAu-1" source="I6eMV21CClMDfW5IqpgD-42" target="I6eMV21CClMDfW5IqpgD-57">
          <mxGeometry width="50" height="50" relative="1" as="geometry">
            <mxPoint x="466" y="317" as="sourcePoint" />
            <mxPoint x="545" y="317" as="targetPoint" />
            <Array as="points" />
          </mxGeometry>
        </mxCell>
      </root>
    </mxGraphModel>
  </diagram>
  <diagram name="GUI" id="symD2EUthnOnF6jtJBoU">
    <mxGraphModel dx="1194" dy="927" grid="1" gridSize="10" guides="1" tooltips="1" connect="1" arrows="1" fold="1" page="1" pageScale="1" pageWidth="1654" pageHeight="1169" math="0" shadow="0">
      <root>
        <mxCell id="WluIBgOTPswMCycSyDNG-0" />
        <mxCell id="WluIBgOTPswMCycSyDNG-1" parent="WluIBgOTPswMCycSyDNG-0" />
        <mxCell id="zRtnDMCVjwvyI3if9jCt-5" value="" style="rounded=1;whiteSpace=wrap;html=1;fontSize=16;labelBackgroundColor=none;" parent="WluIBgOTPswMCycSyDNG-1" vertex="1">
          <mxGeometry x="1080" y="157.38" width="150" height="152.62" as="geometry" />
        </mxCell>
        <mxCell id="WluIBgOTPswMCycSyDNG-12" value="Backend" style="rounded=1;whiteSpace=wrap;html=1;fillColor=#f5f5f5;strokeColor=#666666;fontColor=#333333;labelBackgroundColor=none;" parent="WluIBgOTPswMCycSyDNG-1" vertex="1">
          <mxGeometry x="698.29" y="125.13" width="100" height="32.25" as="geometry" />
        </mxCell>
        <mxCell id="WluIBgOTPswMCycSyDNG-13" value="" style="endArrow=none;dashed=1;html=1;strokeColor=#000000;startArrow=none;entryX=1;entryY=0.5;entryDx=0;entryDy=0;exitX=0;exitY=0.5;exitDx=0;exitDy=0;labelBackgroundColor=none;" parent="WluIBgOTPswMCycSyDNG-1" source="WluIBgOTPswMCycSyDNG-12" target="WluIBgOTPswMCycSyDNG-12" edge="1">
          <mxGeometry width="50" height="50" relative="1" as="geometry">
            <mxPoint x="440.2000000000001" y="-41.860000000000014" as="sourcePoint" />
            <mxPoint x="488.75000000000006" y="-41.89999999999998" as="targetPoint" />
            <Array as="points">
              <mxPoint x="647.05" y="141.38" />
              <mxPoint x="647.05" y="448.38" />
              <mxPoint x="1260" y="450" />
              <mxPoint x="1260" y="141" />
            </Array>
          </mxGeometry>
        </mxCell>
        <mxCell id="WluIBgOTPswMCycSyDNG-19" value="" style="endArrow=classic;html=1;strokeWidth=1;strokeColor=#000000;dashed=1;labelBackgroundColor=none;" parent="WluIBgOTPswMCycSyDNG-1" source="WluIBgOTPswMCycSyDNG-84" target="WluIBgOTPswMCycSyDNG-42" edge="1">
          <mxGeometry width="50" height="50" relative="1" as="geometry">
            <mxPoint x="1266" y="-124.68" as="sourcePoint" />
            <mxPoint x="1306" y="25.319999999999993" as="targetPoint" />
            <Array as="points">
              <mxPoint x="1040" y="221" />
            </Array>
          </mxGeometry>
        </mxCell>
        <mxCell id="WluIBgOTPswMCycSyDNG-20" value="Databricks job API 2.0&lt;br&gt;HTTPS /POST&lt;br&gt;params: {&lt;br&gt;...&lt;br&gt;}" style="edgeLabel;html=1;align=center;verticalAlign=middle;resizable=0;points=[];labelBackgroundColor=none;" parent="WluIBgOTPswMCycSyDNG-19" vertex="1" connectable="0">
          <mxGeometry x="-0.4635" y="-1" relative="1" as="geometry">
            <mxPoint x="-93" y="-22" as="offset" />
          </mxGeometry>
        </mxCell>
        <mxCell id="WluIBgOTPswMCycSyDNG-21" value="Experten des&lt;br&gt;Sachgebiets&lt;br&gt;Verkehrsstatistik" style="verticalLabelPosition=bottom;html=1;verticalAlign=top;align=center;strokeColor=none;fillColor=#00BEF2;shape=mxgraph.azure.user;labelBackgroundColor=none;" parent="WluIBgOTPswMCycSyDNG-1" vertex="1">
          <mxGeometry x="1570" y="313.12999999999994" width="30" height="31.68" as="geometry" />
        </mxCell>
        <mxCell id="WluIBgOTPswMCycSyDNG-22" value="" style="endArrow=classic;html=1;strokeWidth=1;strokeColor=#000000;dashed=1;exitX=0.14;exitY=0.65;exitDx=0;exitDy=0;exitPerimeter=0;entryX=1;entryY=0.5;entryDx=0;entryDy=0;startArrow=classic;startFill=1;labelBackgroundColor=none;" parent="WluIBgOTPswMCycSyDNG-1" source="WluIBgOTPswMCycSyDNG-21" target="zRtnDMCVjwvyI3if9jCt-2" edge="1">
          <mxGeometry width="50" height="50" relative="1" as="geometry">
            <mxPoint x="1040" y="-180" as="sourcePoint" />
            <mxPoint x="1410" y="459.1600000000001" as="targetPoint" />
            <Array as="points" />
          </mxGeometry>
        </mxCell>
        <mxCell id="WluIBgOTPswMCycSyDNG-23" value="trigger&lt;br style=&quot;border-color: var(--border-color); font-size: 12px;&quot;&gt;&lt;span style=&quot;font-size: 12px;&quot;&gt;pipeline&lt;/span&gt;" style="edgeLabel;html=1;align=center;verticalAlign=middle;resizable=0;points=[];fontSize=12;labelBackgroundColor=none;" parent="WluIBgOTPswMCycSyDNG-22" vertex="1" connectable="0">
          <mxGeometry x="-0.1217" y="-1" relative="1" as="geometry">
            <mxPoint x="-4" y="-1" as="offset" />
          </mxGeometry>
        </mxCell>
        <mxCell id="WluIBgOTPswMCycSyDNG-29" value="" style="endArrow=classic;html=1;strokeWidth=2;strokeColor=#00994D;labelBackgroundColor=none;" parent="WluIBgOTPswMCycSyDNG-1" edge="1">
          <mxGeometry width="50" height="50" relative="1" as="geometry">
            <mxPoint x="658.55" y="480" as="sourcePoint" />
            <mxPoint x="767.55" y="470" as="targetPoint" />
            <Array as="points">
              <mxPoint x="658.55" y="470" />
            </Array>
          </mxGeometry>
        </mxCell>
        <mxCell id="WluIBgOTPswMCycSyDNG-30" value="Data Flow" style="edgeLabel;html=1;align=center;verticalAlign=middle;resizable=0;points=[];fontSize=16;labelBackgroundColor=none;" parent="WluIBgOTPswMCycSyDNG-29" vertex="1" connectable="0">
          <mxGeometry x="-0.1966" y="-3" relative="1" as="geometry">
            <mxPoint x="10" y="7" as="offset" />
          </mxGeometry>
        </mxCell>
        <mxCell id="WluIBgOTPswMCycSyDNG-31" value="" style="endArrow=classic;html=1;strokeWidth=1;strokeColor=#000000;dashed=1;labelBackgroundColor=none;" parent="WluIBgOTPswMCycSyDNG-1" edge="1">
          <mxGeometry width="50" height="50" relative="1" as="geometry">
            <mxPoint x="798.05" y="480" as="sourcePoint" />
            <mxPoint x="907.05" y="470" as="targetPoint" />
            <Array as="points">
              <mxPoint x="798.05" y="470" />
            </Array>
          </mxGeometry>
        </mxCell>
        <mxCell id="WluIBgOTPswMCycSyDNG-32" value="Control Flow" style="edgeLabel;html=1;align=center;verticalAlign=middle;resizable=0;points=[];fontSize=16;labelBackgroundColor=none;" parent="WluIBgOTPswMCycSyDNG-31" vertex="1" connectable="0">
          <mxGeometry x="-0.1966" y="-3" relative="1" as="geometry">
            <mxPoint x="10" y="7" as="offset" />
          </mxGeometry>
        </mxCell>
        <mxCell id="WluIBgOTPswMCycSyDNG-42" value="Orchestrator" style="aspect=fixed;html=1;points=[];align=center;image;fontSize=12;image=img/lib/mscae/Databricks.svg;labelBackgroundColor=none;" parent="WluIBgOTPswMCycSyDNG-1" vertex="1">
          <mxGeometry x="819.9999999999999" y="204" width="34.38" height="33" as="geometry" />
        </mxCell>
        <mxCell id="WluIBgOTPswMCycSyDNG-70" value="gold" style="shape=image;verticalLabelPosition=bottom;labelBackgroundColor=none;verticalAlign=top;aspect=fixed;imageAspect=0;image=https://delta.io/static/3bd8fea55ff57287371f4714232cd4ef/f3063/delta-lake-logo.png;fontSize=12;" parent="WluIBgOTPswMCycSyDNG-1" vertex="1">
          <mxGeometry x="991.15" y="330" width="42.27" height="41" as="geometry" />
        </mxCell>
        <mxCell id="WluIBgOTPswMCycSyDNG-72" value="" style="endArrow=classic;html=1;strokeWidth=2;strokeColor=#00994D;entryX=0.5;entryY=0;entryDx=0;entryDy=0;labelBackgroundColor=none;" parent="WluIBgOTPswMCycSyDNG-1" source="WluIBgOTPswMCycSyDNG-92" target="WluIBgOTPswMCycSyDNG-70" edge="1">
          <mxGeometry width="50" height="50" relative="1" as="geometry">
            <mxPoint x="1148.2600000000002" y="413.5860102071449" as="sourcePoint" />
            <mxPoint x="766" y="617" as="targetPoint" />
            <Array as="points" />
          </mxGeometry>
        </mxCell>
        <mxCell id="WluIBgOTPswMCycSyDNG-77" value="control table" style="shape=image;verticalLabelPosition=bottom;labelBackgroundColor=none;verticalAlign=top;aspect=fixed;imageAspect=0;image=https://delta.io/static/3bd8fea55ff57287371f4714232cd4ef/f3063/delta-lake-logo.png;fontSize=12;" parent="WluIBgOTPswMCycSyDNG-1" vertex="1">
          <mxGeometry x="678.38" y="200" width="42.27" height="41" as="geometry" />
        </mxCell>
        <mxCell id="WluIBgOTPswMCycSyDNG-78" value="" style="endArrow=classic;html=1;strokeWidth=2;strokeColor=#00994D;exitX=1;exitY=0.5;exitDx=0;exitDy=0;startArrow=classic;startFill=1;labelBackgroundColor=none;" parent="WluIBgOTPswMCycSyDNG-1" source="WluIBgOTPswMCycSyDNG-77" target="WluIBgOTPswMCycSyDNG-42" edge="1">
          <mxGeometry width="50" height="50" relative="1" as="geometry">
            <mxPoint x="787" y="638" as="sourcePoint" />
            <mxPoint x="907" y="424" as="targetPoint" />
            <Array as="points" />
          </mxGeometry>
        </mxCell>
        <mxCell id="WluIBgOTPswMCycSyDNG-84" value="" style="image;sketch=0;aspect=fixed;html=1;points=[];align=center;fontSize=12;image=img/lib/mscae/App_Services.svg;labelBackgroundColor=none;" parent="WluIBgOTPswMCycSyDNG-1" vertex="1">
          <mxGeometry x="1084.19" y="195.5" width="50" height="50" as="geometry" />
        </mxCell>
        <mxCell id="WluIBgOTPswMCycSyDNG-85" value="SQL Endpoint" style="aspect=fixed;html=1;points=[];align=center;image;fontSize=12;image=img/lib/mscae/Databricks.svg;labelBackgroundColor=none;" parent="WluIBgOTPswMCycSyDNG-1" vertex="1">
          <mxGeometry x="1092" y="334" width="34.38" height="33" as="geometry" />
        </mxCell>
        <mxCell id="WluIBgOTPswMCycSyDNG-86" value="" style="endArrow=classic;html=1;strokeWidth=2;strokeColor=#00994D;exitX=1;exitY=0.5;exitDx=0;exitDy=0;labelBackgroundColor=none;" parent="WluIBgOTPswMCycSyDNG-1" source="WluIBgOTPswMCycSyDNG-70" target="WluIBgOTPswMCycSyDNG-85" edge="1">
          <mxGeometry width="50" height="50" relative="1" as="geometry">
            <mxPoint x="1158" y="424" as="sourcePoint" />
            <mxPoint x="1241" y="611" as="targetPoint" />
            <Array as="points" />
          </mxGeometry>
        </mxCell>
        <mxCell id="WluIBgOTPswMCycSyDNG-87" value="" style="endArrow=classic;html=1;strokeWidth=2;strokeColor=#00994D;labelBackgroundColor=none;" parent="WluIBgOTPswMCycSyDNG-1" source="WluIBgOTPswMCycSyDNG-85" target="WluIBgOTPswMCycSyDNG-84" edge="1">
          <mxGeometry width="50" height="50" relative="1" as="geometry">
            <mxPoint x="1051" y="569" as="sourcePoint" />
            <mxPoint x="1099" y="361" as="targetPoint" />
            <Array as="points" />
          </mxGeometry>
        </mxCell>
        <mxCell id="WluIBgOTPswMCycSyDNG-88" value="JDBC/ODBC" style="edgeLabel;html=1;align=center;verticalAlign=middle;resizable=0;points=[];fontSize=12;labelBackgroundColor=none;" parent="WluIBgOTPswMCycSyDNG-87" vertex="1" connectable="0">
          <mxGeometry x="-0.2305" y="1" relative="1" as="geometry">
            <mxPoint x="1" y="20" as="offset" />
          </mxGeometry>
        </mxCell>
        <mxCell id="WluIBgOTPswMCycSyDNG-89" value="" style="aspect=fixed;html=1;points=[];align=center;image;fontSize=12;image=img/lib/mscae/Databricks.svg;labelBackgroundColor=none;" parent="WluIBgOTPswMCycSyDNG-1" vertex="1">
          <mxGeometry x="907.05" y="257" width="23.96" height="23" as="geometry" />
        </mxCell>
        <mxCell id="WluIBgOTPswMCycSyDNG-90" value="" style="aspect=fixed;html=1;points=[];align=center;image;fontSize=12;image=img/lib/mscae/Databricks.svg;labelBackgroundColor=none;" parent="WluIBgOTPswMCycSyDNG-1" vertex="1">
          <mxGeometry x="937.04" y="257" width="23.96" height="23" as="geometry" />
        </mxCell>
        <mxCell id="WluIBgOTPswMCycSyDNG-91" value="" style="aspect=fixed;html=1;points=[];align=center;image;fontSize=12;image=img/lib/mscae/Databricks.svg;labelBackgroundColor=none;" parent="WluIBgOTPswMCycSyDNG-1" vertex="1">
          <mxGeometry x="970" y="257" width="23.96" height="23" as="geometry" />
        </mxCell>
        <mxCell id="WluIBgOTPswMCycSyDNG-92" value="" style="aspect=fixed;html=1;points=[];align=center;image;fontSize=12;image=img/lib/mscae/Databricks.svg;labelBackgroundColor=none;" parent="WluIBgOTPswMCycSyDNG-1" vertex="1">
          <mxGeometry x="1000.3" y="257" width="23.96" height="23" as="geometry" />
        </mxCell>
        <mxCell id="WluIBgOTPswMCycSyDNG-93" value="" style="endArrow=classic;html=1;strokeWidth=1;strokeColor=#000000;dashed=1;labelBackgroundColor=none;" parent="WluIBgOTPswMCycSyDNG-1" source="WluIBgOTPswMCycSyDNG-42" target="WluIBgOTPswMCycSyDNG-89" edge="1">
          <mxGeometry width="50" height="50" relative="1" as="geometry">
            <mxPoint x="1475" y="399" as="sourcePoint" />
            <mxPoint x="864" y="231" as="targetPoint" />
            <Array as="points">
              <mxPoint x="840" y="269" />
            </Array>
          </mxGeometry>
        </mxCell>
        <mxCell id="WluIBgOTPswMCycSyDNG-94" value="Frontend" style="rounded=1;whiteSpace=wrap;html=1;fillColor=#dae8fc;strokeColor=#6c8ebf;labelBackgroundColor=none;" parent="WluIBgOTPswMCycSyDNG-1" vertex="1">
          <mxGeometry x="1337.38" y="125.13" width="100" height="32.25" as="geometry" />
        </mxCell>
        <mxCell id="WluIBgOTPswMCycSyDNG-95" value="" style="endArrow=none;dashed=1;html=1;strokeColor=#007FFF;startArrow=none;entryX=1;entryY=0.5;entryDx=0;entryDy=0;exitX=0;exitY=0.5;exitDx=0;exitDy=0;labelBackgroundColor=none;" parent="WluIBgOTPswMCycSyDNG-1" source="WluIBgOTPswMCycSyDNG-94" target="WluIBgOTPswMCycSyDNG-94" edge="1">
          <mxGeometry width="50" height="50" relative="1" as="geometry">
            <mxPoint x="1073.15" y="133.01" as="sourcePoint" />
            <mxPoint x="1121.7" y="132.97000000000003" as="targetPoint" />
            <Array as="points">
              <mxPoint x="1280" y="140" />
              <mxPoint x="1281" y="450" />
              <mxPoint x="1483" y="450" />
              <mxPoint x="1480" y="140" />
            </Array>
          </mxGeometry>
        </mxCell>
        <mxCell id="WluIBgOTPswMCycSyDNG-96" value="business user" style="verticalLabelPosition=bottom;html=1;verticalAlign=top;align=center;strokeColor=none;fillColor=#00BEF2;shape=mxgraph.azure.user;labelBackgroundColor=none;" parent="WluIBgOTPswMCycSyDNG-1" vertex="1">
          <mxGeometry x="1570" y="210.31999999999996" width="30" height="31.68" as="geometry" />
        </mxCell>
        <mxCell id="WluIBgOTPswMCycSyDNG-97" value="" style="endArrow=none;html=1;strokeWidth=1;strokeColor=#000000;dashed=1;exitX=0.14;exitY=0.65;exitDx=0;exitDy=0;exitPerimeter=0;entryX=1;entryY=0.5;entryDx=0;entryDy=0;startArrow=classic;startFill=1;endFill=0;labelBackgroundColor=none;" parent="WluIBgOTPswMCycSyDNG-1" source="WluIBgOTPswMCycSyDNG-96" target="zRtnDMCVjwvyI3if9jCt-1" edge="1">
          <mxGeometry width="50" height="50" relative="1" as="geometry">
            <mxPoint x="1040" y="-268.69" as="sourcePoint" />
            <mxPoint x="1000" y="-108.69" as="targetPoint" />
            <Array as="points" />
          </mxGeometry>
        </mxCell>
        <mxCell id="zRtnDMCVjwvyI3if9jCt-0" value="prepare data for dashboard" style="text;html=1;strokeColor=none;fillColor=none;align=center;verticalAlign=middle;whiteSpace=wrap;rounded=0;fontSize=12;labelBackgroundColor=none;" parent="WluIBgOTPswMCycSyDNG-1" vertex="1">
          <mxGeometry x="890" y="280" width="170" height="30" as="geometry" />
        </mxCell>
        <mxCell id="zRtnDMCVjwvyI3if9jCt-1" value="Bi Dashboards" style="shape=image;verticalLabelPosition=bottom;labelBackgroundColor=none;verticalAlign=top;aspect=fixed;imageAspect=0;image=https://upload.wikimedia.org/wikipedia/commons/8/8a/Plotly-logo.png;" parent="WluIBgOTPswMCycSyDNG-1" vertex="1">
          <mxGeometry x="1317.38" y="208.17" width="140" height="46.67" as="geometry" />
        </mxCell>
        <mxCell id="zRtnDMCVjwvyI3if9jCt-2" value="Control Pannel" style="shape=image;verticalLabelPosition=bottom;labelBackgroundColor=none;verticalAlign=top;aspect=fixed;imageAspect=0;image=https://upload.wikimedia.org/wikipedia/commons/8/8a/Plotly-logo.png;" parent="WluIBgOTPswMCycSyDNG-1" vertex="1">
          <mxGeometry x="1320" y="310.63" width="140" height="46.67" as="geometry" />
        </mxCell>
        <mxCell id="zRtnDMCVjwvyI3if9jCt-3" value="" style="endArrow=classic;html=1;strokeWidth=2;strokeColor=#00994D;exitX=0.5;exitY=1;exitDx=0;exitDy=0;labelBackgroundColor=none;" parent="WluIBgOTPswMCycSyDNG-1" source="WluIBgOTPswMCycSyDNG-77" target="WluIBgOTPswMCycSyDNG-85" edge="1">
          <mxGeometry width="50" height="50" relative="1" as="geometry">
            <mxPoint x="1043" y="361" as="sourcePoint" />
            <mxPoint x="1130" y="361" as="targetPoint" />
            <Array as="points">
              <mxPoint x="700" y="407" />
              <mxPoint x="1110" y="407" />
            </Array>
          </mxGeometry>
        </mxCell>
        <mxCell id="zRtnDMCVjwvyI3if9jCt-4" value="" style="shape=flexArrow;endArrow=classic;startArrow=classic;html=1;rounded=0;fontSize=12;startSize=8;endSize=8;curved=1;fillColor=#dae8fc;strokeColor=#6c8ebf;labelBackgroundColor=none;" parent="WluIBgOTPswMCycSyDNG-1" edge="1">
          <mxGeometry width="100" height="100" relative="1" as="geometry">
            <mxPoint x="1210" y="300" as="sourcePoint" />
            <mxPoint x="1350" y="300" as="targetPoint" />
          </mxGeometry>
        </mxCell>
        <mxCell id="zRtnDMCVjwvyI3if9jCt-6" value="" style="image;sketch=0;aspect=fixed;html=1;points=[];align=center;fontSize=12;image=img/lib/mscae/Docker.svg;labelBackgroundColor=none;" parent="WluIBgOTPswMCycSyDNG-1" vertex="1">
          <mxGeometry x="1160" y="257" width="50" height="41" as="geometry" />
        </mxCell>
        <mxCell id="zRtnDMCVjwvyI3if9jCt-7" value="Plotly Dash&#xa;Business Logic" style="shape=image;verticalLabelPosition=bottom;labelBackgroundColor=none;verticalAlign=top;aspect=fixed;imageAspect=0;image=data:image/png,iVBORw0KGgoAAAANSUhEUgAAAdsAAAIICAYAAAAmOEQoAAAAAXNSR0IArs4c6QAAIABJREFUeF7svQe8JUWV+H/qvjeJKEGCZBjQNewa1l3zDmFmmEFdXf+OqKxhVxmzKO7PsOo4BGEiJuKya1gTsrprAGQYeAOYSMK6JLMIM4CixGHCe7fr/7m3+3Z3VZ1Tdaq6+96+9/V8Prvyblc8dep8z6muqhbQ/Gsk0EjAKYFXf+MbY3/+5e57tkV7tzGQTxxriSdE0No5mmrv0hoTO4OEXQTALhFEu4IQO4AUc6SUc1pCzpYR7CAEzJEgdwAQM0DAGEgYlyBngJTjAKIFAOMA0JIgpuLGyM7/xf8tAQTApATYGv8mtoCUkyA6f8N2kGILgNwMAI+BgEdBys0RyMdaQjwWtWGzBHhICHhwbKz1sIyih0Vr+0OtR9sPrV+x5JGkImf/mwSNBBoJFJOAKJa9yd1IYHgl8Jzzb5yx24MP7iul2HtMtvcG0dqrDdHeLRBPAiGeBFI+SUj5RAnwRBCwSwd/yr/uD8avKSpB4s/SMqQkciflatnVP5O/kCqUUu1NmIyk/KMQ4n4ZwR8AovtbIO6NWvJeAeIPLRB/2D4l75sxJu7f8ImXPTC8I920vJHA4CXQwHbwY9C0oCIJvHrZN2b+efZu+4txOFBE8gCQcIAQrUOlkIeJCA4FgP0lyE5UiUBUBak/aGkQxzQeOGg1XwCldiqXCKIpAeK3APAbAPlbIcVvohbc3WrLjZNSbnpobPLu25cv2V7RUDbFNhIYegk0sB36IWw6MH/FuidFrdZBM6Q4WMroaVKIp4KEpwLAXAA5Zkaj8S8k7lLuZABSUOSMaN2gtcbEgRGt0iN3UE15GD3hZAE4FX9rcpIg75ISbhdC3CoB7oAI7m7B1F077rXD7y97z+JtjaY2EpjOEmhgO51Hf8j6Pm/1d/ccm5xzyLhoHSJa8rkS4DlSwHOFlDv1uqKu3NLRWm1Bq1GYu3Q8eNBi7M5oLEH+UkhxvQS4UbTEnVPbxa+3H7LfXTct/evJIVPDprmNBIIk0MA2SGxNpqolsHDt93eHyRlzAeDJsgULWgBHSgn7qfVqKDLDTzR5nMy2bGqLaPG8eazQspHdaumg03xotATNnHMdSo1oeXLyX2JPc2yRIK+WUl4mQFy/dap9x00rljxctW415TcSGIQEGtgOQupNnYoEli2TrWt3vuqAmULMFZGYL0G+SgDM7SAEWdFN8tYHtCmSrBuiqgJtLqYdAGgNHDuX2K2NbAPICYjg81Grdd2PTnvlr5up0khgVCTQwHZURnLI+rF45cQ+U63oCCFbr2yBPAEA9sx3IRy0SDSmbNwNiGgzmqJSjvniJl35Ea323tndhFz7bUvsvIjWH7REuWmrZFeMuVWCe0DIM2RbrvvxmUt+NWQq3jS3kYAigQa2jUL0RQKdYza7P7z5YDHWfvEYtE4CGT2jWzFq813LornFVXwNM+vTUIM2JyBCTjlOWceR+y47rjHAIXFGtJ6g1XojZPTbdlu8V2yPfvjjs5b8uS9K21TSSKBECTSwLVGYTVGqBDqA3ffhzQe3Rft4EOJkANg1TqEQUMlkj2hVg20Gkxokcn8GASStDg8ZM75YQsqKjviEb4iygbQIaHGYsmTUzSohIieQ+i5bRnDe2CxY9YPlr/otgHDE882sbCRQDwk0sK3HOIxUKxaedc2+rcnJ/0+0WqcDwM7a21WFt3rHIwuI82GwE7QK0wl7jLwQVlI6ozXeui2Jato3sDok4aBFgOhySJQscWJ8McHsZW452KLfMUi5oFXrj24SEL3pRzNeczssF3QRIzW7ms4MqwQa2A7ryNWs3fOWTcyevbN4RkvAl0HKI3rNCwItbdHTXnOXRQd2xCfZdmyJiRVq8eXkWmLPFMPpkFQI2mxRwOaQFAFtfnVE/q4dRa846DetWy++eEm7ZlOjaU4jga4EGtg2ilBIAi9f8YOdJ2e0TwQpzxDdu37V4rI/6aXjTo40oi0VtGhh+R04GbzzzUYiXsV5sES8cTrbzmNcDjw5VQVanpy4ES0PtNktWv6RP6lLd0ZT4uXXrXzVr0A0y8uFJnaTuXQJNLAtXaTTo8BXnz2x02NbW6cKId8LsuO0hZ4RjRdFab5pMR9u8XPhXIq7sLO0GSmMgfRZFqXjuWJy6rHcpmXOiDbHVmJhmOmQWOJ25u7ssiP/ri5FcNmc2TNet2H5Kx+aHrOx6eUwSKCB7TCMUo3auOgzl86CyR2XC5AfVAgXGNEOC2h9ozV8yGygNQioFOHxcQH2ncfVgZaIlNPlgbg3XIckdIldQPTu/X/dOrdZWq6RAZnGTWlgO40H36vrUopFazcsESC+ruYzl/S4xnH4dh7b3j8O38cFgnZoF11iTyJe7oYori7Rm8bkg9G4eM71py3pfESh+ddIYGASaGA7MNEPT8ULVv1wr3ExeTcImGm2WjuWocVj9LJn7qgHyrDcW0zm0nEcTyGFEYBQUlrew8aPBgPa8J3HNjnw5WTKCI9aM/HZ5FTWhihdC13vsjvPozOuO/O1HxmeWde0dNQk0MB21Ea01P5IsWjNNSsFwPsB+xSd9p7WJwpJIxsHaE3O0RAZ2M7jBMTk+0dyid2+dBwOWgSIygIEAUTNKcF9HDNvlq2eoE2nhJS/n4TWXzb3L5dqJJrCmBJoYMsU1HRLdvQn1+8xa9b4HdD5cDr6r4SIFg2SNGTjoVXWohQi5QIkbZol4o0b4bfz2MchIQJyYzScG6IqBG0mp0GA1nUvdNamnIy2Q1suuW718d+ebnO66e9gJdDAdrDyr2XtC1euf/H42PjlEmAOB7QqMxXLrmXXbgnCQ6dcIJLPbotoUWobO2rp6ohozQVaa0SbgbjXi0GCNm5NVQ6JDbSMIz7a8HHlZN80ZnXaIoDos9eteN1JtZyATaNGUgINbEdyWMM7ddzaDe8ACZ+VAK1yQTu9j/hwAaJA0c0ww5lRfsjl54LWcFssDkf8yN3ITgo8lemYceUUDtqsh1LKqxfNufOo5cuXN7dPhZuMJidTAg1smYKaDskWrb36zJaMj/SQxlF74GMc6WVRWxSCtMa1LIpUhEe1FgSU+Lk8VEZkMK4Q0qp2tb9FK7kXmsZx+KuI0nQJ4M7W9k3P/vFZ798yHeZ408fBSaCB7eBkX6uaF63Z8JmWgHfTHzcvFoXQxlGlDvf9I7ksWjPQmkw15ZgtM1cBWpLqSbVZnQoULQOWBbuWqLbvR3wQSeMeljrvYt7fB5u3Pf36s9/4p1pNyqYxIyWBBrYjNZxhnTlu9YaPQwuW06BNDBnJAhogHVPG3Xlcf9BWd5a2rzuPCzgkWVYLaBNF4p6l1dytWInR4t1HfFLHhQnarKroTwKiZ1638oR7wmZRk6uRgF0CDWynuYYsXj3xFtES/zZo0HaNHh5aZSOUMp0w9BpE/JeOSSufAIB885nuSs6rE7p8HASRnAhcEFH8nqrkNGqgTfvz58fk2NNuX7XkvmluFpruVyCBBrYVCHVYijxu7YYXA7TWg4xmct+r+UQhSmTjgAQftAQQBw1arVmDBG3clMGBtlMzXntV90LnlsIJZ0aZkxaHRIJ8YHzy8Sf/+Ky3NB+oHxZDNiTtbGA7JANVdjMXfebSXVpTO/wCJOxdBWgVg1sL0OKQ7jYt+3+4mCs74uM6J+of0fqA1pCIRQ7xI1tEyzjio2XnOiRl7DxOJemK/OOO3vPYDuOH3b58yfay511T3vSVQAPbaTr2i9du+KaQ8A/0wmmxKEQLNHNS1kxs0WVRpCKlSLohuS8NuZdFyUgtOKLlg9bkHNKaFCK8iNYftLSmdAfXuvNYIVycnA41tSe5lF5OG9JepShahvFFJfJn1+/4i2dBcyxomlrI8rvdwLZ8mda+xONWXXM8tKKvWUEbCJHR+oqP7XaoRECVRGuqCvGX2OsIWlNOXNDaN42FOW1k5K84ZT3nQF5y/eoTXlr7Cd00cCgk0MB2KIapvEYu+swvZ4mpTb8UUh5QdrTWfMUnP05mNNd7Wr/P5eFuV7aqbIn8h+iIDwlapfvxToMce0+9YfXrP17eDGxKmq4SaGA7zUZ+0ZqrT2uB/FfafIZeNAAQ9UwUWnj2Y3PEJ1E62+o1+oqUDqO5XzvCV2LNhmSwcS+xc4/4lBPRIovQSsFFltg10MbDNCnbrb+9ce1rb55mpqLpbskSaGBbskDrXNzLV/xg5/aM9j1Syl3wdtYAtDlbyt1Ra5jfLCQzusmN1rjOCGL64zoJh0NZrbQoS2GHRAvP0CY55VQeaNX66ahfiT4dTls3LRu0xKCk+TOXwSxSPho9snmPmy5YOlnn+d20rd4SaGBb7/EptXXHrb56tRTyZA5ofYxjGtHSFj2tsjzjmIuU8x1yAoQkYQLJuFxyiZ0OnLJcVYNWcUhcECH645TTsIEWkYPCdNvAdZ4hcsrLSMCVN6w64ZhSJ2RT2LSSQAPbaTLcT132jZkH77JX53Yc5JN54TuPqwAtSPm4FHKzBCEAxI4CZPz1ISQsxAMb07CyItph+FzewEHL2HmsiV/9k45q+3/EpydMB2gTNyxqw7E3nXXCumliMppuliyBBrYlC7SuxS1eM7EUQJxnti8ctCXtPP4zSDEhIbpWRPInY9vad1y2fPEj+XYed8a1u20TW5/WktHzI4CXAIijOwA2kEpEaxmj3dEaGdHSgZMjoq3qiA8vojVSOSNaR+TfuS7DVJlkuEyQDhK0cU9CI1pUDlM33PXt2XDxxe26zvOmXfWVQAPb+o5NqS1bvGbDNQDwYrXQYsYRCTRVo9v7S7d3onso8wcgxTm73vTniy++eImf8Vq2rLVg9ove1IboHQLgOVnUa0FliV/xMc1waLSmjQYepmeJvJZFk3AsX0WloE2kkusDF7Tue6Gzkgq/y1aUFolo08ElHDMpLrxhzevfWurkbAqbFhJoYDsNhvmVn1y/x7ZZ4w/0B7QqihDjeKMU8qQr/t+CH5Yh+iM/ue7lY0KuBCmfjJUX88UW0Rb5uABJloT/9ucKB5mg5UVrFGjRaC13gZZbTiO+89h6m1jPV2nNbO95/RnNF4LKmL/TqYwGttNgtI9ds+GTLYAPG7ANikJCj/iILQLkxy7/4DFrqhD50adftlIIcRIAzOiVXwpoNT6VF63lAlaDcdoPyji5lkUR0FqitSzQKw+0mrtFNEhzG9DqNWkzHRIiXs2980eP+LBAG98uJf7vxrWv/ysA4RBaFZrelDmsEmhgO6wj59HuRWs2XCsAXpQz78p2Wz5AcqBFgyTcOEoQd0mIFq3/4Pw7PJrtnfTIT6574RhElwDArtmKqcUeJlcM0hWFHoVyfQrOA7Q5OXOPQuHsxuXAdUi4ES0ftK532dWC1lDfTGEMdcB0abuQh/5s9Rt+662kTYZpK4EGtiM+9E9dduvMg3d5YDMAjKchBhk42Zc9A3ce/3xLe/uLr/3I4j/2Q9THnHnFrlE0daeQYh/qAE+3HZV9XKAq0KLejbFDe+hA6+G0Kc5iXpmSTrsj2k4KJJULtDl9yVX72xtXn3AYiCa67ce8HoU6GtiOwiha+vDSVVfMi1ozJoqCNmjnsRC/ntHe8txLPvzSB/sp5nnLJma3Zmy5WwixJ1pvZaB1RWuhES0PtP7RmmsVdBA7j7XYmLnEXgVo05YQ7/yFnDzwhrX/dHc/dbupa3gl0MB2eMeO1fJFazZ8SwC8Mn7XpGbJ/lRCA6PcINACPDpzhviL773/6I2shpacaP6ybz8pmjnzFwCwo9Fr8uhKYl4LyCmOmu2dce6ozZXBg0jqSmnBn23p2NXQ4QFt3BOkr+lPtoiWloN7iV2sv3HNCQvcI16ycjfFDaUEGtgO5bDxG714zcQPAOCFOgS472mDPi4gQE62W8+d+PBRN/FbWn7KY0659J/kmLgQABI9L/IVH7dDkvbAC7Y0JAYJ2g67uO9pubo0TEd83KCNX0VMRe3dbvnUmx8qX3ubEkdNAg1sR21E1f6IxWs3PASdu5DJ17E2iMjM4KIAycXG6vNz1n3wmHfWQbRHn37Zt6Ab2ZdwxIeAaBVf8eFFa1REi0dr2atJtzcwSNAmQ5VTH5tDQg5Kkr/gzmNKiZPNdW0p33TLWW/8Yh10vWlDvSXQwLbe41OodQvXfn/3MTnrT2GgDT3iI7dvf3x8jw3Lj3ysUONLyvycE2+c8YSD/vgoSDmLRozpcJQXrWUdcS4fKw6RCyJE3JsRVZFgtqJaHmhVpNudNmVF1xhbTdrKn0Ui/+pA2+u7BBntsvNvZm1YvnyqJJVtihlRCTSwHdGB7XTruBUbjpRj8qpeF/kACTvi06lHSPnSyz80v3P8pjb/jj79svOllCfSDWqO+HRlI3MrGRgQNe7l1jXi1K7I37E6kjQhV3Nx0BrNIpyRNJ3ledpJ7Z3/WAsOvb45BlSb+V7XhjSwrevIlNCuxauvPhcgepsJW1sUEg5aANl+dMaDO//4/Uu2lND80oqYt2xivDVzy1aQMGYWWjfQEtTSQkMDQ06IuCPaTgo8VbHNdTSIbREtIgdFbWkQx71AIn+XjEzaa+qCv/OXEL3rp2vfdHZpCtsUNJISaGA7ksMad2rx6olOVHukarbsoA3cedzbD7riig/O/1AdRXrUaZd9CUD+Y9Y2Uw78yH+wZ2n9ozUHaAfycQFNK3HvgRguG2it36UlVTPmsE1O9Oa6zlLyT++eMxN87/iu40Rp2lSZBBrYVibawRe8eNXED0DAC32W+7QAKtcJRhTSig5d9y8La3mrzlGnXroABFwedwh3OHhy4oPWtN9FlkWN1uW6Qsaj1isIewXQX/FJZJUrnuuQuDeN5frDBG3cmlDQIpFyot1u0Lo310Xbp/a7+XP/vGnws75pQV0l0MC2riNTQrsWr77qNgniqbZorvcs6IhPWnB32a69640PzfL+gk8J/eQUsWzZsta1M/42+bpQVcuiakvUQMkGCRdEhgu09iM+DKctL0YF9ETkmf4cuiHKEflbr/WMdSlqy2Nu/sybruToYpNmekqgge0Ij/ui1ROdL/3sYYvmetECHdGqEYFlR+3/rfvg/L+ssziPPO3S7wuQC+nLPeio14iq3PY5J4qqQItHa3GkRkdymY/E3xDFjWh9QNttoVKwLfKvCrQOOTFAG/dDnP3TT73hXXXW/6Ztg5VAA9vByr+62qUUi9Zs6ERyglo27VWe3nmM2jPmcl8UHb/uwwsvqq5DxUs+6rRLzgUJ6YYx08ziy8vFQIsYc69oLU6Mr7SaA5Y5TW5vgHuWVnO3FN9NHRXXErstqrWBlgBi4YjWDVo6hbE60j70njm1XdkpPnuaEopKoIFtUQnWNH/nQv4Z4+MPsUFLW/R8IJTrrWocpya3H3zVR4+7q6bi6DbrqNMuXQVSfqDXxnKiNQ03OBV1JiUAdUVrfqBNh5Dx/d7yQeu6Fzps+ZiQgPG5PEN9LZE9zyGx3TZmOmWdX2ZMje163WdPeKTOc6Bp2+Ak0MB2cLKvtOYFp11+wNjsGb/Hw6K46sCv+KAHRMZg/IDLPnjkPZV2qmDh80679PUtKb9s+hV0ROu+YjBrlPPSilzFbohUB9pOyTjmS3iX7e20IRmU4aAj3vyFkkqqSkGbtFdZnYh1QLbGnnbzmhNuL6imTfYRlUAD2xEd2MVr1h8hZevntosGMg9fF4J/FDI11dr/qo8O5qMD3CGcd+pl81oQTQw+okWJZHwuzztaY0S0VtBqFXLlZN957K9LvfEM33lML6HHHKaf9z7YYS0BAW3XeY2iBbd8+s1XcPWxSTe9JNDAdkTHe+HKK5/dEgL9EED4WVo6ChkG2B512iUvAQlXZ7aynIjWtN90NMaNaP1BSwA81W/bV3zoaC2J2ZT/UaeM7T3tIEBLy8ENWvcRH9vVp1LAG29e+6YvjahJabpVUAINbAsKsK7ZF6zesGhMRpeaMSt/E4tzWTRnS7eLyQM2fHBxrZeRjzzlkiUgINnEZQOt6/2jhhtzDVPnUffvYqDFIZKtmLqjNe57Wm5E67Pz2KlLue6hEa3S/cEd8ckPrO60yQg+d/On3/TuutqEpl2DlUAD28HKv7LaF6696nWtNnxFt/qpwUVtc858GM+1H5SltI55FAet/9D8+B1xTf8decr3TgchPqK8sUSDUGKdEOkX9+hKzAo64s23CWe3mZcHWr87j8sBrekYcOVUHWjpiDf2hMiaYzeJVP/MaZNS/OjmT78x/pxl86+RgCaBBrYjqhLHrr7qHUKCcl9rKUd8evJKbUzyHxEcd8VHFhiRdJ3Ee+Spl54DIN9u26Htvvko65EzWtMcElQWaRoi7s2IqmTPstkiWj/QqjiyRf781ZGEY7m20w6HO/IPjWjdoKVT8ECb9POxmz/9pp3rpPNNW+ojgQa29RmLUlty7KoN/yIgWtkrtMydx9lth4rh/MEVH1rw4lI7UXJhR576vW8DwMvjSAYr3AURD9Dm6nBHa36gTYtmbIjiLh3zQetaYtdiYzxMzwky/k8uaI2hI5yRTEYO0CZRK+6ymA6HK/L/6cYdxps7kkueuCNSXAPbERlIvRuLVl/1EZBweuf3akBrGLGtL9gyf8flywVt3wcp62XLWkeO/81mADm7v6AljH1gROsD2k4VJETIZVHFSzBGrIqdx27QZj0x2W3FZGU7j6nVEfH4tpk3XbB0cpCq3tRdTwk0sK3nuBRu1bGrJpYJkJ+oYucxZRzFlDxw3UcX3l248RUUcNRp33uBlPDDOoLWP1pzLB0P5Cs+togWcThcS+yKM4JonOas6CoTB7w2OdkurUjaq7QxXwO9xL511x1m3b58yfYKVLgpcsgl0MB2yAeQav7CFetPES3xMdomhRlHRxTygSs+vGBNHUV65Knf/RJIkfvEXtbKNFpzMMz5jtYICpECkQHxitYsy6Zxj0bpiI8toiVWDNJrod2DSacI/cYxwN7tvWZf9tnF2+o4B5o2DVYCDWwHK//Kau/AFlriY4n9RerJTI0TIuwoBB6f3Dpjjw3Lj9xaWccCCp63bNm4GHvugwCwkxkB0VGKkdakopqELaec7JGACVv8zRjrjta472k1d6vHalRX7IFkibqkMDR0Q1R5oFWRbteVjtO2T3vvBrYBc3Q6ZGlgO6KjvHDFulOgNfYxatm01+3CoFWsUSciELXblTzvlEtOFSA/SoKWDpLSLNyjK0lsaWoVK6LFG5JldUOEC1o+RFybxmwrJHRk71gh6e40QKVhiexZDkkJR3xwkxHLqYHtiBrUErrVwLYEIdaxiC5sxVgc2Sr/Qo0jYehNiGwW47D3un9ZuLkOcln07ktnbX1i1Pmo9+5qEKmEodamOkGbo8Jo7TyuI2gtDolriT0ZSFyTbUd8lAFGdCWTUwPbOsz6erahgW09x6Vwq3DYhoKWCP2oaE3Ax9Z/aOFphTtRQgHzll/ydSHka3SHw74smqV2Rv4jC9oiR3wQfVFWYOmI1/5xAQtou4/cS+wkaLWig5bYI4B9ZLOMXMK0HckiGtiO5LACmLDtE2g78hRCynb7mVf+66KfDVK885ZdcqwYk5f1B7Q8h8Qw9s5lUffScSdF2dFarY74pKK1oDIYtEnh5EKH7T1tTkrJ+n0D20HO+HrX3cC23uMT3DoVtjbQFolCsnKVGuI/Hp6aOXPuhg8c+UBwJwpkfEnnE4PR5M0AsEcuTs2g5GaYVjsdjcVPbNGaTU42gBDlpi2z7Tw2IcGN1ty3aOX6g3sPeZHnW2uOqLLEQEiykENSzRGfeGSSxudelDewLTBpRzxrA9sRHeAMtiWDVrH/duMoQdwkWq2j139o/sP9FPO8Zf/9BNEa/18Q4sDpCdqSojXUDxgm0Ba58zin6KgflXNmcs8b2PZzpg9XXQ1sh2u82K3FYOt8/6gspRGhnxKJIPGcHoUI8ZNZMLn4kg+/tHP0pvJ/85Zdso8Yk9cBQA60rveParO4cioW0eJRayY+W+gdR2vcncfciNb+FR+1vU4ZKaxy6VLddh6HgbaTax/56OzLPvue5pxt5TN9+CpoYDt8Y8ZqcQzbVrob2WkcqwBttoD4m6gtF1z1scW/ZjU+MNFLTrnkGWMgN5S38xgBorI6G7p0bAFt95ENtH4fFwgCLdo82woJLQf37uzhAm3qkHS6jCyh7yMfa2AbOH9HPVsD2xEd4TxsnaD1ikJyy4h52bneqwG0IYre2J6cc9GG5UdOlSr2ZbJ1VOt7/yxb4lyQMKY2S/EirNU65VSpQ5LYboscu42Xkh3RarFo3HcyyLTJKRS0RIVpcVlsrtSgrZ7gamZxSFxHfLRmBTkkxrJCXEoD21Jn9kgV1sB2pIYz6wwNW1sU4jKOgaBVAXJDNCbePPGhY2+nTT9/UF5yyrefNQZj3wOAJ5m5XOdEsxwNaBNZINGaAjvH8+yLUC5dIkCbZjP1NGOwLfK3bYhSliUQ38N8ntOQzE9B1+8b2PJn7fRM2cB2RMe9B1vnhQyKfaFBXPbHzaUQ141D+73bt22+bcPyJY/5DMMLV3x75/FtM58uYOpLQoi5/f24ABkaKrTCmYTnzXwRe7TWeUqWoD3gRmvNEZ+e5tlAi+88zoO4999NZOszk6dX2ga2IzreHdhKyN7Zxt3ELXL8qw202XMuRDyikEgK8T9yqn1BuxX9ojVHPAqPbtkK8MQpgN8BwMHjc2ZtmbNdRDuL7eIZ7ZY4EUAutn0A3r3RxyOizYnGLafAyL9bhz1a6zy2oFp5WA5oVZ0oHPlnCkF/vVZdAVFmZvwoNKJN+pLLzpVRnDNJbYloO+kiCbAZHpv9q2aD1Iha1WLdamBbTH61zW3C1hO0iq0lMNNH46iZftR3yGIUe5SSpsM9B3VMlaJsDskgQFsEIq4l9lx/XHJSIOaSURW61IcjPl2a6tNd7WsD29qaw1o0rIFtLYah/EaosMVBq3jtpB2pwjj6XTTA6RsgAAAgAElEQVRQBWjxQMnTIVGiNYT/yPPMIUi/BWcZ/MEf8THlRMN01HYeK/1hgLYjqyayLd+WjUqJDWxHZSS1fmSwLQ5aFXZ2SLiX+xhRiFYhd8nPffNRJiTusijhauSWbW0RrSG5bgMyBtuWRavaeawh0RG1lvfOf0iP+DAj2p5mNbAdUYNaQrca2JYgxDoWEcM2+Z5tvoHpsihh6FnRGp43W1W2QMT6ibMERcqyJNp4Q+RVgJaM/F0ySolqk1MDWtvdmVxdwt0ZU4/MdOlEQKaveedxzk1T0neWjvP/GtjW0RrWo00NbOsxDqW3AoWtYl9c79biJimpMguIwI6xLFoRaEvdEKWAnueQ4MFh3UCrSIm6+isd13Ijf2J9gNAnXuQ/2CM+3YAXGfjNsLnZIFW6NRuNAhvYjsY4Gr0wYFsKaPE4ongUEh7RlgraXPfc7x/9AJIFu+6ItpPCgura7DwmJKAtsVchJ793/qosbRGt385jddLF5TawHVGDWkK3GtiWIMQ6FqHA1gVahaF+xrF4FGKCVkU6c7nPzTBtmOjIngcRxr3QuRpZDknnkElzxId1XSU93KoAg0DbDVv1Wa2WpEa12bMGtnW0hvVoUwPbeoxD6a1IYVshaHnRml8Uwgct/+MCziVRJaLFo3fs/aJifokl0UxGRLnpyNtAW2Xkn/XCKadch9HIP/O88LO0ynNT5WMRur0mLmhRXSKHN1dqIGibyLZ0MzZSBTawHanhzDrTha3MNkgNelkUF7MZxuVMf5yFsKxVbIjiRrRGsywQ4UW0fjuP+dEa/yytyTlb5E8OSjLMddt5rHgJiComcuokM7rGi2h7hTaR7Yga1BK61cC2BCHWsYiFZ6w7RYoYtlzQ4hDBDWspUYhWIRci4aClAULKCQEpbo/NsrOs7miN+7k8NFpDi68KtK7IvzrQ0r4Xw2kjM4eCFimwc4OUaDZI1dEe1qFNDWzrMAoVtKEH2+pAawk7kzDJutwXCNrwDVEVgLakZdHyQetaYtfcGuVPW0TLA235kX89dx4r0zYRWwPbCozZiBTZwHZEBlLvRge2UTeytUHGWLSNiym6LGr9xFlSAbmylzwIitYyKTjfP+b6yXVIuBFtWjTz/SO5dqA9MEaLXM21yzCvK045KUXZdCnwc3mJY0ZPw+EBbacPDWxH1KCW0K0GtiUIsY5FzD+j8/F4SD8en7bRtSxaFLQdUpM7ahvQ5tyBAew8tkW0SNTKBm0nYZzYDJId6xtD8HEBdX6THlD3dc3j4vHmnG0dDWIN2tTAtgaDUEUTUNgiy4XcaC1jMG08e5S1mtegaM31/jE0okUAg0T2XBllES1Rbs7joY/4hDsk7nfZudgY71TeF8i31lRRxSmjQEvLoZuDGfnj86OEIz6Zj5CrQhUMdcRHd157sm9gW4U1G40yG9iOxjgavbDDFjGOKimM8tzG0S+iVc2wbdnT9f6xWtD6RGuxjAYDWve77BJBq3QxdEOUzWlj3J/tctpIPyqnaw6Hgw/arLIGtiNqUEvoVgPbEoRYxyIM2GrLw/7RWlXGMWcVkSrc0RoFW7SwbmLC1WB+XACXAxe0ncq5G6LUmmwOiSvy10pS/rTJiRjz9OdQ0DocEuu1nuE7j1MplRrRqn1pYFtHa1iPNjWwrcc4lN4KBbYaaP2jtYKg1SrkQqR+oMUhkYnXLScuaPmRf1WgJUPDRFerAy2N4nDQppG/N2iR1ih+jzrmDWxLN2UjU2AD25EZSrUjKWwLg7ZIFJLkzdkjLmjdy6L+EW3cGjqSy2/vwYM/W1Q7CNC6lthtEa0fRHJLAspdhlw5+UT+FikH3QutjDrq7WQ1mu/StdZYQNuRUQPbETWoJXSrgW0JQqxjEV3YQm83cs6Y5BuLgLj3mGUch+GIjwJ617Jo/NxIlQlDGWqfiBYNqHq14fY8awnZbNKLMXpR3hGfrCflysnvnX+Q01YSaEmnrYFtHU1hbdrUwLY2Q1FuQzLYBoK2a1Fs0VofjKM7WNSERkettT1Lq9GdCxH7EntYRMuL/P0ckrR7A9El/ld8uBGtDbQdL+3xVnP0p1xLNjqlNbAdnbFUejL/9HWnQKsT2Q7eOKo8UdbhDFhagm01qsTDKrU8x5KffnkHN1LjASQxywM5c6wui6JCUZYw4j/cS+xV6JLfzmOuM6L0B11WUEvi7zy2r440sB1Rg1pCtxrYliDEOhYRw1YmdyNjASBuNOIV0/IiWj5oXe8fsz44l0RzlRJ4mBY7j/3kZIdIbw916Q5J8M5jY5BVZ6znSZUKWm0ZwnBYJDze2tJcalFHg1iDNjWwrcEgVNGE+ad//xRoiY9VYRwJkxO/J9QqNBaxSZuee1B0+dgzojX6E3sc5LC4HZI+fMUHbaJt+RjpTyonHmh95JSJ0DKYFYG2XzuPk+WARE/ifjawrcKajUaZDWxHYxyNXqCwtUCEZRytVzEqhFPtUP4v1OaXD9oYDDRghnrncamgdUVrtjuPbasjdoelt3pClkA6bfaI1r7zWC1UXTpG2quopcshaWA7oqa0tG41sC1NlPUqqANb2cq+Z2u72ag4aBNDRTLTBHEmLdc50VxKw97RFnnUQGs/ChUa0RYBLZ63uC6FO21VHPEhnTal+3GbO/9/S7OMXC9DWKPWNLCt0WCU2ZSjT//+KaIH20oj2pqAVgl4eFEIzm5btGZZEu3WHyO+0mjN4XA439MqLHNF/hlEFN0k9CktbSDv/HPuValHfFwOiSqjBrZlWrHRKquB7WiNZ9qbFLaZBTR6yjOOVe0W5Ue0Ccdy7achUd0RH8eyaGfRmtx5XFK0hlI8+5ELWjJaU3TFD7SpdAYC2hKP+ChOGw+0+VQNbEfUoJbQrQa2JQixjkWosDWtdBWgVU1TOUvHfqDlGUf/iLYIaKuM/IcJtH5OmylxWp8UB8uIatXR5h/x4emSnqqBbR2tYT3a1MC2HuNQeisWrv3+7rANdi+j4G1lFKKUkStxa+mFOwvE+2PpZfkCsLexJdaBhEOUi/PpdQnkpJbmTuT+dEf+oRuieEvseMdtu9iNUFMpogrQ8iL/uBlKryXAlrHm6I9zAk7TBA1sp+nAN92urwRe8OGLfh6BOCJtodd72iJL7KGgdUT+VR/x6VTvFdEi7XU5JMjrGB20nVIb2NZ3Xg26ZQ1sBz0CTf2NBDQJPO/DF/0cerAtDbQEENPybaDF82b7pCxRrfX+7PCI1ueIj/MqRiV4JvqiwZZ6FbFlbGtzqUUzo1EJNLBtFKORQM0kkMLWC7R0tEZsdcqtgQaCtlulbfnYdn82/g429xYaWaftDVSJO49LBG0c2Tawrdl0qk1zGtjWZiiahjQSiCXQha3MLSN3f1Whxt157AZtJ8Uw7TwuEbTK0rEr8ufJqIFtM4spCTSwbXSjkUDNJPC8D+WWkdO2DdPOY78vQqmYo3cdx+mS50XP0ioRLQ+0RqpsHT0dpQa2NZtMNWpOA9saDUbTlEYC3cjWgO0wgXZ6HPGhbmRrYNvM4SaybXSgkcCQSECFrQdolWjNtdFnuHYe1+2IT6xKpowb2A7JJBtAM5vIdgBCb6psJGCTQAZb23va5ogPBrzCHxdgHvHBQNvJurXZINVMbkICDWwb1WgkUDMJxLCF7JytsenXBlrX+8fAncfI+0lFbDU44lMYtIroeBui8jJoYFuziVSz5jSwrdmANM1pJKDDtrydxwRoU8iYEM8CvXof8fEDrcshCQNt5xjU1vFtzTnbZgqjEmhg2yhGI4GaSSAP2/JAO2xHfPg7j+sC2o4aNbCt2WSqUXMa2NZoMJqmNBLoSKAHWy5o4ziNXlqO3y+GR2v0qPgd8dHeQGOvXNOquEd8nKDNBbG8M8dIsyxL6NmjuPQGts0cpiTQwLbRjUYCNZNAB7ZSqu9sjQ05yoUMgwCt3xEfcoEabXruR687j4tsGsvt+s7rgwdoG9jWbCLVrDkNbHMD8upvyLEHf3vNETDW/ouWlH/RAnEIAOwDUu4rAXYGgJYAEBJkIjfbsQxkpJPk5JdXuoaFmPQ5nx/Todgm2N6rdZ7Hlgu9D6BTr5bdKI0sPu2YVb1Nu4UUmDSOjEIQOSilsIwjLoE0ppEAbVtPguTAv/kIAPaXADOyJhSBSNxXfCzxjujRGiqKij4uUMURn2IRLSq93DFbVYYhka3cePKLYFx8qWZsoJrTUagIhHgYpPw9RNHvoAW/gEjeDBs33yz++oLJIelH35s5LWE7b9nETrN2ai0WEC0AIZ8PEp4gAHYEkDsBiLHeKEQ9E4XaJBtoaWoVm/g24+gCrQ1fJizV0miYKsaR14SckuNyqkxGTockdjhoFKsOCVdGxiKvw4tRfSYbaHEQZGQdLtD6fFzAuXysqCwtw9TB8nBI0tIQ5zYQtvNhXKzru/Uvv8IIBDwKEh4GgI3Qbl8MrbGviH1W/6H8qoavxGkB28WnXXlQNKv15paQr5Ag9gGAPQFkDFUCEFzQmva7iHHMATyvS6xozUI6VxSiyYELkSpAGzfFZhxtMrJEIU7QxisD0wO0ftGaYtaG6IiPzb3MVIxI5Zxz+Hyb5rBFCNhRmNYfQMo7QcrPwT5rvikEZXWHD6A+LR5Z2B679spXtqLWOwDkMwDEXtBd/jUIhsI2BS29/pYWVF4UMgjQJh3MCYYrIwWJJUW0btBmA4IHh2ZDbFGIDhEuaFW1oKN+oz9eES2ifOxorZMQgUgmDMNG8OTk9xWfIF1y3HnMjWhJXVLEWi5oO0U3sHXgR8BDIOVNIOATYq81P/CB1bCnHSnYLlq74WUigpOkkM8REnZF0Jr8RBvIKkDrhkhgtGbxvrsdtUYhNQFtzviR77I1SHBBmxbNkFMh0OKBohqhDxq0qjBw2AZ/Lq+ILvGP+Di/S6s4jYQHiDgcSsrAiLYn0Aa2LiQqA/BrAHGB2Hv1KleuUXg+9LBd9Jlrnigm22cAiMUAsG/Xo9fmGdfD7hh72vnXSnEYz3wb7MuiVUVrfscy+NGaTUbqlHAeXVFASxJLcZCqAG0WB+pT2qZLimVH4GV/rmyEK02XiIi2MGiL7DymHVvFCXVEtJ20alSLwDStqirQEjqaG/0GtjYsYoa5+9t9IKJzYK9PnTbKS8xDC9ujV214/uyWOFUCHAkgW/EQmxO7lqBV5mzcQn+IEAalV5rJidwsYECEtFd245lWYlRhM4480BqpnFGIyzjKbvCPdzVcl9xL7FmNTodEYTYtw+rO0vqB1pQ4rS/123ls0QSLruXx0sCWgq0OWkzW8i6I2h8TT/rMf45CJKv3Yehgu3j1D+ZLmDpdCHiuFkcpvO09y5k19HnPu07TofMt1DjyIFIuaIsYR2YUYuN8InguRAhXI0dAYwRz42jFpOMolA20ybgpoMtrm01Orshfc/+UP20OCen9JA1rvuJTTJfwuZoxlqH0zTtbhJE6ZCkHOGeBpbwaJqdeLw783KZRgu7QwPa4NVe/AECeJQH+Bh+A8GiNu/OYC5BMnVyRCMJ/iwcdP3JMetduUU3XNdNvdUjyUattEnDlVMw40nJwy6kPoEVtSihoXU7bcIE2jfw74sA9zVS9uBuignUpFa2pT5n554G2U1QT2SJOqRL56LLEZNv9bQtA+yNin89+alSAW3vYvvRT1x4YRe3PCQkvs5pXzIHqjpItCumcqSTDF8MS1H7ncfK+GpeTKYdBgra3omBMpJyDq8xR4w9LLxkbfbgborgyMvrjgEh5ujSgr/gEOm32s7RqoVVsiMKHJVSXTAw0sKUcQxKqmhCVdBJk+1L4033/IJ5+8fZhh25tYTtv2cTsHZ8w9hEp5YeElDPCQGuH7fQBbSIH0q+wOSSuZdFsCnAjWhK0yjwlYpU4bEXnnTui9TtLq5n+uE5SEcvfXOeO1kb3Kz5+oHVF/hXpEqKFDWyxqIcdzeaMSW9MuyuWG6E1+RKxz7m/GWbg1hK23SVjIT4PII/oLJtWAdrwncdIaxSI2Z5nzzT/LdEhM2/GFloKMQT4cuJHa3zQJk3IzQVaDkN7xKdWoO00pgqI9GEXu2Pn8bCCtqP80xu2OmgDotk0i6EkUxC1F4v9zr5iWIFbK9i+7BPf3SHaaadToNU6uQcQRxyjRBpciISDFmlNUdCmRRKgNSlm6poHaPnRWlWgrSoKsYadqTNCxsSYQ54PZYNAq0nbKIOslHGLVhWg9XPa+LqUWzzOfATUMes+xj1RLeohXY3im+syD9fbrk9P2GKOdShoMQXJldUSbxB7D+du5drAdvGaa48QIroIAJ6Zrtd5HF8pB7SexjGXvLporbyINtg4OkxO7Y1j4oyQoNU4zdWlQR/xMdwLCyTiRwV1KVBOo3jEh5oS0w+2mMOo6xkDvKnuMvKK6K2wz9n/Liwvdby9pD5kqAVsj1t7zfEg4N9Byh1CQMuFiD2iLQLaqqI1t3G0Rv6uaI1sthKuW9WQ+56WiMOKRyFOiPRh5zE6TBqy2dEaMebpzwPaeVwj0MZNwaKpnqpmz3Cxm3kzP8Ux5xxGeXrBVjcwDKjmV4tSnXJEs4rMkzoi+c9iv7P/ow+MLK2KgcL2OeffOGOfzZtPBYAPKmtEHhEtF7SddKUd8VEiWh5oS49ChmjncTHQWt0J51naar7ioxl7w8aEgtalS9WBlpZy8oT0v5IHhMOB+AjJVFczcI/4uEGb9QQfFgK0TqeNZ3OnB2wxL54DWiqfntdRVu+xlK8Q+539bd7IDD7VwGC76DM/2aU1te1rANC5ZjHHWv5GnypAa8452oMuBhHcg+Z52H24EN7h4HMjWrdx9I9CMofY3cjmiI8do73rTWlJlvBZwaIbohTnlmhp+jMxK7OJZVjd+JFDl5i2evRhqwOTA1lNB2kPjNjujzl0yW8teJ7Y5+zrmMMz0GQDge3Cs67ZdyySlwgBz/ICLTVm3UJoD7s54tOTMjMKcTNMU1rMY42TlH0vdBWgRZ02glH2zwqqcuA6JKTTlnXWe+dxxh7bYA7BzmNjatPObzW7s/3s8+jCFpN7KGg7+fS8jrI0ZyoXnbUBxGHiSWff5TdS/U/dd9guWHX1ITPG4RqQsD8ftMmMy42HZtZ6lh3xWss//+iGiH+0xjOOfrtFuTJyb/RRxcrfEFVVFOKI1jy+S+sDWruc6gNankNSFWhzUio1oiW9n0Q5bXMO18MyI9reDBlN2GLOtCcs0+HDlMICWuURkU7CJpgBTxZ7nfNY/xHKr7GvsF24dmLuOLQ63zDcWwet3XyGL2WlQ2uMU5hxJEGrdICIVeLZjY4Oa+JPmyM+uJwy8VmitcQTwJePw78I5XZIcsbeoWvOL0IViGh5oPVz2lCHhPSjkgdY8KLpPv8rPlWB1uG08e1omnL0YKuD1hGBppLQIyNMIah5nNOhbnmMOiV8DZ70x38U4uJ2wLD1JUvfYNuNaMfgBgDYQ4uTeq+NiA7XALS58W6O+PSGCZkAyhyhn+cnD+64mnlZoE02jZGg1eat5m7FHUPnv+vMcRWg7TQmdEOUxRnp9tGxLyJQTtPpiA9lnUcHtjpkmdBDv2/KBa0OaG6dSbooeqPY//wv9YWcAZX0BbbzVk7ss+N462YA2KcIaPketszMFGE8U2S4ohAFtDwPGy+yWERL++DhH2Cwv3/URsolp6KgTTtIgDaBBK3jsRzK3xDFB63ZRJtDQoaGSRdDQUtrSuxM2ECb5MVsXt4TQbuV+9EYBDUDN6KNW1OB0+bUpQBLmmQZDdjqoGVElrqnmmYpc9nY0o7eo0gcLg4451fhI1hdzsphu+gzl+7Sau/0fyDlgf0BbZEjPoihKgqRLCQzRjF+5IhCmiM+sbkd9McFHE6bH2hdTttwgdb+cQEbaOn5RoJWyRKXzXVu03TOORducIcbtphjEwraTj49r6OsbICQASDy6j+L6DbYVz5LiAsmw0exmpyVwvbE82+csfGxx34KQjzdJE3FR3zoWZg2pfBuUUQ5lLF3gtYRhVhBW1IU4mA9V0ZVRCGpdFzG0WNDlNrd3F9oAGV7rpVkDrzhW2ajjVaWpB/EV3zCdckHtM47j3PTYWCvawra2eGFraaTqO1igLebpMxoFrORSTvIORe9S+x3wdkFh7L07BXCVorj1lxzBQg42hu0mnxRA4mMexVHfIpBBCdZpsc20vntFuXKyL3RJxutwqAtEIVUAVpVraoCLWIcFNtAjHmqFPFzIxXhuGX+Xnm6hMoJLT6HxAHsPObKiK1LJZjX4YStDloGVHUtTbPoiuAoK1NgRPpEXnzgc/klwFj7ULHPhb8tYUhLK6Iy2C5ee+0ZAqIP+YG2mIfdt53HiILgTpapLDzQut6thW8as+q2Nlgjf8SH5FP5x8UIhMYSDwQtDyJ+ThsftNP7iA9lgYcLtjpkUTfPvRzcLcYzmkUccVWmHNBaQC7hu7Df+X8vhOWjcaVhlFdQJbBdtGbieS3R+hEAqOUn1pv2wcMhUhpoc0pQ9lIWLwrxAy3fOLo2+miqjnsPWSJXtKZR3T8KoSZ+0oTgIz65lriiNYcHXV7k36mIwHHmnZl+a1dE9GyKQV7N65pm5zFuYIcHtlVGs9jcpeadrr9WgKrRKz4jsl+FOFY86bzLeSisPlXpsJ23bGJ8x11bDwLAToan4nHnsSpyxbLr8VdFO48JI1YYIgM2jo7qcfuNecAVfuLMCRHbzmNTV3x0SRteQ9d6P1QBWsNEVQ1arUKunKoAbdwURDmRATH9QFypM/ExlL4kW1t/2GIytgBOkYsOTM9o1hw4cn4pXr3D6SXP4XY+Or/fvgcKsZw+pFDSuHOKKR22x629+pcAMLcIaH2iNTqi1UpxDph+46N74uNF2ia+G7R0PMc44kNkrtURHwtA0uYPZOexK/LPxs4J2tw4uFdHBrHzuCSHpO5HfBy6xjGQvmnqC1vKnum/M8DbTVI1aE0dZV1uoTvqMnqLOODCf/cdxyrSlwrbRWddfVpLwr/2B7RFjvjQII2fuEFbehQyREd8ikUhVnei9kd8/EDr0qVB7DweBGjtcnA7JMSsJGCaBcP9i2h7Nq+esC0zmsVA6wB0NiAIw4i8zuCImU/AY/D4rD3F4Z/dVgVAfcosDbbzzv7GTjtu2+fPAHKGuvIQ+s5ICQ+MPlWx87g60NKAiTvmt4lFVTPMA+yJyxWtZWJ1QiRXafhyXxHQxu8fy7+0oo6fy8PllLHFBpE+fBGq1J3HRF80A43bXjxvLKf+g7ZTbf1gq8mBcFCcZ2ILRbPUWHCA6QB5aups6eT7xP4XfsoHjFWkLQ22x63ZcA8IsZ8XaDWbwoVIFaCtIlorbhwzEGf4zEu4HNCatgnzhHtuQVXG0eGQeIBWLckmo0GBttMmwrUjjWFv03IoaE1d4supOeLDNb71gS02h5ngUi/vTrrOWTZWPPIkn2edSnJOXmwjkJHvUZic3Esc8oWt3HGsIl0psF285up3CgGf6wdoOyYnbOcxDZDBgdZvtyjXGfE5SzudQdvXr/gokdowgbY54uNjeOsB29BoFot+OJDN5fOGJe4EOiPt7qCwQNtL915xwIWf8RnLstOWAtvj1ly9DQTMTBtnPeJjRho+EAkDLRI1KU5YudFaZldtUYgfaIOiEEf1fqAlIk8FIvzLGNLSLJFcPJ/iCvr7FR9NIw05YsbMEvlXDtoiukQZSqQ/JW2IIlyNnPJk8jVtN67UmRoxlL5sK5orb7CwxQIKTnRI2cdQ0FJjoP9usiBoE1QPvMa4KvVtgh89fKBYMrivAhWG7eI1V28QAv4u66ffOyMfiIzazmPaLDB2HpP+AabAuHXhvqetzDiatNcaOkpHfFSXwQ8iVTltwwZa3OGrC2g7rRscbDEHMAC0aZaa3ASFAdTl/FLwle1/FAd8/ssV+lrWogvBduHa7+8+LuY8ALJ3eYXfRp/pDFoiTtTPHyFqQ8N0WI74ZIGeDSKD/4oP1xmJx5L0fpIJOKAjPnQQjupa3mkm7a71u7RUlMSN/HvpcnZLWRlQ7RlPl/pnXgcDW32QPSPLnni62aqOZhP9ML1N09HWhw3d9EZEy/m8mTf2E3HAvz+/f9qg1hQOWynF4rXX/lIIeVg6PTwureCDtjnikzeApNOGbmrA1aowRBDjh88dfNLHuj8I0OagiFav/si/rpJwnRBaceXEitZcr2uGAbSK6OIG44FLqC7117T2F7ZVR7PYaOTqtDhB1uVgb9B6vJt1AXqq/XxxyBd+0l+tiGsLhu3LP/WDJ7ej9p1po4OvhcsNKDKfqth5TEzpPrwz8ov8NdOPuPyZS2rV+3yQgFsyg+fxqCADUjlo/Y74+Dht9si/ZqBlOiQWBCn2LkiXmiM+3ja5f7AtE7SdshgRYi+NFZaUE60DE0tH/OayWZiLlnmr6hhK+SVx4H+80XtgS8gQBNtly5a1btj1qN8JgAPifjrO0moOEnfiVwHaKiDCikKG4Syt4vcQk0aDbelRSHPEh/39XsqsYbs0s7TJf6GZmyM+RW1q9bDFHGAPcOU72F0Z8cxr9eotZVkBTa0MeTgARr+MELf3w+Oww7Z9xR5feaToWPvmD4LtSz999eGyDb+oErThR3yQgcuNWVC0lhZpKlOme7TpY8kJc1TzHpvLODqqNwMlbNLmg2f6efgZUWJSpQE6/9IKn4i2OeKTCjg/wIatSOcGaoNzuDZW9YrrkqEZVGSS/0hSfT7oksqyWthiRsITloot84BZCCxZR3OI9uNevKazgY6HhA+IA/9jjS8si6b3h+2yZa3jdj3qNgB4Su+9G9fDVtPZPezSjvjUJFrjyogPEf7tUMMC2k47ySM+mjX20SXaGddKcU1wRWVdzkj8HC8S14aYL4Nw2rRXBs0Rn2C7Wh1sddBSeuIAaPdxmZugLO0IAXTxTVC5sSMdkZvFAZ9/dvAgB2b0hu3Cs67Zd9ee+goAACAASURBVFzKTVVeMVjNER9CKTRLPHTG0WGbcfutT1y/iNY7CnFCpDniE4PWHflbnbZAh6R+X/HB5cCSUaAhLCtb+bDF5ioJETryS4XHyZtLQ3uq9iVob9AGboIi54y1n53K/koc8IX/K2vcOeV4w3bx2qsvEiCXoCsEaY3h50TT97SoVcl+dO6oVSJawoghimTqSLEohDafSbmYXudjIqT6YTnik/HD5hE0R3xYELHui0gkHaBLSkzrFdEimq3UjypuYiFy81i3UoTxzKYqw7vkWL6K0pQL26pBawGSFZbUGNRkE5Rrs1esY2eLA7/wrorUAC3WC7avOGviCZNSPFgVaDsQIR0VTYDlHcsgJj7dkFwb3RCxoDpot2gVoI3NZoBxtHq9nLt8s811pJyCAFLVER9ivNOfB/EVn5qAVnFuXXKKnxupnHOu3qDt9Kkc2GJz0QJGxbTrgO787ZnXOq9DAU0FPHp5jLaSeuLIm++XlL8VB33x0NrCdtHqq1/fEvLLtMrbIloj1NRUxPYOUq3RGdUmyYkp3Rzx0fQ+CLRZ2IrqazwfHMYxidY4oFWbTBI4MeK25zZdwoxc3D23LgWC1imnPh0Xw8kX991rQ9T0BW05sNVhSUDKBdAUSB4wU5IyoNebGRbdyc8e1VAELhuT84UDWi1NC54v9u/fmVt2ZDtv2cT4jruK+6SEPXBvQCEc4rmaz3vlpBEt7e6mVXJBGxdFG8+8t4frmJk3c6hsEOmTcbS4ZE4ZKX5PVcaRMhJJw0cKtB0ZEjjOlMYYMbdD4qdLqEOCDq/m2JYGWmLM0/Kzisw5h+uhW0aWiTCAR8Ui2zJBG7oJChtDyt4N1bKxqQ1CXigO+OJb+6UmbNguXDsxd0yKX9INUwWvDg8N2uaIT+ZyIB5Kj0yq22BjvRFQ0g4HgQcj8sdtsc04VgVaxUtAVHFQqyPDBFptid0RlUSO5+o9B6HObQFd6pelZNYTDltYp1TB2pWLzLPSz85a4ItHKbluYPqg/4aNPScfZWNyeREnL2tc9+GvxYFfnMsc2sLJ2LBdtGZilQDxAbzG6kFrvie2QYSgkSb8qiDCkRE/CtEi9D6D1lBpiwLHUYgbtJ0UQ33ER+lnFaBlXBSDBUGp4tHObfjOY8ywxxVynTZcl0YHtJ3+FYYtOX8cUErzecAsBJZ1PTurRypcOUp4ujjoi52jrJX/Y8F23ucnZu/wZ/EoAIybLQrdeWz7Lq05scveEDX6oK3AOFpgmjHY5g2M0hGfTj+zvpp2ywYRt8dEpzBBqqbtL2hjlaAd3+DXNd2CHXKq3Dz6V1AItmR/HQDtSzSbTP4QQLOidEqHPJyH3nBxQRvr7Vpx4JdO9h9p/xws2C5ee/UzQMqfDQS0XpsziKgqI4Hu/+Rc8wIetutCeK1ZXONov/lIHQ3ne1rFBgcYRwtos0ehoDUnMl9G/J3HXBmRAFHGcRBf8SkiJ9tVjKq0uUvHwaAt7LT5G7p+5QiC7f0nzwcp1WVk3FKpO4vJaBazg7kx1uyhZkkQUWEOHDbXETAayTj5KEfLkZfslyWfhFvEQV96Vj/0gwXb41ZNnClb4oPGoGh9yP6kveveBCWdD+sRH0SJikKEbkjWEsYXaiyoDjriUwVoqzCOPqDtyIiUE2YL8gaH4LhyxaAxYzRkK3/SDkexz+XhDl+mZhaHxOq0lQRaYxBMGaGOTl626ZwjByVJHT/H7a1lxljmZD+MYpE6ZrVh5k0XLJ30KUNufN8CGBOXs6GXCrXGm6BY0SxlzzlAxuDDyZerM04+CXO27C72uvgxnzELSeuE7XNOPH/G3k9+8sMAMCerwIQpOkFRezaoTSxx6017Sxu/eM5bjGPy/sJaQhBE+FcxlhutZY3lysktI7+ztOb0M3Wtp4fT5ys+JmhVOdEyMpw2nHzx3BiGVaQQK9fHPHvesWnGhg3Lp3yqlJvedyy0xGWIhVKclrRM9rIxZnyCgIS3A3elEJvJrDME0GnRnDoIeUj5VnHwly/0GbOQtE7YmruQ6wXa2OigVDcUxAQI4lnlc7neGbm+dlQUtHTz1HmX/WXqQDpchEuAKKsfaB2NDD7ikyuXcNrobmuuHz7whu/o1iVi6ThtKi5jt0Mymkd8cK7bZMRQ+BAr17888ta9No3D8uX4/j+iHfLek44D0fqe8/KJWJGQtQILaFy6T53XtThlVqfAmY8Y42DQciBL2ZIkr4DLxYH/eWzVauKE7eLVV/4jiLEvKZYpECKlfVxAqT8AtIWNY5Hdoqazkpetc27kNKLsTWPGNEgnN8Fwy/PY6Y3dINK8ag80RNJzOu9eOSY3N/KPi7E5JFlP/CFClNsTq+udPyknmy7xj/h0e+YykkpVAXPOpUuJvlRt8Cou/+5bz116oG8dctNJr4CW+G81HzboocvGXCAlc8BphLDx59RB6Y3+O6MsUp8sZaWPjPI3ioP+c3/fcfNN74btmg1XAcCRqeXLtdPHOHI/LmDOOXpiu9+tESbUNfEtz/MQwYUdujs7VnRaH7Sp6JoQpRhHHECZeCwQSax3c8SnIGi1IeDOuaE64jMaoO3M3ctuO3fpYl8jLO97/2sA5NeVgCZ1xHoKwABQ3lm0GhJLWS67YjikgTdBsWFJTQAPQHP6NDl1oJj79bt9x84nvRW2L1/x7Z2nxndNPrIbCpHRO+JDx0ChMioCWqQ1RUGbFmlOymwO2yDid8RH7YHSeE2XXc5I1iZupJbVTTl1nd8H5LTVCLSahiJcyMk+P2oWo8/TJR9zNti0bQmn3nHe0o/7tkLe+55lIMY+kQY0CmhDo1nMSlFzNvAmqJClX6tj5QBoCKCd0UvP3siPioO/crrv2Pmkt8L22FXr/7LVGv/frrHR5GBMLWIcuV/xMceAMn6DPERve7dmQoIbhYRHtP0FbcbgUNAmJeSy82U0ekd8aKetiJyaIz4+BrDMtFLI1912ztu+5lumvPekb4KAf1DyjeImqBBYKpPEI5q15kNn3o/EQV9+oe/Y+aS3wnbxmok3AcDn+w/aCiBCDnT+dkI3RPAU9QJtcBSS0RTVoViENhnFz+ndIaE3jblu0dKQrfxpc9qIvqQ/V3eWtnLQZgF5MpamjFBHB4lKB/a6xseS1SCtFHDUbecsnfBtirzvvb8EEPG1gamd8gCLS9+xpV9UAZl1GtMGm0dYdMZIlwkhFmMIoK3yoOyXvFcc9JUn+Y6dT3orbBet3fAdIeXL0FcBeaEg7U8jWsagcpf84mpo4xl8o48TIn67RfnRmmtZNBtKroyGBbTmSJoOS6/39TviY3W5Sj0upsqJlpHijqDeTtbm5oiPj4nkp51qiSffefaJv+DnSHhy/0kPgYRdY9MWumzsCTJvQHMvmsDss2fbFKXn5M2lSf+Tky9XUdc5nbGvOOQL9/mOHzc9CdtXL7t15mO7/HGrkJCm4UKkCtAGQ8Qi/OwR5e0kYhzBIz64c2qBCOlhZjLiRrQ+oLUvsWsa6TIgCqtsTpv/5/IyJ9ymS35OGx+0OSkNALTGeFp0JX7kmG9c61WzdJGY2vn2c97pdTmC/O1JT4DZ8CB+pAcLLgqCBZ/4miT1RCOyCcrQF71f4l/EwV9eXZVakbCd/+mrD58xGaVeGhe0HaXp2xEfxAPiQqQK0PKNo7Yw52Z9bvxpSMRPbBAhUrgcEgZoKZ/c/r5f8yyRyUA3zQZaRA4u0Ga0LLAhqt6g7Y6Ry9i65IQMiOnjFHDaqrJ0fSj31gd2G4eLl7R9qpIb3/MiaMG1Zh5Mhsrg9LxcByipOWYpP19iqZugGHWStoYjD0b5eRupK66UPxaHfO0FPuPnk5aE7aJVV75MiNZ3TLOFDXivyhJBq+gIYcS0ic8FrWJXqbOV3UTk26rYIGsVZn/aZOR6/6gOX3/O0uKQzvTeDZH+HvHR3JqiAKkctAxd0oZAcyVipUD9qNyPxiCoGRrQ+phGz7QSzr/1vKVv88wF8v6T/gGi6JvarKcBSnufxDnxwKg0sX/2diFKGQJLpRhdyR0ADZGH0ey0kHvEwV89wHcMuelJ2B675urPtWT0Ts2skZPeHtF6GkcFtKSVSfoYC8oftDaAZEtdpI/ed9BSil1gd7bqdSg6k+nwaIA27qrNaes8C9UlQkd7ErU6bUneXNMGCVpSTohRU9ppMXo8p41rsuqZbkpGx9553tu1+43dbZX3vnc5gEyOC1nAggs7VwEBKZcjGnyDFBe0lP3QFd4B1bSnSTqrPCx12uUYwWOTc8TTL97uHjn/FCRsF6++6k8AYvesbVgnswq5R3zw1zU4uQjTl98+rA9BzhkgMcl4Z1TNER/7Rh918LgbooJlZAFt9igUtOEAUYw9Wn1OI12GRJnPPNAaJiQjhTG7WBCpCLT2DVFqX7kRrdshyaSDi96UccZgmy75G6665Wi3xg6+4+y33OXbLnnve+4AgKegyxY9EFocGTKfa250G4qMCWvZODSfVqdXv3Q4Uw6uBdp20MbyaIsTxGFf/YrvOHLSo7A96rQr95s9u3WPN2jR/qudrxwiRY1jsjxMm4aw4ytVgDY4CikM2hKO+FBznd76bhgH/hK7DbSdhgzxER/H0rHfzmOXnAjXzjnnRhu0HQ0K+tqPXDYO9z24BUBq3wkvCBYnVLDJF7jcjI49Nd6cfhWEpUK9pCyn45FLIOBScdDXjuPA0zcNCttjV03MEwJy58WoRnfMFCbAXjPCQBsMEeekp7yhXHsxnUulGgbaKi6tqCIK4UW0fqBVJW7TFde7bJsuYZ52PGgEHnJOvf/O40zNbBCpauex7dIKTdq1+IrP6INWSnHObeed2H3l5vNP3vfOo0G21qt5MFury7BMIHGP9CC2kxUFY/koO8zplyWNDlonZNF2/Foc/LX4zHPJ/1DYLloz8QGQsCpvrvDXXSVuiFLsMG087Wdp8UHkGUfGJhaSFbQz4gPabutdXmlaFWHE0p8JzBR1SDwurfAB7bAc8eHpUlWgbY74lGz/SikuktGzbz/v7Tf7FiY3vXspCDhPsbPKpKkcLGGfwyNtiMMp0GxTJi9HP8l8FmgHgTbqRI+PiUMv2tl3LDnp8ch29cQVAuCYFGyoXS8RtDmZlX1bTTZODg+7kp3H/Esr/EBLKFkfQNupmdx5rIk4+5P0UhId7eM3jlPRddoU6pAMQpe0yL/Zecyxb31JM6sNO950wdLHfSuT977rJgDxbNzOckCLOfmcfMkkCAESClpGnWxAKzDIidQB8m7KAvKQuQnVhmeIuRfd6juervQGbF/9jVtnPvb7Pz7WuU4j3361IP7HBZzvaCsEbWZXB2wcHdWboEVgqugRUiDi/SmpLN4hzyHx+7iA2kJsEvQ0yuWQ5JDtMg4uGdUBtNrQcuUU/hUfm64QO7RZuoQrdWZTGUrvsk7D8fxbt5679FW+TZV/evcuMAl/Apm8r7XMz2YTlC5dAu4u+4ACrWPX9IziDHHI1z/iO6au9AZsO5dZjE+248ss0PlSFWiritbcoCW7OpCztBWAVoGMqRKxgbTJyQZa00vmAsS9xO4P2rg1RF9SEsTP8blpg4hbl+gUpsMRJCeviLYq0OIzZhqCFiah/ZSfn/uOn7sMrYGLje96DbQg/qxeYdBSWqf/XvUmKK0+sl8ELA21sqRLBWrOq/gR0ndjkCLKCNwiDvnGs3zH1JXegO2itRteBlH0HdpeJaaMAHGvQr+IlgdafCwKGEfrzuNw4zhaO4+rAm0OikV1KZff/RoidOexG7S001aSQ+IFWtppczskWV6uQ5LZVYecXBZpuJ7LWW2YddMFSyd9my3vfdfXQcJrsnwcOGBg4QCp2QSljg8WzSrz5V5xyDdK/yiBCdvVVy0HgI9Tt9XQTpjmp+Oz1NCtOJnNA8+eKakyN9rQc56H7beJResd7jwlfbE6qrnWOh0SF0SQirjGMZW6657a5F026dIobcwPBeVx9kRHZhy+Iz4VHRczIn/LnGqO+Pjirnh6Ce233nbuOy70LUnKd8+Ce+WDADDHer5WKZgTlRKOjjHHGYAm7avDKSCNn6NOq9Ek8ppAQIYCaa9LHhK2w6HfmC2ItV3f8e6lN2B77JqJq0Qkj9QL7EQM9QItDumRAW2ue+5ojXBZijokHqBVR8MG0uaIj+E+ojZSm2+lgZbn3JbutIVaqBrna+04Z6efrX7DZt8myk3veD1A68s80GJOKwOWvSDGojdkVB1ypCcEloYqOkCeD8ycoOVAlpgLHdIJ+UJx8H/9yHdsbekV2J54/o0z7n7kkUc7Z7TVTCXuPFbsMKI0yKDhcjXz8kDbhyM+1BiSUS0th+EDreIloJ5m/522wLO03a6gJEz65bc6gjokRPHpuHee9xm0uA3EGxrPOZuMyjRXNSpLwoW3nrf0rSEtkpvedTmAXKDbWLMsTjRLOU8cIGN2h5NPq9MLtJgj7lFniPPQXXnyAHmne0KcJQ7+xvtDxpfKo8B24dqJua22/OXAQKuMYSwcroedjbdj4ld9xKdU0FITqTdCNhnheVkOSaKY/kd8agTatCkZrbi6lGWtGLTk8ObqLek9LaEp6OYc07m1gZah8GVarJqU9XgbnvCbC5Y+7NscufE9B0Kr/WuQkLs1ioCNORBadZx81PhoeTPDkKuDAUEStJa83v1KMnjn63SF3ATlkKW8XRzyX0/zHV9behW2q646rgXwvSxDVTuPCSOmDZy/cXRM/EpA61oW1VwXl2em6BUiJ0S5cR0087JAm7x/HIav+MSjbdOlAYKWcv7zLiQ6vHUDbQGnrUxLVaOyIim/cvt5bzshpEly4zs+AUIsi/OWCaQ+b4IiIcvtFwPkPRm5bCYqS+cmqGT4sEnY/e0P4tD/2jtkjKk8KmxXXvX/WgJW9BSB/i6tKVD+zUfEYPQBtDSKbZ/Ly+VC7brrnGjOdXEpTVHQpk0lQNt9TsApp9jcj8CrJWHeZ6/vLhllJRXeNKbIIC7X32mzycj1GiKpMVdEkJxKimhJh6So0+bUpTLNVL3KCr7EQr56DO7d614AeGL42VnKudR/Z8As8741ATvKIkHrqDME0EqR1LxE2uu7bGzazq3i0P+aU6bmKbBdtGriawDy+N4EJcdCM19lg9YwkHRDcpu23BDBU5iQCDKObvtsV2jFOCOFuYyjBbTZI7eMuKBVx8gGWv4RH9N+03IgMJqzYaFHfGiXLCY3WXMyviXcn101aJUuVuSQlGmlalSWBHnabee+7WMhTZIb3/XPIOSFPND6gEVvTShoufmwOWLJ6wQmAfegfIHvubEgZCw6TBz0rd+EjDWWR4ft7wHkAfXbeUxDIuawGyLWEhTQ5cVkg4grWsvKKRytVQ7aLFojHRLtAdchsZ851kpxTS5lOGwOSUWgrcMRn2G4P7ss61S/crbdeu7S2aHNkpve0bkCUHsPiNkYBvRIu8fIG7Lb2OrMc0DLaFfszVo3BOasqhm8sPqF2Q2ibTI6WRz232tDx1vPl8J23lkTT5gzJR+sArSxCG3GMXuG21sSAQMCrSta8wBtzknk7jw2/MrY40B1wu2MDBdo3boUuPPYIsNYsFXtPPY44uMFWkInNMfN0BqnLtG6VpZRqmk5EoR40a3nnBh0HERueturAFr/pfYtFCxYgMGAGTm2el7Ks3ak682TXieRIIGGZRHQBm6CQuWh9PEaceg3/64sfUxhO3/lxDPHRXQz9z1t5dGadaAStLiOHNRuQxTtcMRPQh0SG2gdxjH4LK3iJSD6WP657MpA2y0Yl2Hasap1qVM9Tr5UM7hzrjJd4sipLMtUu3LED28998QXhTZLbnrHTwEguQIwGWg8sshVQUVceis4oGWkwWwQG9CUPfAAtLc8Cm+C0gRpyOg+ceg39w0dcz1fCtuFq65aAiAvomx+3hI4J70id8KIFfawB2wcGQ5+f95l4w3J5ohFTq4jPlrRakmYwchcWtpX0kqxACYDXfxfg9l57NoQZdtcZ5OR1p+S3tNWAdpUDVwOSVlWqX7lPB49sNtut1+8ZHtI0+TGtx0PovW1nhbbnKqsfMzx5gAzNB812T3rpCc+vfuaYwOwu46Lb4JyODbwiDj0m7uGjDmWJw/bjwHIU6iPD+Qz8yFSFWgdpKsoCjGuz7OMgtMhUewwNkEycJn/lddbM2+m7zaHxO8rPqrEQ0GrlcKZZCw5dRIRmMm8DmO04kcFnbZAhyT8Kz6I7ue6MJjXNWWZo1qWE0XR2ILbz3/LlSGtk3JZC+794x0AcIT5PpLSPf33wOVmVPcZ8CTnjCWv8ohRRw80QflC5cFpV87aSpiCQ781UwjqfKGfRqSwPXblVV+WIF9vZlcbyActAUTN88HtLa6EmQ5YDKR1t+iwHfHJZOgvp1DQJnVq2bM/pxdoabeuJF0qKaIlI39tvqH9KeqQ+Nmc4Uot5FduPSfsTG1X1ve+84MgozO7nfYGS5/PzqZt5EJJtwUe+XCDpukG5nRw6kDSsDZPIZ6zlM8Qc/+7lG/bZpHtyiv/DwCervbWBlraw45zYR3mRGsW0DojEdsmFhMSWu/ixqHVD2Ln8bCB1rVpLIdrzkRThsumS4PYeVySLhUFbU5fuZvr/J022t0YLmoGtfbWW89d+oygnB1T0vlm7dapuwDgCTa7Sm1u9L5i0AuWlDeNAM4QQC4N4sxlyQkwOp0OTOcq2wSV653ery5P/p+Y+9+rQnUgn68L23nLJsZn7RRtBQljlKD6syyKgzbTIfq5727R6Qlaxs5jxLkzdAJlHzYBTefK9JdokLqdtkGANhEQ2V0TxHn5KbbJ4nR0HvFXkYh5oRnCBrReJvPPD83evP89Z71/i1euvOne+LavAojXOuGDwYzjkOqRQWj0RkYZBCwNFnoA2glapCxWvzA7Ymm/InPM8ej9JteLw/5nfqgOGLA95sxrDxxrbe94YCjluaCNx4A2nsomK7Qq3Gh0fx3IWVpXtJabRpzJkdphnnHEddomI8wjzA9pPDqWEpSHXIekirO0bl2q6ohPVRuimiM+ZRisPpWxpTXeOuJnn33rPaH1yU1vfw5IuB4AWnEZTMPfT7Bozhhl/432e+UznVO+PAI+IJCKminv/Ljg/XpAHPbfTwzVAwO281de9cIWyB9gHljloLUKp/wjPlyAGMae4GNPZmVHIcMCWvumMU3aLock99zutAWC1um0VQVazWmzyKHrDDHlFCcLdW6tLpd741gZ1qeWZYjtEImX3nr+W68IbZ6cWDYOh99/JwhxGBuyoZc5xJGI1lQGaNB8DqdAKZZRR/AmqE47QpeNOe1C+knJQ8pHxdz/2SVUFwzYLlx51RsA5Bcxj6NsiOB2pHi0hgujpGMZpYG2iHHE82Y6YmnkSB3xSSYieSzVpkvugaRThG+IqmLncRWgzfxeh5zKsDz1LGMqkuJNt5934leKNE9ufPt/AMCb2aBlRbMYIALAgkdvSXct5YXkczmNqLNY+dlZ1XK4+7VNHPY/wbeGIbBd/3EAsVxXDj5oeRAZFtAO5ohPJkOunDI9sRnHUTriUy1oKb/ePLJhzBTMT01MSW5sim6IyhU1mNc1RRBU+7xTUop33Hbeif9WpKVy4zufDRDdACCT5eNeacQcrfSsqFZnSDSrTAoPuDujYGy2hUazFUb3AiL44v/MEMs7oXaxf90NUgtXrP83EPCWfFHDANoqjOOwgJYXhdhAm5SAzce8x0nZCHSJyDQsziXR3CC6o7VY37nOCE9GmRwsMXHQu2xFlxrQFrNUVeYWMAVSvvnWc9/25SLVyFtfPRN222MjAOyplkNAKiTyC4mC3dGb1u0kgxWYnCiYstB63j5Hs5lhQIYb6VcUPVsc/p2bi+hGJ28XtseuuvJyKeWC1FS6lEAZC6RxyOCa42Y1bQU2RJmKotaEKVIGCate5qTthAg7CskUslyIZMegSElXDNpuz1weLluXBrHzuCRdcoC2UwtfTqT3k2gn4bJ0f7bMOcvzokam5vmnotbYsbefHXZphRKg3LP0xyDE8+ygxS5kwMYGs6sWwCmVKsaHHHfru94QQLu4QW0S63t0z5R3r71R62RxePEPEsSwXXnlryXIQ03jiDSKbRwzyXNBy4tE/C6E54O2xJ3HAaA1JO00joTRzXlMXSOOWrqS3j86JhcfIAQI0vIHAdqkTbrdSuXp4bRZ5OQHWpecGtD6gF0CbGvL6Cl3nvf23/nkw9LKe5Z+CoR4b/asJFhmRlGrlgFe0oZY8prG2lEvNg8YbeuWGrpszC0fm7yeeTvJhfwvcdh3Xl1UR+Jl5JXrpwBgrLxozQZal4fNgwje8dBvifJBazok2KSKW8e9aMAftLQM44ql5QVDvUBLyokFWlwOmY0ZhC41R3yKGqV+5JcgfrVtfOvTf/XZ92wrWp+8Z+nzQcAPAURySZCud9xoFtHnUpeNqfmgA9MDSA6Hm9wkxupXSQ4L6XRg9gMBtJQbxeHf2b+onohFn7z0idH4zD+MGmhVMdqiEA2Kbvuck7kNtLwoZFhA29cjPopQ/N7TpiNS9M5jbWgN95HQkxS1necWQ9R97DJUitrSumY/v443lC2nohamhvmlhP+87U+7vRkuXtIu2jx548t2gH33+zMAzKLBotfCgBkJCATk+eLZ+TTLkykEIhKivcrPjD51Sw6NZh1gTFuNTVxu2zBOyM7L1s3isO/sVFRXxNGr1z91PILb+Et+pJVJ2hI/x+2IZeJbvY8+nH90BItJwNgH0BaI1obhiI/iOLp0yQ+0qeRKvAAl2GkraUMUMZtyE8xwA2Iddcyn+DEh/6JWpb75pZRi0W3nnbjO8iLTq/Xynrc9BAJ2xc87exr5Xs2sqK8EWOKevt3GBZ+d7fMmqBDnQZGHMnZbxdzvzPFSDCSxOOaMK+a1WmIie0Z70NyJPyygHczOY8I4WgwkLwoZ0ao4LwAAIABJREFUgiM+CmgJ7yZN04A2lhA9H+0RLe09TkvQSnnNrEi8/KYLlj5c1GimTLznbRtByCeZ5QV+lYZ0gBzQJh0rTj5KT4i8ys8ezkTfN0F5tC0dUOM/ej9MirnfmVlUb8SCletfAxK+nnOH1TKVyNo98asArcNsFD+W4XDwK1/uc0QibuM4BEd82KDtJPSP1twyyiI5fLgVRc+Cw3Q2mM/zDqrmI5DRQYRPENTXbUBb1Lx1J9aUjOBlt/159yvKWDbOgfaXIORco4UhUSk5/xnACAGtNzAx3We0rdsv7HgqI2+IHLOoBFEcS51WeXSXkdvisO+OF9VGsWDF+vcAwKdR2HqC1oAiqQj5VTAb6UbpKz4EQAqDtsiGKBtAXO+y1XHjv4bgRbTeumTRtZiccXtpbQvdXJdDouuIjxHw0M4rd3Nd6c5tUYtSo/wS5GljO+5w5s9Wv2Fzmc2Sm95+K8joaUZU4nKkdMctJTcDPrr2kmChNFyf6x51OvtFlMUCJjYHPNqWytA2u/Xycn9zAb119izx9Iu3F9EjMf/M9cuFgI8bZqhC0GZ8CQVtUgIms7xSosUP4nN51YK2UzouyXrtPCZxlza+oiM+/QAtOgjquJfnkBCStDgc2SPbnCtiSmqV9/PtNvzrHRcsvbfMVsUfgr/vf0EinyJ1AgmBATleFjhYnXMHpLhgyTsFSpFMCAZHsxgwGXWy5Zgr37dfUftZ4ohLbymiT2LBinWfBhCd6Db7p0AM8zwUd8KMGKyD2tu74Zj0kvTtY7QEgXb0jvhUAdrwncc2XXG9fwz8uIAFMH2LaAcAWsMsNaDtHLz53JSYXH3H2e/SvmBWxETGeeWNJ86AveEWaImnqrbSAca+RLMOSFnBYoGZL5C6dpkBR3QfAief1k+SMxRbkt9DnI5IvE4c8d2vFdGkDmy/ACDeiOmE/Z1R1nHcqcM7HNuE8kCril8Xpioa+6fgtLQuRVOqKtchyeymRU6uncdaVvVPm5xskb9WCj7wfKdN8dLjwri6lM0Xmy75XYDC1yX+WdpOmdz3tIQECu085smpiAkZbF4J8hGQ8gOyFX339nPeeV8VrZF3v28OiM0/AyFy72ibTVC6de3/x+7LBLTFYelUI9qni7mXfbSIfnWWkb8lhHylDtuBvTPyiGj5xtH1/nHIQJtE9vjN2CZIywGtJu0BgjZj9CBAq62OOOQwSNDy5FTEfAwyrzgvaskv7HXbpps2bFjeuZSnkn/yN2/ZG2aN/xQgt+uYFb0hxjvzonNtZQADzYe6ppm76goWqM/yeecbkU1QhvZodlTKb4kjLnlVESXrbJBaByDjL9F7RmvcKEQJYCxbVOybWMI/l9cc8empSGhEWwS0hFFIDYhfRMsGiPU9bbguVfG5vLhP5a6OsOVUxHr0M6+EjRFEX2y1xi557PEZP/3dF968terq5e+XvgTG4FIA2DGuaxDRLDZ/LIAOgSWrX0SdIUd6ul1iOBl5KKkQ0YbeUVa2vIOoDNWvfNJOGnmLOPzSZxXRuQ5srwOQf+MLWkMFSO8rf74+NBKpMlrLxNcc8aF2WmXjxpVRph8URLoKnArftBG4rsRqZtMj187jcF3qK2iVCVaRQ1LEclSbdzMI8SMpo2tAtm4Qrcnbbz3nnXdXW6Vautx04kdAilMBIPlUXiBo2VGpptPsfEaUlHTEA2YhgO7OQb0ORp1ov0LzEY58kYs3cLB1fn1YHH7JE4rooFiw4orbQcJfuI2j2gov4+g0kH7v1tShMY1nDp+ZOvDsc06WmPL3/FsKIBYZWT0zv01jJIbIJttk5Fpi16TtmphKVTY5uXceS5CRANHZUXq/BHgAJDwmQWxpSTlpV/rI/vHJ3Pq72sLkgUNX8LqzTJFxIx2y4M/+OmZcbie5kiWtjl1QETtRWl7RGRoht0mQW0CKzS2I/hDB2AMA8CDI6L4xIe/92Xlv/0NpFXoWJP/4TzvDtvGvgRDHZZ5gAFRIm+cAS/qYASByl6hHe13zGQNq36NZDKrUJNVtHUeOSflGUuWHSXH4JYUuthALV1zxOynhoLi6AIignkoed65IpCrQ8nce+0VrxCAjk8TUYxKTrGitk9sftJTnizgOdmXz+Awc4XEigOi8opdC3tmS4kYp4CbRlr8GkHeL9th9B24af+DiEu6v9bS3TfJpKgG5aelfg4RvAMAhvdlhu99as3Kq1Pq1TOoNSwwsPkDyAHlPIiQjHGWx82n2JsRhcctxCuZeOlMI23tQ+8QRC8684n4A2CsctIRhTa9npTyQbNDpFM0Rn+7wJZvGygbtgI74bAUQGyLZvkrI1nWt7fKW6z57wiPT1L433a6BBKQ8cQZsbH0CWvKDIGGsN+fMpjFAgwKCAbMQsLgBoXVBj/oo240FXfoKCmW1td+DnQ6PtrGWjS1jwJNjG+ZeOqMobB+RIHdGdV7zEPDAp3i0hs+3kjax2FhvBN2YkqU+Lh5XIl6UOXY2GdHOSn7SkzuPdd1WhIlNrszdpB1AtdDCkb+Ud0EkvyVAXDb16KM/vOmCpY/XwMY2TWgkAPKetz4TROs/ACDZ/BL4bjZxit2A5kZhheFgghY34Ll0RJ19XzZmOCexcczaThszYj1QH2dnncVhe8yZVzwuQJpfNCgMWjdEaA4OArRIexVW0SAOuRA+E6/NG/D7uICGyLyXYEw8q27mNy45J2h+F3s+sbxfgLwoEq2Lbph9509g+fLhernYgGikJSD/9O5dYMu2TyQffG82QZEXTegGwAml/I5YN8jzWtYtmlF+HrRmZINH8+mvWADCqjOCuZeOF4psjzlz3XYBMAMLiHodx+1tsWitCtD29YiPohdxb7hyKg7apDatwuxPTKE4Ea3aC2dEm0ueSKDjHayL2uJC+egj377pgqWOjUwjbc+bztVQAlKCgI1vPQFE6wwA2C+zwSyDa85yFBCMsmoNFu5NUFiAwuh7GVGpUbWHU+AN6O4SaARfuWyGWG7fe2lTeXHMmesi0fmuQWaLk/8yTLcWKZlCzfTHEq25zj9qQiwvWsvE4IRIrtLqLvewyMh6aUUR0Lo2jeXGHPccVF1KmS63SpD/KaLxM65fveS3NbSxTZMaCYDc+NZjAForAODZOWtAecmOCKnIWVHMNXdAKvPQkZEk8jrnMJXPA1z51gS/n+0ToEMgm51BjuDwv5khRPgKnQpbZECriNZozIRuiOrjxwUKRLRpVsY50Y6McDlVtcSuuTUuxYyfPy6lPH9sauxff3zWki2NPW8kUEcJyE1LXwKROAWE/DvDW3QCCYveMFgyABoSzSL2BvV4lR+930cmgVTo5/AYfe/WoAk7RB4uu1TmzVj5yz6EiGDuc4vBdv6Zl7cBRAs7kMoFLQ8iQ3DEJ6cP3IjWUCFSgUo6S6tVyI387fdC20CLTJKoe871gut22OckWH5kZVfl1dFwN20aDglI+eoxuGf3+dCCTwDA3xqtZm36wQBRdRSmLKvlmu0RbYYAiRWVIn1n5aOMFqdPilFO5OExBk5nigj9jH5FEg5/3njRyHZSSEg+jJtVXC5os+Mr+FQNjWhdFzJoPqBLCZPn1YGW8oh7OhTX3N/I3wu0bQnyO+0HHzmh2VE8HNCZbq2UvztxX5g59jKQcplyn3EqiEHsNvaAQ6+daRaPvC77VvkmKEaEGxLNekf3qSG3OCuULcZWBZJGF4Xt/DPWdZb/ZifrCFiwT+wuy+VgLotyQGuKABNcr27KCzRrKvtbonhEiw9gpl80Ru1naZNyye7SMgo/S2t4oz8TcvLNP1n1jz+dbga86W+9JSDvfvUcGN/zb6AdvR2EeHV8xWJJUVg6DThRmJaGDRZuNGuBmTdom01QWihGvLvPeT0lwPYhANi1fjuPseWDvHhC39Nik9DqauQGgYj8LV4oC7SeG6K0WDTfeM0qumSU6w++lNEp73Eh5cqfrHzt8nqb3KZ100kC8q637wbj7acBtF4HIP8ZQOSu0kPASOu3PfqpfJm0zCiMEVn2winWMnpJDgvb6TAc/GRs+hHd67PHuMRDwuHPL7aMPP+MK+4DiPZGY7KiEHHtPMYcwbTPodGa5q+4JplSDRF5anLAizTzZtmIclPF1+69VboQuiGqFNDeODUVLbppzes6d9c2/xoJDEwC3XOxmycPhHHxTJDyRADxYvZF+C4b0JuHqi/PPPMZGs1SwUTVYGk2QanmFXHM8LO+ZcD28rsA4EADti7QdjO4IYKnMEFaXrSWibI54hPyFZ/uwvM2aMk115/x2n8dmHVtKp6WEpCbTtwBtsOuMEvsBtHY/gDt+QBiMYB4am5mI7LhRGFMkJUazTqiTaVJmOHXuxoaCWPLxoOQB8UMvV/MthX6PKArmlXGrgTYnnn5rSDhaVVEazSKQzdEuaK1YQJtdXceF9x5fL+chIXXrz3+fwdp7bv31d6z484w1toZZshZELVmgxC7gpyaA+3xnaElZw2yfaNTd1vriuOiL+97wPTyAaDdbkGr1dknshuA3AtA7A9CzgWAIwBgFwWqzqiUMMrOfBgEi5yd9YADHdnkxoLTL2adpX4Oz+E8pI+ZbQu+cjHU6aDG2BnxlwDbMy7/idS3xnf7YYlJgyPapNxc0fyI1nUhQ7WgxedHqIwYoNUq5MopHLSdz+/Ia69fcfzfgRC2JYvSOSPvft8caIk9YaY8FKLW34MUrwDR+/JK6dVN0wK1ISXnsCO66j52GqZExpxohbI1oWdFOUYei4IZEOn2Spejpf2KplFGz6O9SlJOvk5z6/ABAUdbrf2y5PWWB7UT3aHz3SGWEo54QbF3tseccfkVAHBMqheFQFvkiE9OadG5QBLaMJ78nccEU9Kfs+fmuNpASzsr8Xyt2xEfGUmQ51+/4rXv6AeJumcgHz1wN9gmXwBt8VEQ4rn9qHd61hEKB8rb44AWm6tMOLC+4EKA0aiCWWepy8ZlwsEMTmIdZsChu7zKTKdPjGB5MOUdHM1i8mDWifaJocs9HnYutTj8+cUutTjmk+u+CUL+QzaGNogQcOoNVgIR3KgxNvoQjLJHa2ptfNCSlaleua7aCIjT7qdFWuSUNJBejatiiV1tj6Z3UxHI99yw4vhzq4RR907ah07aFba3XgPQ+iQA7F5lfU3ZiH6TjjQn8mAYpjwIvKOVAoaU9d6uiDxKcFgsdsMKUO/oDYtmKeef0y+ObjDLRyHrmTdIHpjTwYC0aigjOOKKzif2vF+k9GyRmH/G9z8vQbwplkPxaK1s0Pb14wLIhMDH1pRTltXmkNi+4oN7sVlpyX+hxbveZedKyeWXANuEHF903cpXTVQFp+671wd2/ktow9dBiM57ueZf5RJAlCQkWklNQihoGQaNDWjKOcYMqS5gDlQYRt8KTEs7vPLl2uENlqj+9zx79wm3i/zoXtcFpi6b8yWCr15R7EME88+4/NNSwntw7yp/n4UFIsFHfFTLb9ogF0SyHNydx3GNRF+0SWGkcjokwwNaALlVSHj2T1Yef0cVtl/KZeNw/6NvANE6D/SvSlVRYVNmIoGywcJ554c5gh6gxSdabkSJspz5kLlOzmFHe0PylQIWphyNd7MM5yFNwqmjBL3ylkcBvSq6bKzYE9n5VE8bDl9f7OPxR5/2/eWiJT6OAShjjxsieApTWGo6TJi9XpYP2li3Rgm0rk1jWV/zuiclbBMwOfe6lSfcUzajusvFf/jABwCg83WV7GtSZVfUlIdIQDeIHCNKAYkZARjvWLl1YhELMy8rSkfKYuUrAuhcnZnxJDRVb18RsHg4RPnWhMiD7BfHWclsuyqUEp0p8pUCIW++PNpwREHYHnPGFe8C2f4sphGxMxcKWnMyTU/QujZEhTskITuPO0vHkzI69OaVr91UNq/kve/vRLL/BgJyt/mUXUtTnimBEqIOJcrhQI8LFktZIZGOURyjrbEhczsn3RScfpXZJ8zpwNqL1TmIZWNPOXqPcdlOGMNp5OnHFByxfmaxj8ef/v0lIOAiXRMHB1pXtJa11Ll0nNNZbkRrqDk5EPwl9k4RuMvSX9CClJPbWvKIW8587e/KRJa8991PBDHrNhDwxDLLbcriSIADWsph1sHCMEx5IFkN6SCAhEWljL7rkFUcD9Qyaj/q87gPQGItGyPtQO2Zo73pY06/OM6KI8INATS685rRXm50L+WUeMqVMzgzkkojjjnjsnkghbJBxg3aIkd8TMDkG1fNzmNiwiFKZI6zBZMWEMfztz5HfCTIaAxaz/zxiiX/V0RhDNNz/8lfBRCviS9/b/71TwKYIWUYFxQslDvIAaZHnUZSZt6QIyzk3BwEWDhyxKJZ7LfAaLZ0eZTZpyLRPXZ2luk0ckHbCZUEbBVHXDmnyPwWx5x6xV/AWPt2xddgQgSvmHHEh2Qf5hURtbi8H4XplIenKjNepJk3Ew/RkQS0nf+pyREfKYU45vozl1xVRFkUp+jeDz8RWpOdzVV7lFVmUw5XApreFTKkGGjLNKSUc63XQdQZAmhUHtRc1W0O0wFgnQe21OmyX+hXi5gQMS7eYPS9L9E95jxg+sEcA9YmKMr2M/UvnZLRr8STJw7nzlAsnZj3iYk9x2du+2MqhgGBtlZHfFRhKHJLh4jxLpsLWhT56PxwbRrLMikbokC8/voVS75aRFEU0N538qkgxEeaaLYsifqUo4OWaZjQm488jXem/EiDS4RlzllVK2IYSJ9oRVFqbmSpw5mbL5euFNAyxr2QE2YBI24R0a+jZUnL1I9CN0HxdbeXstt08R3xlPV/7zNT9bQCli1rHTPr+dslwJjtrG3s+MQCw/0kW0RLKVrWG+s8zrXa+Z5WcZQIj06rzEhlcTjiR5SnmPRT8iNaPmhd77Jx0ALIZdeteM2pAMWvYJQ3njgDDtjlegB4ZhGla/KGSECHLNfIU/kYxpq1WcjSDnxiaZ1HABqSD52z1DzlANMinxBYsi7ewOocxLIxRzcKOg+GPJh1sqJZRCfZjgcxX4Q8Qzx5ohNgBP/rHs04+pPf/xUAHMaBCAlarX9qOoWAxmQrG7RxUxrQSoCr2oceduxNS/96MlhDkoxy08l7wri4BSTsV7SsJr+vBDigZRirbpLQaBaDaslACo5KGX3HwgS2AcbA4llnCKCDN0F5tk0ZWk5ejrPicAaD5IE4ZpyrK0P0SodSOzpBPG3DV3xnbj59F7ZHffLyy4WMFtAFxVEr5SfqD4cFtIY6kJOvt/OYlkA8l20bosIj/5AjPgDw8LZtjx98y6fe/FARBel264/vfTJEMzoRbe6LLEVLbfK7JYDoW4jhSHTT+/iL1QsmjLLxM8d4Y6tFjHwhsBwKsAwimu2DMxUc3fdpE1RvQmJ61ZZPF0+buM09Z+kUcWR72mUXgoB/xpNVBVrXsqjaGv6dx7yI1h+0lKeWtNMFWi071yEJBK2MIvHsG1YtuaWIcnSb/IeTXwIS1gOIQtvei7Zj+uXnRLMMA5kaDiwq0KWapPGOOkLzJe0PATQKWsoZ1iMxBshj7zkWkFUelrK85VjkXmNG383O5M8vasrA6VeZciTsK2vZGHNKGXNDlwftXEr42R4zxJKLke9F8i1THNmeftkyAfAJNFvRjwuQ7NMnAN1oPmipAVNcFmL+4A3N5jSlzK6I1jQoXNDaN41ppeT+jKR85w0rjz+HrwaEm7Xp5IUwJi5tNkIVlaRvfh20nkZNmQahy8YedYbAsttGTh2YIeXkQ2wBCmiHUaYNMH1RRrA8Am6CYvdJ6yfZL4ds+yaPwE1QheRB9r0tnjIx7juL9fRd2M477bI3jgn4glHYtAEtDmkuaDu5uTuPqwYtSPmzR+e0nnv78iXbiyiHvP99CwBa3wcQzZWLRQTplVeHLOE8ut5TpYrLgRLm9HLymU4k/aJJL48ypLqwOPKgnGBOvyz9VB5x5JGkcYIWK2sQy8acPuX0zyoPyxh4y5FywhhOIxu0HL1S5t528ZSJWV5TGUnc2yD1YpDyGuV5RaBtjvhoUTaqp6FHfGQ0KeUBRa9ilPef9EIQ41eDhLGiCtbk50qAYwB8og4EcKY3Hf/ibUgxsDCNNyuaxaJSZvnoESfPvGlyj3xOyBIRNEseSDtY+bjRbAXRvVOvCEeSdRMUZ64wHFVynA15bxFPmdiBO5OpdHFke8ZlB49F8Ns0keuIDzWG+ZkbBJGsmc0RH+qMVSZYXUYykm+9ftXxFxZRCnn/+/8KoHUdABT25Iq0Y/rkLdOQdsriAOL/b+/M4y4pynv/1Hnfd1aYQVAEIjEalJn3HXCBOMMoMkS9RgjGbZDFNYkk8cYbEcw1uAyM2wdwSTS592q8MdcsRgaD7HiTXAYBZ4ERJzJDIijKsA4gMisz77yn7qfPOd2nu/qpqqeqq/v06fPMH8p7Ttf2q6ee7/NUV/dJXVMZWMo+BIU5YILDVaONyvTw/HF3NHszZJZKbE/+aTpfWAY9BIXZszrPhLH3wZYCDNU2OkV+IRbdXPjlPR3YnvCVOycOeeLxvRA9a9sTCx9CPqLNXodFvP3ZNtpxyrtSQduVSyO20hgeeBpGaXyWtus4qFvH2Wk1aWQ7NKaonflTPrRzTuuFRbaP5YMfeB5MzL4DAI4YHdgNcqS+EbqunGrPBvBmbQcRQVOXc7me9eMLUGmXogfBuaJAsjhX47gC6+iTlXa6Txi7GjwkwzaMITMLqn/yLecAM+9DUI59y3SJUja55rti0drfKuopkvtxr/n0jVsA5GQTH/EpA7RRnQZU4z8eYsn8PU8ed3vSnnnxhsvPvdfXIKRcNQce3/V9kOJlvnVwORcFVLBQFr/iwJIihPtZqO05tOkDSy0gCEGBD5CSainjSl3jVK5A8NBxroSxh9gKN4LFok+leqhrBvOslCCMAHfvIExeIBbf8gWX1Y1d24ftp274JwB4uy528n+W1patZbtFP3ms6SliKPmg1YBJ7YT0+lmvR3y6nZLtazZcdrb3q8Q6v0H7+AVfAyl+t6hBcXmbAr6OQ1euarDoPAQCER9Ao+uP0KYWEAZ98o7BnGmjjwJhTh5r0/cQFGHsSa/VAIJiG6n+G/Uw9MNZR+ohKKTNQWT34zNT4kW3Jr8fYFvhuu8T2L72k9df3BZiFX5hWS9k8AWtJooZKGjzEW/WVHp/oTZrOhCl1II4sHG5e8Htl/3eTl8jkI9dcC6A+Hvf8lyOqkDZoC0bLA7Ou3LQOvQt5z6QQCE3pdj6pbSJZbOELEy7K0CAOxqwWNrUBivUcsQxoeOKGifMATkQU4MOat+QcgJmxKK1hR/7iXqQwPY3P3X92QACeVl9k0CLi96fQ1301gcp9T5tGNBm+4vdy5bQ/sLGS8+5gOru1evk9vOPgfZY9Fu0/IPvviKSyqmgpThqxF47RuBY1seR+sBSCwiKI3UcU0YaSllfB0zN/DQQ5G3j1OrwfHaWbFfKHBQKOpK69ojFt8wnLXHLRQlsT1193Qmi1boze70/aMt4xKc7fGRhIc4E9xX5sv2i4UCrILIrKVq93yM+qQrbh+5ZMO/GL5+2z8cY5M2rxmFyd/Szeyf7lOcyFAVUyHpE2UkRKmgLgiXTZd26QADqA2hytoI5Ug3gctPS65h1XJqgwDourJzvs8RUvUsBSxaMqHmr46IEOkW2jYuuF3UQhv5iQamEp8TkLYdSVrrtmv4928/862Gyvf+JfoG8gWa7iRlwXNoGkVQrNkPO+A2NISoiUUHb92GDAK3tXraiNuIoCme1j17wARDiSzYj4e99FaCAluCsOpf4HoIqG0jUN0Eh/fA5BJUJPAo60qQ4xQE7OH3SuJA2SeWoQYdl3jGwlKKH7pEvTWCTntKgeljWmV6PO8XiW37D1wOky2XeDvSbn7r+UQDxXPydoOnkbBCg1Rh7qaC1vYrRlPmbNFIydEvAgW8fQ/v5P23NWrPmTK/3dcqHPnQ0jLXu4+3jEMuI4PR9HEfH5CPjIAB5ID+HV/azs1SweDtSs7ZIgJudabVd30NQVJBjelBsI1XOeUy9srakSGejuXKEoLFTxnFchYMwXZvti8TiWz8bwktkYHvqp264UgC8VT15nO0GESKmZBENhrEsoDvE7jdYJBhL0P8ub0t4R7rzaelktGmt/bWjvA7Z2vQ6+T/ik9ZBXr3h0rPf5GsE8tELrgAhVvqW53I6BTA7pjgOXTm1rKEuZ0eK2Silr1QHjKxb1JHq1mHqcx8HbNQjsI6FginMlizzXkgPhznOTSGxrM+boLTAtLSZfE3pm2pTFrCLZ14oFm3sv/CpgOPLZrafvuGjIOWn0Me80sDTrI0EIjaG5TiHFMj4Af33SL6dIjTekb6dmjpaZ9BCe8OlZ3m/SlE+9qHlAK3bC9gNF0UVUIFJWfy6bMWxrJPDKQBLbZBKCAp8gOQ0LkdHmplDz3us/OysshI8D0H5BA9aOFsAagzCMmX3icXfmxPK2WVg+5rP3PAmOSOvSleeXUIZAiqmihk63k36s7RlZbS6yYj7awJt3lFRNfL9FZ9U9NDroLx/w6Vnv9DHCOSqVS14/65bAcRyn/JchpCFkB2HCufYLimgDQkWXdCJADR3KaGvqB6ENrWgNbRJd6TxWsovr3RikUw3Fkx4Apr8rKguEFNt0FcPwxw461jkEBTBFrA5Ia+zlI7G4C3HhSfF4u89O5TPy8B2xcXXLmqNte7pIwfBLqKLeVs021UqaLvDRhvLLhLte9TzZftzo5vcPkgH+YhPpxdaYxdy/7R82V1fOGuzjxHIRy48HVpwnU9ZLuMLWguQkq8J97PSTsfoEH0dsCYQ9clK84acW7t9RXWBhw9YCAFArKNP8NAZF2WuMP/l0LecI6aUTV1jBEvZ9hHVjwUoqfn0gWXGPC31q4B212OzWHzrS0P5vSxsV908pzWxZ1f0ay/ZYfT+Qhk1HCeP+zqHA23WLRWiHDdfAAAgAElEQVTRSFHb6ERh94ZLzzrIxwCklAK2X7geQLzCpzyXQYLPzEcUZ6jALHE4lLIFHak3WBydWjJExzFV60iRYyCU/oY8BKXzReo8U/qVEs/sP/SHj6z2oelH7mNCIFKb7F4TXHYCBfFhsfh7nwvl93K/Vfqbn7x+vQRYmos4hxi0/bU/CNAWf8QnM9lSXr/hsrN/28cA5OMfPgXacq1PWS5jAC0aoRMcpBa0hrLOjhQLAgl9K5L5FdbDJ5vFnGZIHanZLNIP710BEwg0GvWzCmTJhtYDq08FLXKNjx5O4yoYlHZll9AeO0osWftoKN+Xg+2pq6+/FAT8abcBbKHGTZeV0WoMTBEbD8JwmHbXvgm0FTziowlWzImRUkhC+9C9BV5i8diFNwJA4V+vCGV8w1dPaMdByADQdVgyLLXrRW03tB6UcRV0pLjjUEwRGxcBIiP9AwIEW0aDMEJA4VPOOSjt9aNfboeYvHVhSB+Vh+2nrn8rSLjSDFpbtpbKiynGnWE6Zuh9wOf/K44JCoC21o/49EbcHd5TGy47y+ttJnLb+b8Cs8YeDGk8o1VXLvAhPguoK1c1WHTBJgJQypolgYUwRiWITnkOfWbm7EgzDiazoLKNYP313TYmjD1pXA0gqGUp4zLU5axjEw5BkfW4X0ze5nUIVecXkcz2pikQB+5OB9Rq4TIORHUlKAO0usgpXnPd0ehcke+vHYV5ljbnF7674bKzvDJT+dgFfw8gzh0tQIYarQpMR2eYMUFCBoBms5gdkx2HHlzpb3y29zrdKqKHY1ktnA0Zkk/wgD7SQ5yD0vVQ4WwYe27mPU9Qo/NMsOVOVx3nOFMECQaxMcWfBbMP+b/E5O1/FMqDRPXkYHvGxdfO2zUuokNSAmcfNtF4l6o5eYxjsj/HeoxGTqIM0IZ7xCdrpwfGJ47a9Jm3PuJqAJ2f0Nt+4ZMA8CzXsqN9vQrZIo5DZ2kGZxLMcWSISlmsNAdJdqSYjkRwBX0zls4XqJ/7ZrPUMSnXkXVMlXPOSnsFrIGHBoy5jymg9YBsMkTHskY9DPOuK3dg5nhx/LofhfR/OdhGlZ/6yWvXgRTL8g353qdFBpthtun7/ne4LvmyVNBG46v2ER+kr7ZF018jezZedpbXr0/Ix88/BdpjfDDKaeWogHBc/JlIGwOtoT6bTegeqXAu1/NsVgeMQAQFhEWj5GtHLZ0dKQYWSpuhfw6P0CaqoyWo89HRZ47RbBbzmpj/Joy9s0YyIOitGkpZ33KkgGWHmLwt6P1aNLONPnz1JdeuGhPi4qxv8gWtbqEaXsOYKdIVFbcVDWi1RpLygJIO2mz72ELu12tcB6lRYO87zrEg05T88cbLzj7WiRex6W6/8BqQcIZP2dErE9pxUA7WYA6A4nAKwFK7RtR2Q+qBjQlb3QUdqRdYMNAS5oAMS6UuraMoIWDx1kNd/ZRs1jKfmSrVeSbonaZB5nKHslY92veKye+/OLTvwzPbS657PQi4qd/YcIA2mWbjyePuPQtqRksHre3QWH+G8e7hizEONWRbfP2Oz531u64GIKNbBY9duAMAvJ7NdW1vuK/H5oAAH+1hIceyxkhN40xKczi6INlxTP1FiZiGwUE6jysTmcZhJrFN321jBwef7gkZ0FgQRoVZAT1QB0UIGn3uVRe2D8c5INlV+3Ixua73RE44j4bC9tUfu+YFY7NaP+02Ex60Sq3Z0SgOBw9CMIF72W/Zj/hgtq6+7coSOVmz2sw66f4xPTZ2+F2fPfNx16mXD1+wCMZE8lYw1/Kjc70KWsdFnLELQgZAjtADAwldOoSx+jhSn+AhoyOhX7GO1mxFF6xQ2kCuKV2PVJs+Olr10DkytSDBln2CB+M8W+akbD3a+48US+4I9nxt7ENR2K5cecXYE8fN2w0As6k/LkAFiAtoc+agndRAoFUazE45FinmwhHrW2k8dXpm42Vnz/UBn3zsgjUA4m0+ZUejjApZjRMiv3pOdRSDcBw6sKgzSgAN2ZH66qhbdIS+oaCllvPNZh0zy1hyso6p+jNDoYwL81GUcr02c5dSQOtQf9r8guth6Iebjo+KyduPLMP3obCNGjr1kuv+UQp5dtIoNpZUj6gnj9H3HWuinLxGeCf682bo5JCdPFYeHXpo4+VnP8/HAOSjF2wAwa9nxLVTAVHUcTiA1s0BaF4wQ+yvTxbWWZPE+r0PuVDBEsyRdnX0GdfA9HCYg9ylxLJVbhsnXaL0LXWNUzld8EBoU8rvianvn+Lja21ltLA95ZJr3imE+EYcPJoqooNWkzUgQuK+KC8WFbRRy9T7tNlWsGixH67qbUCphbIQkqaUi4XcsPHSc5DT4ebplXLlGDz+/L0gYcJmCKP1PbLofBxwUg3hflZRIFHsB8u+0fiTEBR460FwaKpTKcWRavqRGxehv30noywTi47kclVk95qMPDd8SjY7bNk9tb9tgBl4izhuXeaX70L5Rn1mu/ral0iAHxre9tBdMjgV+/3LsApzcn1w5f8rfQzZE7SdSJYO2uy0+IJWqYXiKHWg7VTV/seNl5/r/EIK+eCHXgwTrf8MZSzNqEeZDNQhUh0wwTEFBwuhb75ZWGK2BBiT3iClCa7R18BSxoWtR0q5XqhNWYe5cVHrT13nEzzkpHKYA5sPRl+YgI2LEDT6BGFau6Lah8Mc+Mxx18dG/7sTtjzvWeLMNTNl+DotbJeuumHB3NbM06ZGqfcfu+PHBMvDFNcKL9v1k5p64zaHCrS4TrLdevsdn3v7Fa4GIB+78DIA+LBruWZejwV6Dos4FwlSQIs5YGyODf1wdqTYG4IsTi0ZWxE9KHBI9cMHSFZHquk/CRAh7UPnkwwaFdaD2ibmMwm23HW2iGuwzLt2XJa6nPToXWxdK9gYMvfu7xJT615elv/TwjZq8JRLrt0gANCfYxtd0BZ5xAdb0N2p1QYkEmDm6YPmb/rqGXtcjUBuv+D/gRSnupZr3vWK7oUcB8ExqcGlk+PoWYM3WNTZIzjIQnoQ6g+uB7HNjpOiBAEU+yC0SdYRCzocYWYFiy7wSNsHpg/SD1KwgpWjjomqh2EOnPVA7t1L+SGxZP0Xy/J/Fthec74A8YXc8rU5gtT31ANReJV4tNa1afy7pK/GA1H56D9bGxYpxVDMDE6RRqmFqJMJtACwf+PlZ8/2MQD56IV3goATfMo2owwW3BCcphYOjqD1cQA5/0TsL+leZCBH6hM8WMdVsiNV5xT9e1CHwohz3Lslll2blGACGxcxEPEBrZN9YP7UVw8dExCN8uPaB3v3HypO3OSc1FB9pRm2q6/5DSHFxkwsRARId21pBo9MRt4vlQhaZeEPErRanZJOtfdsvPxcv9c0PnbBowDiuVRjaNZ1IUFLdEy1OQRFdFbejpRYf+l6aPpBCjyUsp0/KePyLadzOpQ2e2WdgzesXPQZIWhE9SD0lawjNZvF5qXXDy89dI98yR+KqQ0vK9MHGmH7ms/862Ez03uf0MMWc2hIBpipIP6jX9YNtLpF0at3mB/xyUnTcfJPbrz83Ge7GoGU503A4wueAQkt17LDfb3OJpHoNjdQnSN1KOvlANSdFoJT6ywD4nWkw0yEuuruSLuHXJR/lHERrunUmrou+U/Hskb7MNTlY1do0EGwZR+7KqyHg465Syllba/jlBeJqQ2fLdP3GWEbNbzikmvuARCL8mvbBFoNEJEJwW0oX3d/nWPC9kGri9viEABdL+mFhFZveotWtgD1XnZXIc1Yko87zmPbxsvP/VVXI5CPf/BIaI8/7FpuuK/HbJKyEHWOlHA6U2tQBKdW5FQuyeEg6zCoI9Wtxd7nPg7YOi7NfJLGFdI+LGNPFlJBQPtAFg3ECIFI38laAhZl7Np5tqw9J/tQbUrDGDUoiv8273bsg7Gx54hFt+8s0//ZYbv6mgtBisupEOlKogdx+jt8XWlAq43kY3ncHvFREJmwOC+27XWV/ZqsGqWkIYI2KnHvxsvPdX4ptnzigkUwM0qvacQcAAW0unJlwrJnCN5gUa2UMM5CjpRQv7runRwppgexTT4ElQdjDtAELUnBii4oJdSvTWjKXGfkF5hsFFPrl5YJ2qhuK2xPXnX18S3R2pztiC6yoWRrGhxrnQHlVYxuoM2aDBYx9QFu9BnFfsUH43rvs24U2mt7yx2Xn7vE1RDkExe+FmbgX1zLDd/1WGDnuPgzBkHIAMjZLBZ4UiN0yriwcSJtjrQjpeioSRCCbhs72KRXEMaHoHKMIt27jygozheT6/68bN9nhe0r//Tqg8fniR19Lo8KaOmP+OBJN66TJtRIJfx9Zx9dKwD+fePl577E1RDkI+e/F1pjf+NabriuD+lIo7rKjLKp2awG0FYHrAGGN2gd4NCPTXv/5VDWOi5NXSRHiq1BSt98ywXI/DJNU/qqsytC0IgmOIQ2tYmRoazzuAoEpdEBMKtdJaa6F2DO4WLJ2l1l+z4rbKMOnLLq2n8BAa/NjSA1IDtENFdoJ46S0XajOcxNdoUzPeKT63xGa+XdxMo8ZGfSun2csRsMEGlvpegk5eY7PveOl7oagnz0gj8BIUqP1lz7FeZ6nYYOsMwAYhCgJTg1PIqjnZptqiPlQ1BKAofZPGEdeAdhhF2ApIcqMIk2T3rESReUEsae9fS3iqkNrw7jl8y1kGB78ieuPr3VEtflqnKCSIK/fjVW0Oomtu8pI5vBpjD5VMtULHKK+2gCsR9ouyNxBG3X2frB9pEPfRxardVVGFH1bSg6FnIchAyAt42RKaZkHgbnmvmK4oSp99+wNUapX/E1SRHHsj7lck0QgZGze4ote55idxoX5j8ddLTaBsYFh2w2bc0tOE8sXv/XVfgwEmxXrLr+CClmHlFSv86fXV1sEKkatL0+eYDW/Pu9FYM2GkZbbr7j8x6Z7UMfWg3jrY9XYUTVtRHSkUZ1UZxaSMdBzQqor1wMrYc6kxYH6eSA82sS8Qr6rJ23jVOTgz0qRoBZ5xJHm0+KEOpPs8AKTE0/vMph6wXrb85T7YBZTxwuXnTfvip8GAm2IKU4ZfW194OE56tstWdrOtDijqdvDyax3A5EKYjE13hvYHr/ke9Pdv3rAw7qyWM0wI0yW4Zt3kkUchyUDEAXqTk4HWfH4Zl1aB0ioa+ojpagwHlcvQJe5aiOVBlrod0Ogm5ksBjqctaj4kNQhUHroCPq/GzBn+3ZWStCrxFT63/HelWgC2iwjZ63XXX1O6QQf5fdUdMDRvuIjyEa7n9liUqkJP9cXtZtYIs+VpL+iE+nTttCSZrSjCX5OHPyuD+tsROUMOKwxWzMYRH3p7cHbLVsYGcY9NlZYiYcFCy6taeuHYc5sDpSTV2kcYW2D8yzGmzG4M+0b6Sy+Q7t8/dqPwhBY+xHcsOyrAPtuCzz7qQH5o8t9peMw3PbOK2DkKeLyQ03BGKptRoH2Pa2kskQ6V6IrzNc0K5d6MTujaUU0BY5eYwt9nTyrP8+/dq0/PpLhB5h2CraFXIcUeEKQOsNFlsUj6ymwno4tunkSHv99QGL9yEozONY4FA4eyMGRN5BmE5HyrgI16he2meOcxKUuc6o9+6t7HtQTK0/2npVwAvIsIVVq1qnwMt/BiCO1mA05ctGBbQ6B0i9l43opDrQkcxssQCliOMgZADkQ1CGfniBheKYMDsroodjWeO4QupBdaSh7cNXD4dyXkEYlnxQbNnzdoQTaFMDcipHDcKwICZANpvsdMm/Eks2/HFAllqrosMWAE7+xDW/IwR8h3IgCrctzDgDPeKjzE22pd5f2BrVv78xlwmV+oiPLsIeOdiGdKRExxQ063DIrqwOWJM1kbZXsQXhAIfEKeX+I+VUNPVZx6UrRwk8lGvU4DTpnaUucjmdY3HQ0icIyz3+ElVCaBMdl285S9buPC7MDxP6Fj/cabUrK+/iC9owI6bE8ev+g1wiwIVOsF2x6qpD2tB6KtcuEtnk58EEWt2k9hd69Y/4ZPtEBW23FEr13mD6iwa31ZwzGZFtZJ1mvg6YAtpU3ZU5Ds+sQxeMeTvgGjlSn+Ch032Kow4Ay5xUDjbpbFcVH4JCfHffvxv09SlHgiWiLekkugMNBXxfTK5/pUOJIJc6wTZq8eRVV98iAPoPAQ8UtL1VoPOZaMaSArgpaHd5FWOmfQ/Qah1ph9wjAFtMsyKO1OEHBHycYaGH7tV1iweh+RfIFNGDAocUUUpxpJr+k4AZ0j6Iehd9VaOXXXluG3faothHLpAnlisSsPTatOqBjSHgtnFm2cnfE1MbKn+7njNsV6y6+pg2wL2dvpNAixtC3z50xh8ngvSTx9masEl2B20+gNbDtNAjPpoTiG0Jmzc1+tEfXweAlaNks1SoYHarsykKzHwfYamzI80HuzSnH/kOx7nKBMZEvdMOlgwkzD4c58AKFl3goXaYAFBSsFIEllQ9DH111oN6794r4XwK9k4/V5y4adqrdIFCzrA94byvTMw/6oid0IbZ3Xb7Subk1hh4n9HhQIv2BK2+rEd8NAsy6YPlER9kEqOiUsrNmz7/TvfXNdb+pRZY0EJwLorN9c2P4rxT9SOBYn8KQjoO3bYgtmrVAKKIHpSymB6GICObHajLn5glUR1paPugAJoaiFFgSdXRM5vNZwFxdqLxJOmvdX7XoJHPerFCFtOorGw2keVLYmr9nxRgpndRZ9hGLb3qE995bwtELw3vKkoFbXLtQB7xGS7QdncrmwjbkI6UAllqdK4JmNDDKuqa83XAuiCNAkulrCa4tWabpThSnR4U6KlBh2FesAAg/qwSPXp9tYKFah8Ee0bHZbEXnznOyU6xySJ6lAxaAW3Y314sXrrxx97ELFDQC7YnnX/F3ImDZ+3J2HS6E1ojD3TyGFuLaeRrArcEtej32Q+pB6I0oYayxY5cZdOoF7lKiLaRm5LZYpClZgDYpBMcE/nem6EfPo7UZ3uvH4kqS5rg5HzA4jyuAo40t22sWaRq2O6jYylgMcyBj4656qIPCIHIQPQg2F/sf9Fx5eCQt+/Qh6AwKAp5vZjc8NsFeFmoqBdsu9ntNX/TgvZ78eAHX0hdf6BbZH10D8vJYztosz+Xl8yUAbRq5t8c2GKwdFjEuciuDoegNP23OpzQ2axjwOIMh1791nHp9CBABD3B72sfvuWoGTSmB7FN1P8RgkZyMBV6nVHGVSAIc/k5vEKo6xQ+TUytv7F4NX41eMN2xaqvz2nLZ+3Nr1sTaHXGPHyg7Y4EGWvykQm0eh3UgKQZsFUdgC7gsjjlztcExxRH2RmZHdssDUjI3FfpSIOMi+KA+RBUziWj2RtBy6DZrGUdGO0jZHBJvXfvBzak1I/F1Ppjg9XmUZE3bLvZ7VW3CxDL+76tLNDmI8lsS1hklQJ4LivCP6BuHXuDtp+2olOlgrZ3+RBvI4eOsimgTbWZ/CfBoaGAdsh0SNtgWHDm2DdrAGEIWCrTg/qC+LL1sGjro0euSkuAGNtVrhzFlos8S1y2XeV9svVsQOL1Sr43i3lXAe8Tk+u/5sHIYEUKwfaE8+6cmHfEg/tAQq+e/AT3g3ZdRNUbi8M7j8sAbcd0bFF/wnTNWJKP/U4edxPl3OiGFLYhQUt0TKQ3QensEPvZMnWdhYzsK3SkNrvWPaPpVY7qSH3tw7ecsracQJss/JRBEGEWdNu4hOAh53KIwYO1nC5QpdpHMMZFFe2EyTmHCrH2QNBaHSsrBNtOdrvqO7eLNizHopq+PYcDbXYKsUVAyWgRqNkcS6YpZDwlgHY4M1tMG6Jjyh2OiRSggDZVv5MTTdmBbf697ynqbMXBqfVNmvh4DTYuQ5CRcRpFwEK5j4444aDbpJiTx+zDcl2iia8euueqCfMeVA/LvPusl1yVhDF1TvRTrnMkGOly+WExteFzpEtLvKgwbE/4yp0T87Zt2wsCxtA8wHYgyiGjpYO2xr/io4jUMb/+/+Smerju2VKyDoLTVwKXvigGaPvAkvQmKE2bVoeDQUUX7VuCEa1DrIse1GwlUCCmXS9l60EMGoNms4SgwEePTLWUcfkGHS737ssgndwPhy08VBzxf3eXUbtLnYVh28luP37VPwiAc9INd+df51h7V8ruESP8qnxk2L8Om/i0SzZ9n22Nep+2WwpzFnG77ieP+z5Ur1P3Odt3DcFLLVTQUhawDkiUbJaavQV2wD5Zh3EtqP1TdfQAtBbOsa1SAgji/JHeBKVbN5axY2uODJZU3ZlmKOMqAhZsTIQ2fexKO886f0IZF8U2qDZZ+SGoPPva8iJx3IbPukCxrGuDwHbFqpvHZ2Z+uQMEzO0nagVBq8yngsiuHuga1i2yfIFBgpamk4zilc2bvlBn2AaAQ18M4jYpNscEh5Y2Gh8HnGuC0CYZDjqDJ7RBfpY4ZOAxiGwWW/Qhx9Sr3zrPVCARg0Zv0FJso4hdYXoQ2yQFYWVhrVevgGegNXa4WHT7zpJbIlUfBLZRS8s/+p3/NtaSf9H3LSbYdiCiyWjzEzxI0HZ7g1K9J3CYR3zQ2epm/jWGLQW0lig78QVEx+R9CIoS1esiOKKDQe85e5T1AbQxeDDMgXPQ4bItSLEPAkAL6UGwv0JBmG4Hj2DP6Lgs9pJ8TbGr1DXO9lFkvRDGTsJTwYva8oPiuA1/UbCWYMWDwTbq0ckf/84jUsojTBjtoKsE0GaQaIlMqRmtFrQZ/+B78tgUjHQXcHRFBNsf1C6zxYIPyuJHHGtnMihlMcdBKZdq0wssahvENn2ylUyGr65xQz+cHHBRPSiHoALZh9O4BmEfdT4EVVAPiw/VrtmBHYLKMfEX8Kzpo8VRm5I3HQajpmdFQWH7yo9dfayAmS0A+cNSSf8cDkRl5xuLtOJaTe88zi/8Oj7ik5m/Hmh7brFmsKVkK4RsIonqHWDmDEudzRDbtDocLHjQZMe2gEILFgPcnfXI7xp17Y6ixyC2jYmBDWm3wzAvPjryIagscuqwbZzukYCzxOT6b3lysZRiQWEb9fCVH/vnvxUA70Z76wDa7NLwBW1+gdFBq1mcycL0zWh1i76nWK+DcTP1ymxV0Do6w35sRHykB8vCHNr0gWWnSUob1OyNALMk8LBls0X0wEBLGSd12xjTgzB2DPZkPajZm6EfQUAbVUIIWEh2pfTVJwjLDZfQN9LJfI2O9clm4wW0GfZO/8YgfkbPROngsI0OSx2Y+cU2AHFEpuFSQNucR3ySDEPZmaoHbFXIGrKE7KQr0W9cjuLkqY5UU5cXaMv+zVmqI7VASuuALfPiDBbqs5G+9kHVoy7Z/SC2jSlrBQvCqGu0SBBGDDJMBCrjOymWiiXrNpZRdZE6g8M26szJF/3Ty6WYWA9CTHQD15If8UHtKmuk1Pu03VK6KD0Li7zvwhZG+geA8O91oO21NuBtZIoj1Y1LBSZ1cfbKGeEQ2AH7ZB2JqVAyBwwsIR2pYQ6cIRtn95RxqfZBsAVsjXWK+erh2Ka3HqqrJdy/RsdlGadTMKWusbiPDnPnpQdh7EXI5FtWwtdgav15QhjO3/rWXbBcKbCN+vTKj37700KIi8wHovJOVUFkwiF1nJkTwjnbVWqxfJ99cgJZCBnj7/6Rt0/dgqf8rGA3YtYswQHBFtPB0Rkm6z4qRymLOQ5KOSw6d3DepG0wFSoO9XufUi6oB26oylLC5pniSAPpoQVLSCClhHAGyyCyWcy2DHo4j4m6XjRtktZLQTL5FJewB8bavyoWb3zSp3jZZUqDLQCIV370298HgGU4hvxBW+nJYxJodY6XAtp+5o9NdvRSix984d0Vv9SC4kgJEOxcgoE2pOPI2xEeoekcRz6My8+DqocusPIFREg9qnCkFPsgBCOJfTjMQRCwEGy3033sOsJjLeRxBdDRWQ9svVD1IIy9bGKZ6pfwRrFk/bWD7IKp7TJhCy/94NcPmTdvwRYQcBTqwFJznJ1unQPtLuAM/zIVK7XkbAgxqqQpjQNNPvY9EKVzzL2Op04eYxpFL7X4wRerhC0FLITF2bmEujjV+SbU3xHL8x6r1pGq7WL24tC39ISSHTCWhTm26eyAqdvGgfTQL2DzQSNjOUM26K2HOoEl2Yd2XJZ5N45LU5biE7HDXnXNZuMpkvAtmHr9OUJcgjmdWvC3VNhGI1z6kStOGBsbWwsAB/VHnHWSYUCbX2z0k8dlgVaf8XZZgb4uI6ZwzJKKYKtClpCZxMBDoUJwTEXffOTtOBwyqf5ipp04VTUpBSwGJ+wMFj4ElbWGQWwbVxBM5QJTYpvoc/CWBKJytIlfwkFjLxTPv+2pypt2aLB02EZ9Wf5n334btOCbADCOZSP9qVMznKwXNwe2CrJtTifTFBaxx237ZrR20Oqv6C/4zmnk0jNbCmh1Cyz1eec/o/9xAK1PdJ4TzsVx+ICWWD8KWmpZzPYpOvbEsNk7eujPca6SwINgC8ZAzGEOzIteb2veeqh9I9y/Tuw+F3UqlalrxSOgrXS9EMbuAJvSLt0/8wrxsjvuKK3+QBVXAtsOcC9acwGAuDy6l4ubpAm0dXzEB18o/XVniv70B6ISUPXlKBm2Kmgd4ZBxwI5ljY5UU1fuY2KbpNPGWNBFrN/7EFTKjnz08A48KFv8mB6Y3Vs0choXFUiGfgQBLTEQIdmV0letHlQdHebAa71QdzsCUahQNfX4+TzKECqDbQe4H13zSZDiY4l/zvRQD9syTh53W9M5k/g75CqD4+h/5QvafJZSXmarQpYaZWOOg+iYhn7bmKBRKWAxOGFnsFAdaUj7cICDb/BAun9PDeAogQj15Se69aK655BznPcjtKcBqC8woaClgmtk+yqYev5KIdbMVNBa4SYqhW3U21f+2ZWXSwEXZk3LF7RZQy79WdqkORymnU+NPytoymhR0EYflpDZUhypLmBQMw+iYyK9Ui+ww/HJOoxzqPaPoqMF0EZYGubAGbLUQ35ONw0AACAASURBVFBIf7uGjTibMvUg2F86YPbWIz0sLGik6mHRp3AQVnbAQg3CCjMnVAX3wLw5LxcvWPtMqArLrqdy2EYDWnbRlZ8SABd1t5T1oDWfPPYDbbcUsjAyi6H7R+4qrdMp/oiP4V52QNhi46Y4UV10TimrwpnquLHo3KEs6fRkAFjGK9QHSE4OODV2Z7BQHWkgPbTjCgmkonqorhUDbej1grWp+cx5jqnrRTMHpPVSNo7I9T8GcscxYsnWXeQSNbhwILDtAfd8AfKyzqEpNIg1PeITGLSZ6nwPROki8d4sE04eqzF27+9AsKU4UkI2kUDFktWkwxVnx6ELwIht4lGSstxUPQhjT2qgBBAGsDjrUcSRev6AADl40AViVYOFEvjxs7M55tTtBwTsUHwKpDhGLFn3C/ul9bpiYLDtAPcj33y7aI1/DWT6saDu4jX7o+zCasIjPhrQRs+qbv7BF99b8KUWFLAQnBX55/CwrINQfwxoH1h2mqS0ETJbUUCDwVj9TJv1WeryATTJkWJ6YH2xaOs0LkqwUoYeWLBGCOBIdoUFHUV0dCjrtV6oux01ApaEp2GHeKFYPnygjVQcKGyjDpz0kStfBkJGb/34le60lgVazeJNDNWU0eJl+8G/LivqAwC/Ip/BKWFEVEEB2IqPZ5YKOVtR4RyPn+CYhv4QFCHD1epocZBOQMICFircB5HNOsAhdyklSOoVsoJFU1fuY+JZA2/QOowpmB7ENklBWI0g2+XCI/DU+LHiVbfvrFvPqP0ZOGyjjr7qI//wrBkx6yoAOGUwJ4/7Cw9PIPJG3PebBtD2Tkj6g7YD680/+HPfzDYFWxQQhMXZuYTomIb+EBRVD8J1vcAx/X9xMJldnAa448aYKo6UJTtSNaAiBBn5wcSHFRB/Y9DIGHQYoO2lBxYgEoJGn/XiFEyl+mAcF0VHahA2hNls17K2wvY5LxGnrj1ABVsdr6sFbGNhlv33b10Erc6jQXM1p5MSDRt68rg3vt4C6y744rAtFJ1TwII5Dko5araicSakQx0qVKiOSbmusCN10MM308mBltAmChWCRlo9LG066VjEPkblTVCG4CRDnKEEbWQtN4mp9afVEZ6ufaoVbKPOn/iRK184BjM3CBDH6jIAKmi7ZohF/3HN0Xfd73NXaZ0Q5eSx1yM+CGgLwnYsymwJUbz2hQwOZZ2zjnRAkZ5pYpv4hCn2r4KWAJ9+ONevywdIznpQwYKNYRDbxlQtsXl2KOujI/+AgOI6qTtTrvgo9fp9IOETYsn66BBtI/7VDrZdVaVY9mdrzo/EBoCFaWDUH7S0dx7r8aI6J9/M9oOrYayVvWdLeVay0zx1ceb6iiwKjWP1gWXHNCiOGguwKOWUsMsnC8tU4dimF1goczUIPVJtFtYRDYc1L6XBgjVCAEeyK6p9WObdRw+v9TKU2Wwk8r0wNrZCLLr94UZQtjeImsK227sVq74+55n9c/8BpIi2EeZYQZtaC9pX/CdG6/uIj27h9xT1f8Sn7zyyTtdzG1mFrcXhJNkbwTEFPQSFOSZMY89f+EGzUkKbaDmC0/dxpLlqKZAeRDarmZecR1SDMIJuSR2UeaYGcJRAhBrAYaClzFPGKaWUcihbWhBWO5TtASE+LybXRUlW4/7VGrax2sdf+I35c8dmfzs6QBVBt/s5Fq3H32ic6dCBtjPOgrClRtlEx8SHoBQnQAGLYQ5KdaRKu9q3m1EDMdX/UcblABWvoIP67KzOX5QZXKbqriwIw165qAsua8OzaQD4N9g7/UZx4qbovxv5byhgGyt/wnlfmRhfuPDL0IJ3AMD8zIxkfJ4exPEWae4Kw2LoJzkGo+05MvyKfLSevQ5z2PHoisBWefRHDVKSgVEcYkHHoRfcHO2XeghKhVGiOQ5UzOAygKDo2CvgrQfll1iwcTn0LSdDmUAqogeWBROCxv6C9phnRx19ginv9zxTdztqw7L9AHArjI29WSwa3kd6qGoOFWzTg3rFh795Mgj4ZyHEQpAw0fd5JtBG33W/x31dvmyfwabokP4rPvm2jaCN+rn5Lq9Hf6Jt5DRsdQ7YwZE6Ow5sbA7OygdIPvfekklx6JtXFqaba8ocUB0pBbQ6W1YDqpB6GNp0titqNous9Npk95gXKrBeyI98UdFQ2nXRIPeCbH8ZpjZeJAR6QKS0xgdZ8dDCNi3asj/9p7dIaH9ZSvFcEDCGJyDuoO37YF/Q5qP2bE0m0CYnqQPAVnWiUb8IGUA6LOlHHYi9apyyDyw7klGcPHINqZzi5JzGhelI6WuR7I36SyxDqIdXwILZB8GWO/I4zNXQZPfUIGyQmOkIPwNCXgfT8AHxkg0PDrQ3A2q8EbDtayfFCf99zYKxmQPnwRi8H9ri17rfDS1oIxPdfNeXfV5qEWW2oHmDFCWTCgkWQiYVz5MPoFFHSnCsPg7YJwvLbQtS9aA6UqU+sh7UwMOgpbMeugCTaJO5rlBAS9Ub04NgR2hQashcc85e3Q4ntln7bFZuBgGfh/bOb8HU1mkh8LfgD4h9lTfbMNhm9Vu58oqxLZMwdvAv9s+ZmSWXChg7CUT7JBCtRSDl0QBRFowvxK6/0i3SXjsOJ4+zNWEgS4UM6T55w/a/9R/9SZojOKZCjgNzpFTHQbwu90ywbzmPTCdpyrFNZyBRs1lkDD7ZfVKN77gcyvkEU9q1SLh/7aOH0zxja9lBD+/snjD20nES0V5sAyHvBhhbD9PT62D2rI1w4Kl9MLXygBCXYA6n9F7VtYFGw9Yq+sorxlZMbhEAK2DnIz+upRYHH/liufaSU51fUyYf6sE2yXIoDqCg47A6Uk3wwoegUqYqAabFEjjm4B9b7ZcvUBTYFEaRQNWE6UwNa9l5sITHnyPFmcPxo+11UbCWgKmLOMPcjw5sW9FLLSLAEbfovKLsAtks6dRloOzNKVtJtWnMSg0BjE82G91Hj8q14Vjx699i2A7zAuS+swKKAgzbhppEF7bKPVvtLRMVmJQsuAekYNkstq2L9MN7W1CTVZsCER9AW/XQjDM9LoZtQ1clD2uUFWDYNnT287C1ALQwWEICGstmiTDWvudZnejQWSnlkAs2BuQQFMO2oauShzXKCjBsGzr7Wdj6gsW3nC57w8QmbHF7Z7NYPyyf+QQdvtvvunG1BW8jN3Rd8rBGVwGGbUPnvgtbqfwQgUIFH7BYt0k1gLaWo2azhAw3ORTmkM1mqg2Zpev0MAQZDNuGrkoe1igrwLBt6OzLh/54NbTU1zX6HmbyLUd9QQUGWgfgxXPoEzxYs9KQ2X3UGOHZWYZtQ1clD2uUFWDYNnT287Ct+hAU9t5aQlbaucQXtEN0CCqxOyTDbbd4G7mh65KHNboKMGwbOvd92KacuU/ml2EBEYI+sEw4TLiHO5BDUAWy+84jTg7jYtg2dFXysEZZAYZtQ2e/C9veoz9GYIbcJh1ENkvMljvzXGZ2r+mHT+DBsG3oquRhjbICDNuGzn4C28LZLBVmlB/9xu7NYvUT2hzYIShidu+azabvO0veRm7osuRhjbACDNuGTn4HtiJ+qQUFEAW2SX2yt0L3ZqmAxrJZAsjRLNilTcIhqHQbCWjjORjje7YNXZc8rNFVgGHb0Lnvwtby6E8ydkpWSn2khwgzH0APZTbroYdk2DZ0WfKwRlgBhm1DJ18+9P7VIDSP/mTGTHnzEQJaH1gm3HE4LJTeXnX9PVLnw10Fsvsi28a5A18M24YuSx7WCCvAsG3o5Gdh28RDUJZt3UrvVVO26ZH++gQsPuPKNO3Q19ylxLLoyWtCgFW6HiFP5mvsb+LgOeJFN+5rqFvhYRVQgGFbQLw6F+3Dlrr9S3CG6K/0eGyTprevcyKqDhHrv6VNHyA5Z8G9PpAAEWhnwGlcFYAF22nI6UH4DeXgtwcsQYGTjvE8q4aqaWNiAcO2zo5xgH1j2A5Q/DKb7sJW/dUfzHH4ZiuWzNK4/Uto08cBOwPTd9s4Kke5z41ls8TgZCifJU5bdE8jUzDVkYJgC506lOuC20eg3R+GbZlubajrZtgO9fTpOy8f+sPVIKLfs81QT/FZFEdXl2dnLXAvJVvR7QpQdMMA4VHOZ1yZph3azF1KLDvK28ZqEMCwbahHLT4shm1xDWtZQxa2lCxMBxbi9pma1JAOMwXIVoKAhQgVynuNC2VhmB4embAPoK27App+5MoRtESzUqyc0mbwbNagrTXwUC/oZfITh/A2ci094uA7xbAd/ByU0oMubHunka2OFHF03tt7BGerAskHDjk/iTk/TaDgrAf2ukVLpp1sKDRRD2z7twebjOQh7Yqod9q2fOzKClld0NErOIthW4pDa0ClDNsGTCI2hA5swfboDzWbJWZXPoDWZiuWNgs7UgcIurzXOJPhO7SRwDn3H6kaDQFFKXpoADfqh6AyC055gQnDtqEetfiwGLbFNaxlDVnYEp2+DywTf+yQWWZ4Quxb7r3G1EynV79PNsuHoBTbxp7JJsxfULuyzLtxng199bEPbFwM21r6wzp0imFbh1kooQ992BKc4UAe6SFmy6VvC+qye4/goTMkit7K2H2y0kwVDm16bZNWvG3spEdqQE7legJ66WH4FadZz+J7tiX4syZUybBtwiwiY+jCVn30h7ptTHDe2u1fC6TI5YoAyTebjdr0fa+xY6ZdJLsPAlpsjjUBUO5S32dnQ9pVqq8+WSk6XZQAy2IfDNuGetTiw2LYFtewljXIh85bDYA8+pPurU8WNrDsjZoJ+4KWeggKAYaPjj5ZWE4CChx89dBl6SpoA+mRjI0A5NJ3OzSBkySMnWFbS39Yh04xbOswCyX0oQ/bgNlsIdA6OtHSsreA28aFsnSHzDKTBVMzaGyblNomBlrfbJYQJGkDD4vNOAUs1KAD6y91twMAGLYleLNmVMmwbcY85kbRha16GtnznqI26yAA1AdIQbYFCX3rjIsAkXQmlYCPWH/pbz4ywMxZRx2gCWP1ye4LZ7MEkKNZMDVgoe52pJYfw7ahHrX4sBi2xTWsZQ152FJebKHbPiM4WxVITtlKql2nbAWDg4MDru0jPYPQwzObLbTb4QC9yrN7wyEo04pn2NbSH9ahUwzbOsxCCX3IwtYTtOSsVIExuZzibJ1AS90WxO4p+mazHnDwzd4yTTkEO0Gy2ahxgkboPBP66mMfzuMqYB/kQ3LIwmXYluDNmlElw7YZ85gbRQJbUvaGQMRnW9AHlrmmVWdtcN4+Dpg0LgzQBIiQs3sLtI3jCqlHnR/pKTu71+yAkNeLxnEwbBvqUYsPi2FbXMNa1tCBrSQ++qOOgAQkLCutCEjOkC1yb5aazQ6ZHp3uqvPlm81qwJW2K59s1jm7p2azWH8dDkGZVjzDtpb+sA6dYtjWYRZK6IN8MDoglYYtAYSlbwum+uAMTKojpWwbY1oEyu6Tagh6pzPhKvXIvcQkapzQX+8gzCNgqSy79zgExbAtwWM1v0qGbUPnuA9bghNFsxyCg9RuGwfe6iS9NlHTJmlbsOxtYwvcnbbfe/OSq5K4/Z4rR8hmC9kHMbBJw76wHkSbL3JvVuc3OLNtqEctPiyGbXENa1lDF7Yy9Xu2cTcVR0Te3vMtl4J2ldmb9yM9hC3RdEaakZXq5LEM36Gss47UF1Rg2X2FejiPq8BuRxmgjaRi2NbSH9ahUwzbOsxCCX3Iw7bs7M3ilAe6LUgEWenbpBhkHWHmAyQ0CyZkwkH1qFN2Txi775pk2Poq1/hyDNuGTnEWtiFBSwSX96/0YNukxDaDZrMECJJ3BZS6qtomRWFJ2DYmjyvAbkdGGso81zCbTfsQhm1DPWrxYTFsi2tYyxq6sG3nt5FRR0pwcj4O2AgVA8ycszfstLElk0q2fwljV7eNfWCZGy6l3QJgQe9VE9oMms1ic0y9rWDoq7N9BD4EZVrxDNta+sM6dIphW4dZKKEP8sHfz55GJsOSmoWFdIZYNkvILGMIVn4IigCtNKCd4VBUD9WgCNlsp0nHcSVT5FvOAuPMMLDf0lXHie3gEMceag0ybEMp2bh6GLaNm9LugDKwRZ0oAWY+gB5oNksYkxYQFmBUls1ioCXCLOi2MaHNQvZBBW2R7L5i0EZDYtg21KMWHxbDtriGtayhA9vOSy0ITjOdhWV8IKVs6prKgER9by2W6VDGFCC7z7FEbTfkzoDudZyENr2zWWJgg2b4DnOQu5Qwps6jYpTrSli6DNsSRG1GlQzbZsxjbhTygd9fDYLw6A8KWgdnaIWKIYPx2V7tOFGKI1WuIWdhvuVS4/QZF/qiCXVaqcEDIaOrUg/fAM5HR/IhuZIWPsO2JGGHv1qG7fDPIToC+cDvrgaR/ok9AkB9HLAxmzVkP0EcKWFMnS4QryO9WMFSl/O4egWcy1Hfa4zMQVA9LNvBxnGFzu6p81ziomfYlijucFfNsB3u+dP2PgtbKiAcMkYfOAzVm6CojrsALAvpgWW9hPnzBq2jHuZsdgZk+2aQ8iYQrXug1doO8sAOmIYDMAHjcEAugFnwHJhpLQJo/xYIeC1I0eqOWJfdE8ZexVpn2Fah8lC2wbAdymmzd7oPW4sTImez2DYp5oDLzmYN9adlQcflG3RY2qw0u8fG4LttXLYeim5C/huA/DLs2rNWnLjpabsV9/C6+fj5MLFwBYD8IwB5eqbcoLeN1UEwbKnTOnLXMWwbOuVd2Bp+9UcLiJAOGAO0ZdsxmQ/qIRddpoNlfobPfPTINU3Jrnwz4TofgkqNG9NRyusB5CfE5K0/KLrc5OblS2AWrAIJbxvYISjTIBi2Rae4seUZtg2dWvnAe1aDaKVeaqE6RMdtwSDbxsQ2+RBU1iqDPtJD2Bnw2e3IVBvPs9wOM/A+WPK9awV+LN579cmtS18HsvVNADisl/961xW0IMM2qJxNqoxh26TZTI2lD1tL1pHOJLP7c/2/Kt0mVbdEXQBdQTabYxWlf77ZbF0OQVluF2CBmIR/hWfa54iX3/p4WUtM3nvMbJh+zpUg5W+X1YZzvQxbZ8lGpQDDtqEz3YVt6jSyzzYpmq2kBTOAxjkTHrZtYwpkUwJ66YEFD4Stau9DUISsVw3OMLsS8n/Drt1/JE7cNF3F8pJbXvElgNYfA8Dg/RnDtoopH8o2Bm+cQylb/TstH3jXahBj3W1kn21BZzj0GvIpRz7kooCGPC7fckVgWUQPDOS+h6AIACXrqNSFB3B/Df90yx+KS6LfsKvun9y69IsgxZ8MHLgM2+omfchaYtgO2YRRu9uBLfRgS3qLlO92cxEgDUE2m2MVJaMdwW3jjk7yRlj83DOEWDNDtdOQ18mty/4ZJLw5ZJ3OdTFsnSUblQIM24bOdB+2hG3HoD+HR8ik4nSb9Eo9BG7e26QUUBYJHrBs1kUP1RgJ2WwXcogVWz4Lm81GndgOYuYYsej2nYNcUnLLsnsB4JiB9YFhOzDp694ww7buM+TZP/mzd62GVvo0Mub0MbBYDsMk/SmSvVEggkHWAVxxP7X3qi11GbfDQ96rLnIIqmw9qIFHpEf7WLH4th97mmuwYnLr0heBFD8CgNnBKnWpiGHrotZIXcuwbeh0Z2FLyXIsMM7opHvmUxUTyaqbms3m5KNkm3V+dpYaiEXjlH8rFt/63rosJXn3SV8BIc8bSH8YtgORfRgaZdgOwyx59LEP28BZmPcL8ynZLAJ88nbnIA5BFcnuh/oQVM8ie2OYbh8qjr/tKQ8zLaWIjE4l3730FyDEIaU0YKqUYVu55MPSIMN2WGbKsZ9d2KZ/iEABmdP2KnU7UbOtWXk2q+lHTsOCh8JyvKRks0W2jYn1e/+gAnWe0/1of1Usvu0PHM2z9MvllmX/EwD+sPSG1AYYtpVLPiwNMmyHZaYc+5mHbYEszPuF+W3kvUFEYFR16Md4bxaDdu8zK2g148x9TMz4q9IjM2TCXB3Yd4Q4bsNjjuZZ+uVy20lz4Wm5AwSMl95YugGGbaVyD1NjDNthmi2HvsoH3/0xaMMnu0VU0BKcKFrOAB+1b6RnZ+tyCKoKPUJuG4e8B49l9+Sdgf2w6NY5QqDPljlYazmXyq0nfR+kPKmc2jW1MmwrlXuYGmPYDtNsOfRVbnvXB0DCl5IiPtvG1uwNc8qjnM1qIIXqiBweywUsjkGAMSsNCegku3+fmLz1aw5mWemlcsuyzwHABdU2umO2WLJ1f6VtcmNDoQDDdiimyb2T8sF3vhPa4hvZnIPg4OOM1md7lZTNIkDqtEUBi3INuRw1uzdkdF56hMxmCdmmjx5GQFv0aLV/RSy6/WF366ymhLzvpGNgn4yeu63u3/Y5E+LUtQeqa5BbGhYFGLbDMlOO/ZQ/fc/JMNb+XrcYBWQYkBzK5kBLaDM4HErJ3hTlCePqyIYFNoRgx/veLAHGqi0YAwjNONMf79kzX5y4aY+jaVZ6udyybDcAzKuo0baYWj9WUVvczJApwLAdsgmjdldue8cx0G7d6wRa67axJlOzlkNAgEKFAHcfQPtkpb6POKGHyWp2CCqUHotfMybEJZW+A5lq//F1cuuyh0DCUa7lvK4X8GMxuf5Yr7JcqPEKMGwbOsXy3pXPgVlztmeHZ8jKfBwwadsYaTNo9mbJ6JLmiRlpkVdXkn53FtOjSFZKGVfqGp9sNte9XiWLb2vV9XBUAtsty9YDwNJKlrkQfycm172rkra4kaFTgGE7dFNG77D82Tv3g4CJbgnCtqDpukyznoegfLLSpOsUqKTG6RM8eD/iVOc3QfWEKEOPoYDt0psAxOvpq6bQlX8kptb/r0I1cOHGKsCwbezUAsifvzPaRkZeyl7AAZOyWQTu5G1jBao+gK5dNovpYQiAMjZZth6GrNoG6KGA7bIbAOANlSzzFrxRLF5/bSVtcSNDpwDDduimjN5h+fN33AoAr8qW8H2vcZQcq7fnCNmmDywz/l9tw9KmD2h97jn73pttkh6Lbx+CbeSTvgcgT6avmiJXipeLqXV3FamByzZXAYZtc+cW5APn/jNI0ft9TyybNWQ1QbaNCTBO2lHvK1LLUrJ0rK7e2G3ZG7b9Tro3WyS7V8r6ANpnXK6Hwr51+1jVPxLvulzllmX3AcCvu5bzur7VfrZYvPFJr7JcqPEKMGwbPMVy2ztPgbZc27lf65W9YdksEdB8CErZUHAMHozZvWUOfLL7XJWE/k4smCNedOO+Oi8huXXZDpBwcCV93Ds9S5y4abqStriRoVOAYTt0U0bvsLz/PXOgNb0HJCjzTHCkEPIQlCGzjIdTSfZWJLvHAhbCIz0+4zKC1jB3QbJZYjAV2YeYqXUmJzcfPx/G5+4EEBX4OXm1mNrwJvrq5CtHTYEKjHDUJK3XeOX9594FAl7a7RUFshFUiNepQyWVQ/rhA6SqsrdOd1U9dI+WKtc19lBYb/wzM8vF8RvX1cvi+72RW5ZdBACfrqR/LXGGWLzuukra4kaGUgGG7VBOG73T8mfnXAkg3uoPWgJ4fWDpm70ZyxkCCq9t9CHIZivVQ9ntEPC4mFx3ON0aq71S3r3sahDwxkpaldPPF0s2PVBJW9zIUCrAsB3KaaN3Wt5/9iIQ4p5sCQygvtvGBBgnjVd9CIpyeEoDaNIhKGTs5GxWadcnYDFuG4c+FKbZMh8bWyAW3b6TbpHVXSm3LIv6dVDpLQqYgcfmzOF3Ipeu9FA3wLAd6umzd15G92t/fk4UcT+ve7XqhCveNnba/lXhbMhcc1IUORRG2TamgtYSjFSpR04+YqBkeuSrLd4ijlt3ld0Sq71Cbl32pyDh0kpaFfKDYnLDX1TSFjcytAowbId26ugdlz87++8AxDtooCU4YDQL8y1nAajzoR8sm9UEGSRA+x6CMmSWcbvBs1mDltZtdO/djmmQOw6q28/KybuX3Qeiokd+xtovFIs23k9fkXzlKCrAsB2BWZf3nXU0jIvU/aSKs9mEAQQgp7Nvp6yv14gVKhogVfkrPVXqESyb1YEcAFrybWLxhm/XZSnJrUvfDyD+Mn8Kv4weil0w+bxDhFgzU0btXGdzFGDYNmcujSORPz/7FpDw6u4zt8hWMpblpT8jZ2FK3VpghtxeLQJaz/cak/VQIDUUelDsI2McbZCt54gl634x6OXUuW2yZdmjIKCag1sz4s3i+HXfGfS4uf36K8Cwrf8cBemh/NmZpwGI671ebjGQR3qwTMoAaOftZuyRnqhNwispyXpgoPXN7ql6YIEHsc3OuFxBG5un/BeY3PD6Qf8KkNy69CqQorrnXeWOg8WSrbuCLFKupNEKMGwbPb39wclVq1rw7nt+CEIcl/pUGf0QHvqpcts4eDZrAajPNnquSipoCUGGba1I8QGxZN1f2i4r6/ve9vGXQUKrrDaUej8jptZ/tKK2uJkhV4BhO+QT6NJ9+fOVb4N2aw3pmduROgRFyOhqk81igMayWWomTL2tQLS0Vvu3xOKN3yVeHewyec9Jr4e2vBoAZger1FbRnOlDxK9vetp2GX/PCkQKMGxHyA4697PuP/MOEHCCPrvVba8SMiSfzM8ne6sym+0wizD2jqDY/WrHsj56BMtmdSB3XiSnian1NzqX8iwgf7T0ddCC7wCIeZ5VeBSTnxNTGz7sUZCLjKgCDNsRm3j50zNfDQJu6Q7bFw6jfAgKg6eiZSMPQTkuFCn/K0xt+J9l38OVdy97Dwj4CgDMcuxhscufFvPE8nV7i1XCpUdJAYbtKM12b6zy/jP/EUCenRn6yGwbY1vGWOBBzUgx0FLL9q7zOdxF+iUnzWEn0mn0AAtDym9Ae+KD4vjbngpQW9Zcr4AxmFoW3R/+g8p36CS8RyxZ/39Cj4nra7YCDNtmzy86Orlt5aFwAP4DAJ7TTXAd4RDXOnTbxoQXVAyDHrnYgDJ/1GerAy8IAQ+DFB+Gyed9K9SzqHLrSW8GKb8GAIcG7q29OgmPw5r1R9T9f89GgQAAFiFJREFUd3ztA+ErqlaAYVu14jVpT95/5tkgZZThIj2yfDYU26TpYVGzWSTDRfXBsllq2ZS2Pvdnve5XU997XaZxyq0g4JPQnnudWLLW+VEZKU+YgP+YOAPa8hMA4iVl9tRQdxvGp58rjt30xIDa52aHWAGG7RBPXtGuy5++7e8B4Nx+PQTwFspmHYHks706VG+CourRu85ZjwFls2bDfAZAfhPa8loYE3dDe+fPsVc9yptXjMMhe18As+UUtMVpIODdAKLa+7L5cXxaTK3/WNF1x+VHUwGG7WjOe2fU8s4z5sGhs38EAC+0ZrhOWdggsjfq7876HgqjZrMWgDrpmKorCGh1h7sGuAiiX8yR4ucg2o+BhL0gxByQ4giA9guq+dF34tgF/LuYXD+ojJrYSb6szgowbOs8OxX0Tf5k5XEg2tEPgM/XZrjBs1kDkKzbpJrsO/cx4f7sQO5VY2M3fOalRx22jSsw3qqakHI3zH7yMPGi+/ZV1SS30zwFGLbNm1PnEcn73/Y7IGX0M2nC/3EgLAsjbEt3c2wksSaWzQGTANlOk8T60/dsC2eljm06Z7PRuIjjd7aSkS0wDTDzMjF1x5aRVYAHHkQBhm0QGYe/EnnfWz4ALfhSMpJKDkH1GrFmb5pM2CubNWTVuWlUt8MdYZlpyqGslx6czQZfhdEWt5DvF4s3fDV43VzhyCnAsB25KdcPWP70rZcDyAu7yZwDHHKXq2UNdXllb1h9hHf7+mSzydjK1gPL8IltcjZbxiqWAOLzYmodvyWqDHVHsE6G7QhOum7I3dc5vuWrIOXv568xANRne9UKWQ3wfbaNfYIHY1ZqgaCPHtaARacHIchgG3dVQIIUfyeWrHu3a0G+nhXQKcCwZdvIKNAF7pu+AVK8o/tFyKwU2zYmZm/ofV3C/cnaZLOYltRtdE0mT9puZgN3VIBB6ygYX05TgGFL02nkrpI/+Z2/AhDv12a4PtkbCQ4IWHyy2Q7bHEAeD9RpXOo9XUtwkg1rChwK42y2pAUZbR1/XUyt+72S6udqR1gBhu0IT75t6PK+t3wcRHt1LsP1AZLXtjF2SpmSzRqySBV46b+Dbzcb4OsVePAhKJvN+n8f3fgWn+WXVvgryCXNCjBs2UKMCsifvPF0AHENALSyO8p8CKpaPQhBBtuyrwIHoAXvE4vX/61vBVyOFbApwLC1KcTfg/zZGS+AA2P/CSAnnE4pDzybJWS42iy9hENQXtks9uws1jc2VE8F9sH0zAnipfwcrad+XIyoAMOWKNSoXya3rZwL+/ZFL2BXfqBbk+FaQauBWe5jQkbnc2824bDjfV3ncRU5FMbbxiWvu/tg1hNL+M1QJavM1XcUYNiyIZAVkKugBe8643+AFH+gzXCt2ZsmK+NDUNl5yD07y9ks2VApF7bl38CVG97HP5VHEYuvCaEAwzaEiiNWh/zJaS8GGW0rx/+KZG8VHoJyOtiV2oJ2zmZ7Za3lsG1uzmZLXU6dt0KJ14jF624ptR2unBVQFGDYskl4KdD5xaBD4FYA+fJOBVawUB7pia4hHLzy2TYuDNoKtpvJ4/KaMi4E8G8g57zJ5/d0WTxWoKgCDNuiCo54eXnP6cthDNaCEAUOT0UiUu7NYpkg9pkCxoE90qPb+kUCCvR3eEfcuMIN/wAAvBEm139XCNTQwrXENbECGgUYtmwahRWQ975hAcDYXwLId2YroxyCwrJZBKDkrC/VZuFslgDydFrvk91Hvt96n7vwFI1wBfKr8NT4heJVt+8cYRF46DVQgGFbg0loShfkfa8/BmD8X0DKX8uPyfPebId3jlu4CSMdMsu4wz6AtsJSF3QQtsybYhyVj0P+EKbl2+GlG+/N/25k5Z3hBlkBPo3MNhBWASlXteCnd/4mtOUVAPCsbuKHwcZ329gCXh9Y5hJYCgSLHArjbDas1WVqewpmDpwJxx20Voi10fYx/2MFaqEAZ7a1mIbmdUJu/i/zYfbY26EFfw4AB/dH2JBDUNZsNkfw7uEvcpbePJsoeUTPQEu+A8YPvU686MZ9JbfF1bMCzgowbJ0l4wIuCsi7VhwC8+acAwIuBZAH5cv6HmbyLadA0CkTLpLNYqDVbXO7KDzq18o9IOH3YGHranH0ur2jrgaPv74KMGzrOzeN6pn8yWsXwoHW2wHEZ0DAYd3BqcD0vTerySJRBSnApBzswtrUfcbbxsGNWcBDIOV/hVlP3sRvgAquLldYggIM2xJE5Sr1CnRe+7h35xsA2p8CgMXJleTtVfW0cUhAGwDqddKYs9kS1sLNIOUnYWrDLfwYTwnqcpWlKcCwLU1artikQOfVj2f9l2XQgg8AyLOy1zbhEBSDNuAKmAYBXwQ58w0xxT8YEFBXrqpCBRi2FYrNTeEKyAdedxTsab8NROtDAPL5+asoz85aHvNxujfby3Cth6Coj/ToMma2CKMCAtbCtPwrmD5wgzhx0x5WixUYZgUYtsM8ew3ru5Qrx2DrL5bDmDgHhHw3AMzNDLHDtrK3jSn3dE3bzZTHhho2cWGHcy8I8dfQhqvEknX3ha2aa2MFBqcAw3Zw2nPLBgXk/SvmwL7x14OQ54KENwPAOOm9yZ06KcDkQ1D1MUDxExDtfwQQ3xGT639Qn35xT1iBcAowbMNpyTWVpIC8ecUc+JXx02Fm5i0gxOkAsNCa4RbeNnbIoPm9xm4zLzrR0F3QFleDgGvF1Lq73Crgq1mB4VOAYTt8czbSPe4crDrn1FMB4DSQ8nUgxBKQ0ZvQKPd1se1fShas2zbmR3ocjHEHgLwZ2uImgJnrxXF3bHMoy5eyAkOvAMN26KdwtAcg713xPDgg3wwtOBWkOBkkPLurCOXeKfa+ZkpGy2+CIlhd9KrEH4CUt4AUN8ATc24Tp/LrEwm68SUNVYBh29CJHdVhyS2nLgXRPh1ALgcBrwAQB2u3nL2eneVsFrUtIdsgxY9Awh0wBjfCwumbxFF8gnhU1yGPO68Aw5atotEKyHtevRxE+w0gW0tByJeAhMPziS8xm+2821iVa2RfubgLALYAyB/CeOsmmDX7JvGCtc802ph4cKxAAQUYtgXE46LDp4C8+6RjYHz8dTAjTwUBLwKQLwYQ8/ojoT47O0KQFTADEn4KAv4T2vIOEOK7MLl+o+gedOJ/rAArQFCAYUsQiS9prgLyipVjMLXtRBCtUwDEcgB4AUj4VRBwSHfUI7ZtLOFpELANQP4cQNwJM63/B8e97jYhLsF+E7G5hsEjYwUCK8CwDSwoV9cMBeR9yw+HfTIC8KtAyEUAcAS04UgQMjqANdzrRsIMCHgSALaDlNtBiLsB2htAztwmlmx6oBkzyKNgBeqlwHA7jXppyb0ZAQVk9JjRPcunAORSgPYSaLcmQchn9Z79PRigFR3Imj9AIEdbu7tByJ3Qhh0gxC8B5BMA4j+gBXfD/ul/h4ee3iJOu49/83UE7JWHWB8FGLb1mQvuSUMUkPe+YTbs++XRMAPPh9niV2HmwJHQaj0X2uIIAHkYCJgLUkwAtCdAiBZIGAcJLWjJ/nqMNm2FiPawo1O+bRAQPUozDRIOdEAK4nEQ8Di05XYYaz0A0wcehImxB2DR0duEWDPTECl5GKxAYxRg2DZmKnkgrAArwAqwAnVVgGFb15nhfrECrAArwAo0RgGGbWOmkgfCCrACrAArUFcFGLZ1nRnuFyvACrACrEBjFGDYNmYqeSCsACvACrACdVWAYVvXmeF+sQKsACvACjRGAYZtY6aSB8IKsAKsACtQVwUYtnWdGe4XK8AKsAKsQGMUYNg2Zip5IKwAK8AKsAJ1VYBhW9eZ4X6xAqwAK8AKNEYBhm1jppIHwgqwAqwAK1BXBRi2dZ0Z7hcrwAqwAqxAYxRg2DZmKnkgrAArwAqwAnVVgGFb15nhfrECrAArwAo0RgGGbWOmkgfCCrACrAArUFcFGLZ1nRnuFyvACrACrEBjFGDYNmYqeSCsACvACrACdVWAYVvXmeF+sQKsACvACjRGAYZtY6aSB8IKsAKsACtQVwUYtnWdGe4XK8AKsAKsQGMUYNg2Zip5IKwAK8AKsAJ1VYBhW9eZ4X6xAqwAK8AKNEYBhm1jppIHwgqwAqwAK1BXBRi2dZ0Z7hcrwAqwAqxAYxRg2DZmKnkgrAArwAqwAnVVgGFb15nhfrECrAArwAo0RgGGbWOmkgfCCrACrAArUFcFGLZ1nRnuFyvACrACrEBjFGDYNmYqeSCsACvACrACdVWAYVvXmeF+sQKsACvACjRGAYZtY6aSB8IKsAKsACtQVwUYtnWdGe4XK8AKsAKsQGMUYNg2Zip5IKwAK8AKsAJ1VYBhW9eZ4X6xAqwAK8AKNEYBhm1jppIHwgqwAqwAK1BXBRi2dZ0Z7lcdFTCuFyll0ueLL7544Gvr4osvTjokhLU7/c7XUXnuEysw5ApYV+CQj4+7zwqoCmRsPgakCY5bt27VrpOVK1cm9W/ZsqW262lqaioD0zVr1qCWMTk5qYVuDG8E3AxqXmesgEWB2joHnjlWwEGBHEAxeKrQjEHpAslHHnlEnHDCCaSuPfzwwwNbX0cddRQZgA8//DD52hjaKqwxSEdwZjCTTIUvGgEFBuYMRkBbHmI4BRI7jTJRFaRpiFIAagKmDpBTU1Pw6KOPWtfLk08+ab0mnCy0mg477DASTJ988kntdRi8N23aBEceeaS2DAZmIpRJ/aWNnq9iBeqhQO0cQz1k4V5UrAAJpjaQHnXUUTl7VuFpgiYVlDt27BBHH300SaLoWtKFAS9asGABCVbbtm0D6rU6YB9xxBFyy5Ytmd6rYKZAOc6UVRgj2TFpbAHl5KpYgSAKVO4IgvSaKxlWBTr2ht0njbPTCKi6bV0VpipIDzvssJw9mwCqg6YOkEceeSRQ4Llr1y7rujr88MODzOH27duN9Rx00EFWOMXAfeSRR3J1YTC2QRoDs5o1q0DWbWVH2TERxNZxBhGcK2EFPBWwOgXPernYaCuQ2NWqVasyNmaDqgmoKkx1IMUgqkJSB04VlDoomoD67Gc/O5n93bt3V7rG5s+fn4HOE088obVEE4jTEMeuiyCswlkFswnKKpBNMMZArIOwkgkzgEfbD9Vq9JU6glqNnDsTSgEUrDaoqvdN01lqGqo6oC5cuDBpVwXp/Pnzc3adhqMKUBWcMSx1oNyzZ4913ezdu7dzzSGHHBJKZ3I9v/zlLzvXzp071wqbefPmaa+JwK3CGgNvDGb1OxXIVBinQaxuU6czYiqEGcBk0+ELS1TA6jRKbJurHk4Fkq3g9EGlCK66LeB0tuoCVR1Qsaw0BqYJpBFEMYBi8IxgSQHlM88809Fj4cKFxtmMrytzyufMmWOE69NPP91p3nZddE0EbAzWGJxVKKvQ9YHx008/nRtLGsLpTNgEYM6Ay7Q4rttFAYati1qjeW0OrqasFQOreigJy1YxsKpQxYCazkoxmKogNUE0AqIKTQySCxYs6FiCD0APPvhg77Kq+cXQ3Llzp7NlRmV37NiBllNhHEFaB2gMyiqQTTDGQKzLiLFt6ZAAvuSSS2LAW3cEnAXnAiOvAMN25E0gJ0BhuNq2gTGwprd+TVC1AVUHUxWkKigjgJrgGUFS9/2+fftI6yi+7qCDDgpqdbt27erUN3v2bCskTNdMT09ry2NwTgNYB2QVxmkQx/eX463qdEaMQXj37t1J/+ItaSqAXbNf3noOaqJcGQCQnAQr1XgFtICdnJzM2AiWuZrgSs1Y09u/MWxVsKazVAyqaaBSYYpBFINn9BkGSeza+fPnkwxm//79hdbfrFmzrHDdvXt3ri8YcCNgY59jn+mgvH///qQ/NhDbIEwBcDoDTt8PVreg4+w3ff83hi/2WFK89Zx+DImzXpJJ80UGBQotdlZ2qBVAAYvdd40Bi91vVbeEbXBVs1YKWGfPnp2xUx1UseyUAtOJiYlM/WmAquBUATlv3rzECCjwHB8fD77m9uzZAzbwpr+Prk//U8umAa3CVoWy+j0G4nRWbIPwvn37EmCrWbAKYFP2S4FvfN+XkvUyeIfa19Wi88EXfi1GxZ3QKeCcwcaATd931QE2PhWM3WuNM1cbXNWMVQfWWbNmZWxXhaqacaaBqoNpDMsYoBg8dbCkgDYN5miCKGV0E6kCUgUoVk4H5AMHDuQy5PjauF4dkNOwNYEYgzCWCWPb0RiA0/eB4+1nFb5Y5qvLerEDV+ppZ8542bEWUYBhW0S94Snbmef4mVfdASc1g9UBNv0cawxY9Z4rti08d+7cxN7iLWEKXNWM1QRWDKrp7DQNVBV2KkgxGJpAHGk8NjZmXVPT09PoNXPmzNFa1DPPPJP7bmJiwrqNHBWamZlBr1OBasp2VSBHZTEQx1lxGsJp0Oo+j9rGMmAVvrrt5xi+6n3f9N/xPd8469WBN+qLmvWq4N26dWtH0zjjTd3jJc3J8LgO7mkoBayOIVRDXE/lCnhnsfE9WFsGqwMslr2m77eq28Lx3/F9VhWuuqxU/VwHVTWLTEMV2xZWP8MAGgMzDUgdRHUzP3fuXK/sNgLd3r17nQwqDeYY3CqsozrVDDYN1bhB9Zo0iDEIqwDWZcARbNWT1XH2G28/q/B1yXpj8PpkvLqtZjXb5YNVTmY5UhczbJs33aR7saaDTmnIxvdgsS3iCKqm7WEdYLGtYXVbOAZpestX/SyGqy5bjT7XZaLR52moqkCNwBmD1ARRXSZ74MABMXv2bKN1ucJZrcyU2e7btw/Gx8fRLEuX6apAVutPl7NBGANwGtIRgLEsN/2ZCl8183UBry7jVbNd9XQz9mhRDN50tstbzM1zpKFHxLANrejg6nOCrO1erApZUxarOzVsy2DTgE1vDceATZ8Ajv5bzVxVYOoyVhNYbVBVYapClJrhmraIXaBrAqxpqzn9XboODMoYjOMyUT3p8iYAp+Fqgq+a+VK2nWPw2jLe9CGrvXv3doKP9D3eENmuCbqc6Q7OIdatZYZt3WbErz8i/dNz8T1Z3WM7MWix7WIdZLFTxGnI2rLYeIvYlsHqAItlrxS4RuWi7dronwmsaaimgarCNA1GyhZyVNesWbO0sxp97zPluqx1//79neqw77Gt5Oja6HNsa1kFsQphG4DV7BeDb3yNLuvFwKtmvOpWc3prOX2PNwaven83OlhFha5vpsv3dH2svFllvBZ6syQY6tF4ZbMYZONDT7YDTxF0KZBV78OmIYvdgzVtEacz0xiwpsNNMTgpcNWBFYNq+jMVomloxtvHasZq2lamQlcH2QiM6X9q9qoCOIJyuq40OON6MAibAIzBV5f5UsBLyXjTMHaFLiXT1T1CFEPXdJCKt5aH2rcG7zzDNriklVWIZrPqc7LpE8a608WmbFa9JxufKPbJZG2QTd+D1W0R6x7PsQE2nbmmr41mK8pQTRlsq9VK1gkG56iONEhjcMYZrQmk6ndYFhxnq7qMNW1xaYCqWW4ayDEY0/C0ARiDabo8lvmmt53T36vbytEY4s90h6zi+7npA1bxZ1ToYgeqTNClnmA2QVc9ucwvyKjMR9aqof8PFMdTlcOJlykAAAAASUVORK5CYII=;fontSize=12;" parent="WluIBgOTPswMCycSyDNG-1" vertex="1">
          <mxGeometry x="1164.32" y="170" width="45.68" height="50" as="geometry" />
        </mxCell>
        <mxCell id="klmHpVOLdIdvyRMCxQKT-0" value="" style="image;aspect=fixed;html=1;points=[];align=center;fontSize=12;image=img/lib/azure2/containers/Container_Registries.svg;labelBackgroundColor=none;" parent="WluIBgOTPswMCycSyDNG-1" vertex="1">
          <mxGeometry x="1162.1499999999999" y="390" width="45.7" height="41" as="geometry" />
        </mxCell>
        <mxCell id="klmHpVOLdIdvyRMCxQKT-1" value="" style="endArrow=classic;html=1;strokeWidth=1;strokeColor=#000000;dashed=1;startArrow=none;startFill=0;labelBackgroundColor=none;" parent="WluIBgOTPswMCycSyDNG-1" source="klmHpVOLdIdvyRMCxQKT-0" target="zRtnDMCVjwvyI3if9jCt-6" edge="1">
          <mxGeometry width="50" height="50" relative="1" as="geometry">
            <mxPoint x="1584" y="344" as="sourcePoint" />
            <mxPoint x="1470" y="344" as="targetPoint" />
            <Array as="points" />
          </mxGeometry>
        </mxCell>
        <mxCell id="klmHpVOLdIdvyRMCxQKT-2" value="image pull" style="edgeLabel;html=1;align=center;verticalAlign=middle;resizable=0;points=[];fontSize=12;labelBackgroundColor=none;" parent="klmHpVOLdIdvyRMCxQKT-1" vertex="1" connectable="0">
          <mxGeometry x="-0.1217" y="-1" relative="1" as="geometry">
            <mxPoint x="-4" y="-1" as="offset" />
          </mxGeometry>
        </mxCell>
      </root>
    </mxGraphModel>
  </diagram>
  <diagram id="XkVPKPeDepV3T68hhhLp" name="DQ">
    <mxGraphModel dx="1194" dy="927" grid="1" gridSize="10" guides="1" tooltips="1" connect="1" arrows="1" fold="1" page="1" pageScale="1" pageWidth="1169" pageHeight="827" math="0" shadow="0">
      <root>
        <mxCell id="0" />
        <mxCell id="1" parent="0" />
        <mxCell id="JGZBHPkDL-rnXCfV3uWE-2" value="Ingestion" style="rounded=1;whiteSpace=wrap;html=1;fillColor=#f5f5f5;strokeColor=#666666;fontColor=#333333;labelBackgroundColor=none;" parent="1" vertex="1">
          <mxGeometry x="381.24" y="278.38" width="100" height="32.25" as="geometry" />
        </mxCell>
        <mxCell id="JGZBHPkDL-rnXCfV3uWE-3" value="" style="endArrow=none;dashed=1;html=1;strokeColor=#000000;startArrow=none;entryX=1;entryY=0.5;entryDx=0;entryDy=0;exitX=0;exitY=0.5;exitDx=0;exitDy=0;labelBackgroundColor=none;" parent="1" source="JGZBHPkDL-rnXCfV3uWE-2" target="JGZBHPkDL-rnXCfV3uWE-2" edge="1">
          <mxGeometry width="50" height="50" relative="1" as="geometry">
            <mxPoint x="123.15000000000009" y="111.38999999999999" as="sourcePoint" />
            <mxPoint x="171.70000000000005" y="111.35000000000002" as="targetPoint" />
            <Array as="points">
              <mxPoint x="330" y="294.63" />
              <mxPoint x="330" y="601.63" />
              <mxPoint x="580" y="601" />
              <mxPoint x="580" y="295" />
            </Array>
          </mxGeometry>
        </mxCell>
        <mxCell id="JGZBHPkDL-rnXCfV3uWE-4" value="Passenger Data" style="pointerEvents=1;shadow=0;dashed=0;html=1;strokeColor=none;fillColor=#505050;labelPosition=center;verticalLabelPosition=bottom;verticalAlign=top;outlineConnect=0;align=center;shape=mxgraph.office.servers.sql_server;labelBackgroundColor=none;" parent="1" vertex="1">
          <mxGeometry x="233.83" y="290" width="45.35" height="52.75" as="geometry" />
        </mxCell>
        <mxCell id="JGZBHPkDL-rnXCfV3uWE-5" value="" style="endArrow=classic;html=1;strokeWidth=2;strokeColor=#00994D;labelBackgroundColor=none;" parent="1" source="JGZBHPkDL-rnXCfV3uWE-4" target="JGZBHPkDL-rnXCfV3uWE-15" edge="1">
          <mxGeometry width="50" height="50" relative="1" as="geometry">
            <mxPoint x="608.25" y="516.9001976284585" as="sourcePoint" />
            <mxPoint x="684.1255100000001" y="718.1379999999999" as="targetPoint" />
            <Array as="points">
              <mxPoint x="390" y="316" />
              <mxPoint x="390" y="377" />
            </Array>
          </mxGeometry>
        </mxCell>
        <mxCell id="JGZBHPkDL-rnXCfV3uWE-15" value="Ingestion jobs&lt;br&gt;(autoloader, &lt;br&gt;incremental ETL &lt;br&gt;and batch pull)" style="aspect=fixed;html=1;points=[];align=center;image;fontSize=12;image=img/lib/mscae/Databricks.svg;labelBackgroundColor=none;" parent="1" vertex="1">
          <mxGeometry x="424.0499999999999" y="360" width="34.38" height="33" as="geometry" />
        </mxCell>
        <mxCell id="JGZBHPkDL-rnXCfV3uWE-16" value="Mobility data" style="pointerEvents=1;shadow=0;dashed=0;html=1;strokeColor=none;fillColor=#505050;labelPosition=center;verticalLabelPosition=bottom;verticalAlign=top;outlineConnect=0;align=center;shape=mxgraph.office.servers.sql_server;labelBackgroundColor=none;" parent="1" vertex="1">
          <mxGeometry x="233.83" y="399.63" width="45.35" height="52.75" as="geometry" />
        </mxCell>
        <mxCell id="JGZBHPkDL-rnXCfV3uWE-17" value="Survay data" style="pointerEvents=1;shadow=0;dashed=0;html=1;strokeColor=none;fillColor=#505050;labelPosition=center;verticalLabelPosition=bottom;verticalAlign=top;outlineConnect=0;align=center;shape=mxgraph.office.servers.sql_server;labelBackgroundColor=none;" parent="1" vertex="1">
          <mxGeometry x="233.82000000000002" y="532" width="45.35" height="52.75" as="geometry" />
        </mxCell>
        <mxCell id="JGZBHPkDL-rnXCfV3uWE-18" value="" style="endArrow=classic;html=1;strokeWidth=2;strokeColor=#00994D;labelBackgroundColor=none;" parent="1" source="JGZBHPkDL-rnXCfV3uWE-16" target="JGZBHPkDL-rnXCfV3uWE-15" edge="1">
          <mxGeometry width="50" height="50" relative="1" as="geometry">
            <mxPoint x="289" y="327" as="sourcePoint" />
            <mxPoint x="434" y="387" as="targetPoint" />
            <Array as="points">
              <mxPoint x="390" y="426" />
              <mxPoint x="390" y="377" />
            </Array>
          </mxGeometry>
        </mxCell>
        <mxCell id="JGZBHPkDL-rnXCfV3uWE-19" value="" style="endArrow=classic;html=1;strokeWidth=2;strokeColor=#00994D;labelBackgroundColor=none;" parent="1" source="JGZBHPkDL-rnXCfV3uWE-17" target="JGZBHPkDL-rnXCfV3uWE-15" edge="1">
          <mxGeometry width="50" height="50" relative="1" as="geometry">
            <mxPoint x="289" y="436" as="sourcePoint" />
            <mxPoint x="434" y="387" as="targetPoint" />
            <Array as="points">
              <mxPoint x="390" y="558" />
              <mxPoint x="390" y="377" />
            </Array>
          </mxGeometry>
        </mxCell>
        <mxCell id="JGZBHPkDL-rnXCfV3uWE-20" value="Standardization" style="rounded=1;whiteSpace=wrap;html=1;fillColor=#ffe6cc;strokeColor=#d79b00;labelBackgroundColor=none;" parent="1" vertex="1">
          <mxGeometry x="658.74" y="278.37" width="100" height="32.25" as="geometry" />
        </mxCell>
        <mxCell id="JGZBHPkDL-rnXCfV3uWE-21" value="" style="endArrow=none;dashed=1;html=1;strokeColor=#994C00;startArrow=none;entryX=1;entryY=0.5;entryDx=0;entryDy=0;exitX=0;exitY=0.5;exitDx=0;exitDy=0;labelBackgroundColor=none;" parent="1" source="JGZBHPkDL-rnXCfV3uWE-20" target="JGZBHPkDL-rnXCfV3uWE-20" edge="1">
          <mxGeometry width="50" height="50" relative="1" as="geometry">
            <mxPoint x="400.6500000000001" y="111.37999999999998" as="sourcePoint" />
            <mxPoint x="449.20000000000005" y="111.34000000000002" as="targetPoint" />
            <Array as="points">
              <mxPoint x="607.5" y="294.62" />
              <mxPoint x="608" y="500" />
              <mxPoint x="810" y="500" />
              <mxPoint x="810" y="294" />
            </Array>
          </mxGeometry>
        </mxCell>
        <mxCell id="JGZBHPkDL-rnXCfV3uWE-22" value="Standardize to &lt;br&gt;snappy parquet" style="aspect=fixed;html=1;points=[];align=center;image;fontSize=12;image=img/lib/mscae/Databricks.svg;labelBackgroundColor=none;" parent="1" vertex="1">
          <mxGeometry x="678.3799999999999" y="360" width="34.38" height="33" as="geometry" />
        </mxCell>
        <mxCell id="JGZBHPkDL-rnXCfV3uWE-23" value="Delta Lake" style="shape=image;verticalLabelPosition=bottom;labelBackgroundColor=none;verticalAlign=top;aspect=fixed;imageAspect=0;image=https://delta.io/static/3bd8fea55ff57287371f4714232cd4ef/f3063/delta-lake-logo.png;fontSize=12;" parent="1" vertex="1">
          <mxGeometry x="629.9999999999999" y="510" width="53.61" height="52" as="geometry" />
        </mxCell>
        <mxCell id="JGZBHPkDL-rnXCfV3uWE-24" value="" style="endArrow=none;dashed=1;html=1;strokeColor=#0000FF;fillColor=#f8cecc;entryX=1;entryY=0.5;entryDx=0;entryDy=0;exitX=0;exitY=0.5;exitDx=0;exitDy=0;labelBackgroundColor=none;" parent="1" source="JGZBHPkDL-rnXCfV3uWE-23" target="JGZBHPkDL-rnXCfV3uWE-23" edge="1">
          <mxGeometry width="50" height="50" relative="1" as="geometry">
            <mxPoint x="354" y="751" as="sourcePoint" />
            <mxPoint x="354" y="701" as="targetPoint" />
            <Array as="points">
              <mxPoint x="600" y="536" />
              <mxPoint x="600" y="800" />
              <mxPoint x="1470" y="800" />
              <mxPoint x="1470" y="536" />
            </Array>
          </mxGeometry>
        </mxCell>
        <mxCell id="JGZBHPkDL-rnXCfV3uWE-25" value="bronze" style="shape=image;verticalLabelPosition=bottom;labelBackgroundColor=none;verticalAlign=top;aspect=fixed;imageAspect=0;image=https://delta.io/static/3bd8fea55ff57287371f4714232cd4ef/f3063/delta-lake-logo.png;fontSize=12;" parent="1" vertex="1">
          <mxGeometry x="734.38" y="570" width="42.27" height="41" as="geometry" />
        </mxCell>
        <mxCell id="JGZBHPkDL-rnXCfV3uWE-26" value="" style="endArrow=classic;html=1;strokeWidth=2;strokeColor=#00994D;entryX=0.5;entryY=0;entryDx=0;entryDy=0;labelBackgroundColor=none;" parent="1" source="JGZBHPkDL-rnXCfV3uWE-22" target="JGZBHPkDL-rnXCfV3uWE-25" edge="1">
          <mxGeometry width="50" height="50" relative="1" as="geometry">
            <mxPoint x="563" y="749" as="sourcePoint" />
            <mxPoint x="688" y="387" as="targetPoint" />
            <Array as="points">
              <mxPoint x="756" y="377" />
            </Array>
          </mxGeometry>
        </mxCell>
        <mxCell id="JGZBHPkDL-rnXCfV3uWE-27" value="Extrapolation" style="rounded=1;whiteSpace=wrap;html=1;fillColor=#f5f5f5;strokeColor=#666666;fontColor=#333333;labelBackgroundColor=none;" parent="1" vertex="1">
          <mxGeometry x="876.99" y="278.37" width="100" height="32.25" as="geometry" />
        </mxCell>
        <mxCell id="JGZBHPkDL-rnXCfV3uWE-28" value="" style="endArrow=none;dashed=1;html=1;strokeColor=#000000;startArrow=none;entryX=1;entryY=0.5;entryDx=0;entryDy=0;exitX=0;exitY=0.5;exitDx=0;exitDy=0;labelBackgroundColor=none;" parent="1" source="JGZBHPkDL-rnXCfV3uWE-27" target="JGZBHPkDL-rnXCfV3uWE-27" edge="1">
          <mxGeometry width="50" height="50" relative="1" as="geometry">
            <mxPoint x="618.9000000000001" y="111.37999999999998" as="sourcePoint" />
            <mxPoint x="667.45" y="111.34000000000002" as="targetPoint" />
            <Array as="points">
              <mxPoint x="825.75" y="294.62" />
              <mxPoint x="826.25" y="500" />
              <mxPoint x="1028.25" y="500" />
              <mxPoint x="1028.25" y="294" />
            </Array>
          </mxGeometry>
        </mxCell>
        <mxCell id="JGZBHPkDL-rnXCfV3uWE-29" value="intermediate joins &lt;br&gt;and aggregations" style="aspect=fixed;html=1;points=[];align=center;image;fontSize=12;image=img/lib/mscae/Databricks.svg;labelBackgroundColor=none;" parent="1" vertex="1">
          <mxGeometry x="896.6299999999999" y="360" width="34.38" height="33" as="geometry" />
        </mxCell>
        <mxCell id="JGZBHPkDL-rnXCfV3uWE-30" value="Enrichment" style="rounded=1;whiteSpace=wrap;html=1;fillColor=#fff2cc;strokeColor=#d6b656;labelBackgroundColor=none;" parent="1" vertex="1">
          <mxGeometry x="1094.24" y="278.37" width="100" height="32.25" as="geometry" />
        </mxCell>
        <mxCell id="JGZBHPkDL-rnXCfV3uWE-31" value="" style="endArrow=none;dashed=1;html=1;strokeColor=#999900;startArrow=none;entryX=1;entryY=0.5;entryDx=0;entryDy=0;exitX=0;exitY=0.5;exitDx=0;exitDy=0;labelBackgroundColor=none;" parent="1" source="JGZBHPkDL-rnXCfV3uWE-30" target="JGZBHPkDL-rnXCfV3uWE-30" edge="1">
          <mxGeometry width="50" height="50" relative="1" as="geometry">
            <mxPoint x="836.1500000000001" y="111.37999999999998" as="sourcePoint" />
            <mxPoint x="884.7" y="111.34000000000002" as="targetPoint" />
            <Array as="points">
              <mxPoint x="1043" y="294.62" />
              <mxPoint x="1043.5" y="500" />
              <mxPoint x="1245.5" y="500" />
              <mxPoint x="1245.5" y="294" />
            </Array>
          </mxGeometry>
        </mxCell>
        <mxCell id="JGZBHPkDL-rnXCfV3uWE-32" value="prepare data for dashboard" style="aspect=fixed;html=1;points=[];align=center;image;fontSize=12;image=img/lib/mscae/Databricks.svg;labelBackgroundColor=none;" parent="1" vertex="1">
          <mxGeometry x="1113.8799999999999" y="360" width="34.38" height="33" as="geometry" />
        </mxCell>
        <mxCell id="JGZBHPkDL-rnXCfV3uWE-33" value="silver" style="shape=image;verticalLabelPosition=bottom;labelBackgroundColor=none;verticalAlign=top;aspect=fixed;imageAspect=0;image=https://delta.io/static/3bd8fea55ff57287371f4714232cd4ef/f3063/delta-lake-logo.png;fontSize=12;" parent="1" vertex="1">
          <mxGeometry x="981.99" y="564" width="42.27" height="41" as="geometry" />
        </mxCell>
        <mxCell id="JGZBHPkDL-rnXCfV3uWE-34" value="gold" style="shape=image;verticalLabelPosition=bottom;labelBackgroundColor=none;verticalAlign=top;aspect=fixed;imageAspect=0;image=https://delta.io/static/3bd8fea55ff57287371f4714232cd4ef/f3063/delta-lake-logo.png;fontSize=12;" parent="1" vertex="1">
          <mxGeometry x="1210" y="564" width="42.27" height="41" as="geometry" />
        </mxCell>
        <mxCell id="JGZBHPkDL-rnXCfV3uWE-35" value="" style="endArrow=classic;html=1;strokeWidth=2;strokeColor=#00994D;entryX=0.5;entryY=0;entryDx=0;entryDy=0;labelBackgroundColor=none;" parent="1" source="JGZBHPkDL-rnXCfV3uWE-32" target="JGZBHPkDL-rnXCfV3uWE-34" edge="1">
          <mxGeometry width="50" height="50" relative="1" as="geometry">
            <mxPoint x="723" y="387" as="sourcePoint" />
            <mxPoint x="766" y="580" as="targetPoint" />
            <Array as="points">
              <mxPoint x="1231" y="377" />
            </Array>
          </mxGeometry>
        </mxCell>
        <mxCell id="JGZBHPkDL-rnXCfV3uWE-36" value="" style="endArrow=classic;html=1;strokeWidth=2;strokeColor=#00994D;exitX=1;exitY=0.5;exitDx=0;exitDy=0;labelBackgroundColor=none;" parent="1" source="JGZBHPkDL-rnXCfV3uWE-33" target="JGZBHPkDL-rnXCfV3uWE-32" edge="1">
          <mxGeometry width="50" height="50" relative="1" as="geometry">
            <mxPoint x="1158" y="387" as="sourcePoint" />
            <mxPoint x="1241" y="574" as="targetPoint" />
            <Array as="points">
              <mxPoint x="1050" y="585" />
              <mxPoint x="1050" y="377" />
            </Array>
          </mxGeometry>
        </mxCell>
        <mxCell id="JGZBHPkDL-rnXCfV3uWE-37" value="" style="endArrow=classic;html=1;strokeWidth=2;strokeColor=#00994D;entryX=0.5;entryY=0;entryDx=0;entryDy=0;labelBackgroundColor=none;" parent="1" source="JGZBHPkDL-rnXCfV3uWE-29" target="JGZBHPkDL-rnXCfV3uWE-33" edge="1">
          <mxGeometry width="50" height="50" relative="1" as="geometry">
            <mxPoint x="1158" y="387" as="sourcePoint" />
            <mxPoint x="1241" y="574" as="targetPoint" />
            <Array as="points">
              <mxPoint x="1003" y="377" />
            </Array>
          </mxGeometry>
        </mxCell>
        <mxCell id="JGZBHPkDL-rnXCfV3uWE-38" value="" style="endArrow=classic;html=1;strokeWidth=2;strokeColor=#00994D;exitX=1;exitY=0.5;exitDx=0;exitDy=0;labelBackgroundColor=none;" parent="1" source="JGZBHPkDL-rnXCfV3uWE-25" target="JGZBHPkDL-rnXCfV3uWE-29" edge="1">
          <mxGeometry width="50" height="50" relative="1" as="geometry">
            <mxPoint x="941" y="387" as="sourcePoint" />
            <mxPoint x="1013" y="574" as="targetPoint" />
            <Array as="points">
              <mxPoint x="830" y="590" />
              <mxPoint x="830" y="377" />
            </Array>
          </mxGeometry>
        </mxCell>
        <mxCell id="JGZBHPkDL-rnXCfV3uWE-45" value="Data Engineers" style="verticalLabelPosition=bottom;html=1;verticalAlign=top;align=center;strokeColor=none;fillColor=#00BEF2;shape=mxgraph.azure.user;labelBackgroundColor=none;" parent="1" vertex="1">
          <mxGeometry x="1400" y="269.99999999999994" width="30" height="31.68" as="geometry" />
        </mxCell>
        <mxCell id="JGZBHPkDL-rnXCfV3uWE-46" value="" style="endArrow=none;html=1;strokeWidth=1;strokeColor=#000000;dashed=1;entryX=0.25;entryY=0;entryDx=0;entryDy=0;startArrow=classic;startFill=1;endFill=0;labelBackgroundColor=none;exitX=0.14;exitY=0.65;exitDx=0;exitDy=0;exitPerimeter=0;" parent="1" source="JGZBHPkDL-rnXCfV3uWE-45" target="H_rsyrSgxaKJZ-ZQZP7K-9" edge="1">
          <mxGeometry width="50" height="50" relative="1" as="geometry">
            <mxPoint x="1400" y="290" as="sourcePoint" />
            <mxPoint x="1430" y="221.1599999999998" as="targetPoint" />
            <Array as="points">
              <mxPoint x="1333" y="290" />
            </Array>
          </mxGeometry>
        </mxCell>
        <mxCell id="YF66gYaXmQ13JHyxmqJq-1" value="" style="endArrow=classic;html=1;strokeWidth=2;strokeColor=#00994D;labelBackgroundColor=none;" parent="1" source="JGZBHPkDL-rnXCfV3uWE-15" target="JGZBHPkDL-rnXCfV3uWE-22" edge="1">
          <mxGeometry width="50" height="50" relative="1" as="geometry">
            <mxPoint x="723" y="387" as="sourcePoint" />
            <mxPoint x="766" y="580" as="targetPoint" />
            <Array as="points" />
          </mxGeometry>
        </mxCell>
        <mxCell id="H_rsyrSgxaKJZ-ZQZP7K-1" value="Data does not satisfy&amp;nbsp;Six Dimensions" style="shape=callout;whiteSpace=wrap;html=1;perimeter=calloutPerimeter;fontSize=12;fillColor=#fff2cc;strokeColor=#d6b656;position2=0.9;labelBackgroundColor=none;" parent="1" vertex="1">
          <mxGeometry x="336.5" y="180" width="100" height="80" as="geometry" />
        </mxCell>
        <mxCell id="H_rsyrSgxaKJZ-ZQZP7K-2" value="Data should satisfy&amp;nbsp;Six Dimensions" style="shape=callout;whiteSpace=wrap;html=1;perimeter=calloutPerimeter;fontSize=12;fillColor=#fff2cc;strokeColor=#d6b656;position2=0.9;labelBackgroundColor=none;" parent="1" vertex="1">
          <mxGeometry x="1110" y="525" width="100" height="80" as="geometry" />
        </mxCell>
        <mxCell id="H_rsyrSgxaKJZ-ZQZP7K-3" value="Majority of quality testing with expectations will take place after applying VDV extrapolations" style="shape=callout;whiteSpace=wrap;html=1;perimeter=calloutPerimeter;fontSize=12;fillColor=#fff2cc;strokeColor=#d6b656;position2=0.57;labelBackgroundColor=none;" parent="1" vertex="1">
          <mxGeometry x="820" y="180" width="180" height="90" as="geometry" />
        </mxCell>
        <mxCell id="H_rsyrSgxaKJZ-ZQZP7K-4" value="Data Quality Metrics" style="shape=image;verticalLabelPosition=bottom;labelBackgroundColor=none;verticalAlign=top;aspect=fixed;imageAspect=0;image=https://delta.io/static/3bd8fea55ff57287371f4714232cd4ef/f3063/delta-lake-logo.png;fontSize=12;" parent="1" vertex="1">
          <mxGeometry x="981.99" y="660" width="42.27" height="41" as="geometry" />
        </mxCell>
        <mxCell id="H_rsyrSgxaKJZ-ZQZP7K-5" value="" style="endArrow=classic;html=1;strokeWidth=2;strokeColor=#00994D;entryX=0;entryY=0.5;entryDx=0;entryDy=0;labelBackgroundColor=none;exitX=0.5;exitY=1;exitDx=0;exitDy=0;" parent="1" source="ffcZNQ_vb8BtcU0qQCrQ-1" target="H_rsyrSgxaKJZ-ZQZP7K-4" edge="1">
          <mxGeometry width="50" height="50" relative="1" as="geometry">
            <mxPoint x="723" y="387" as="sourcePoint" />
            <mxPoint x="766" y="580" as="targetPoint" />
            <Array as="points">
              <mxPoint x="756" y="681" />
            </Array>
          </mxGeometry>
        </mxCell>
        <mxCell id="H_rsyrSgxaKJZ-ZQZP7K-6" value="" style="endArrow=classic;html=1;strokeWidth=2;strokeColor=#00994D;entryX=0;entryY=0.25;entryDx=0;entryDy=0;labelBackgroundColor=none;exitX=0;exitY=0.5;exitDx=0;exitDy=0;" parent="1" source="JGZBHPkDL-rnXCfV3uWE-33" target="H_rsyrSgxaKJZ-ZQZP7K-4" edge="1">
          <mxGeometry width="50" height="50" relative="1" as="geometry">
            <mxPoint x="766" y="621" as="sourcePoint" />
            <mxPoint x="992" y="691" as="targetPoint" />
            <Array as="points">
              <mxPoint x="950" y="585" />
              <mxPoint x="950" y="670" />
            </Array>
          </mxGeometry>
        </mxCell>
        <mxCell id="H_rsyrSgxaKJZ-ZQZP7K-8" value="" style="endArrow=classic;html=1;strokeWidth=2;strokeColor=#00994D;entryX=1;entryY=0.5;entryDx=0;entryDy=0;labelBackgroundColor=none;exitX=0.5;exitY=1;exitDx=0;exitDy=0;" parent="1" source="JGZBHPkDL-rnXCfV3uWE-34" target="H_rsyrSgxaKJZ-ZQZP7K-4" edge="1">
          <mxGeometry width="50" height="50" relative="1" as="geometry">
            <mxPoint x="1180" y="630" as="sourcePoint" />
            <mxPoint x="992" y="691" as="targetPoint" />
            <Array as="points">
              <mxPoint x="1231" y="680" />
            </Array>
          </mxGeometry>
        </mxCell>
        <mxCell id="H_rsyrSgxaKJZ-ZQZP7K-9" value="Daily/Hourly quality metrics" style="shape=image;verticalLabelPosition=bottom;labelBackgroundColor=none;verticalAlign=top;aspect=fixed;imageAspect=0;image=https://www.databricks.com/en-website-assets/static/b3b786bc7c3c6d1ec241ba0969d91295/better_data_quality.jpg;" parent="1" vertex="1">
          <mxGeometry x="1277.09" y="353" width="221.95" height="146" as="geometry" />
        </mxCell>
        <mxCell id="H_rsyrSgxaKJZ-ZQZP7K-10" value="" style="endArrow=classic;html=1;strokeWidth=2;strokeColor=#00994D;entryX=0.5;entryY=1;entryDx=0;entryDy=0;labelBackgroundColor=none;exitX=1;exitY=0.75;exitDx=0;exitDy=0;" parent="1" source="H_rsyrSgxaKJZ-ZQZP7K-4" target="H_rsyrSgxaKJZ-ZQZP7K-9" edge="1">
          <mxGeometry width="50" height="50" relative="1" as="geometry">
            <mxPoint x="1241" y="615" as="sourcePoint" />
            <mxPoint x="1034" y="691" as="targetPoint" />
            <Array as="points">
              <mxPoint x="1388" y="690" />
            </Array>
          </mxGeometry>
        </mxCell>
        <mxCell id="ffcZNQ_vb8BtcU0qQCrQ-1" value="Deeq unit tests" style="rounded=1;whiteSpace=wrap;html=1;fontSize=16;fillColor=#d5e8d4;strokeColor=#82b366;labelBackgroundColor=none;" parent="1" vertex="1">
          <mxGeometry x="695.52" y="640" width="120" height="30" as="geometry" />
        </mxCell>
        <mxCell id="ffcZNQ_vb8BtcU0qQCrQ-2" value="" style="endArrow=classic;html=1;strokeWidth=2;strokeColor=#00994D;entryX=0.5;entryY=0;entryDx=0;entryDy=0;labelBackgroundColor=none;exitX=0.5;exitY=1;exitDx=0;exitDy=0;" parent="1" source="JGZBHPkDL-rnXCfV3uWE-25" target="ffcZNQ_vb8BtcU0qQCrQ-1" edge="1">
          <mxGeometry width="50" height="50" relative="1" as="geometry">
            <mxPoint x="766" y="680" as="sourcePoint" />
            <mxPoint x="992" y="691" as="targetPoint" />
            <Array as="points" />
          </mxGeometry>
        </mxCell>
        <mxCell id="ffcZNQ_vb8BtcU0qQCrQ-3" value="Bad Records" style="shape=image;verticalLabelPosition=bottom;labelBackgroundColor=none;verticalAlign=top;aspect=fixed;imageAspect=0;image=https://delta.io/static/3bd8fea55ff57287371f4714232cd4ef/f3063/delta-lake-logo.png;fontSize=12;" parent="1" vertex="1">
          <mxGeometry x="830" y="720" width="42.27" height="41" as="geometry" />
        </mxCell>
        <mxCell id="ffcZNQ_vb8BtcU0qQCrQ-4" value="" style="endArrow=classic;html=1;strokeWidth=2;strokeColor=#00994D;entryX=0;entryY=0.5;entryDx=0;entryDy=0;labelBackgroundColor=none;exitX=0.25;exitY=1;exitDx=0;exitDy=0;" parent="1" source="ffcZNQ_vb8BtcU0qQCrQ-1" target="ffcZNQ_vb8BtcU0qQCrQ-3" edge="1">
          <mxGeometry width="50" height="50" relative="1" as="geometry">
            <mxPoint x="766" y="680" as="sourcePoint" />
            <mxPoint x="992" y="691" as="targetPoint" />
            <Array as="points">
              <mxPoint x="726" y="740" />
            </Array>
          </mxGeometry>
        </mxCell>
      </root>
    </mxGraphModel>
  </diagram>
</mxfile>
